<?xml version="1.0" encoding="us-ascii" standalone="no"?><svg xmlns="http://www.w3.org/2000/svg" xmlns:xlink="http://www.w3.org/1999/xlink" contentStyleType="text/css" height="1694px" preserveAspectRatio="none" style="width:629px;height:1694px;background:#FFFFFF;" version="1.1" viewBox="0 0 629 1694" width="629px" zoomAndPan="magnify"><defs/><g><text fill="#000000" font-family="sans-serif" font-size="14" font-weight="bold" lengthAdjust="spacing" textLength="337" x="144.5" y="34.5332">InsightIQ - Analytics Generation Activity Diagram</text><ellipse cx="314.5" cy="58.6094" fill="#222222" rx="10" ry="10" style="stroke:#222222;stroke-width:1.0;"/><rect fill="#F1F1F1" height="35.0938" rx="12.5" ry="12.5" style="stroke:#181818;stroke-width:0.5;" width="155" x="237" y="88.6094"/><text fill="#000000" font-family="sans-serif" font-size="12" lengthAdjust="spacing" textLength="135" x="247" y="111.0664">User Requests Analytics</text><rect fill="#F1F1F1" height="35.0938" rx="12.5" ry="12.5" style="stroke:#181818;stroke-width:0.5;" width="156" x="236.5" y="143.7031"/><text fill="#000000" font-family="sans-serif" font-size="12" lengthAdjust="spacing" textLength="136" x="246.5" y="166.1602">Parse Query Parameters</text><rect fill="none" height="363.8086" style="stroke:#000000;stroke-width:1.5;" width="352" x="154" y="188.7969"/><path d="M249,188.7969 L249,199.4063 L239,209.4063 L154,209.4063 " fill="none" style="stroke:#000000;stroke-width:1.5;"/><text fill="#000000" font-family="sans-serif" font-size="14" lengthAdjust="spacing" textLength="85" x="157" y="204.3301">Cache Check</text><rect fill="#F1F1F1" height="35.0938" rx="12.5" ry="12.5" style="stroke:#181818;stroke-width:0.5;" width="133" x="248" y="226.4063"/><text fill="#000000" font-family="sans-serif" font-size="12" lengthAdjust="spacing" textLength="113" x="258" y="248.8633">Generate Cache Key</text><rect fill="#F1F1F1" height="35.0938" rx="12.5" ry="12.5" style="stroke:#181818;stroke-width:0.5;" width="130" x="249.5" y="281.5"/><text fill="#000000" font-family="sans-serif" font-size="12" lengthAdjust="spacing" textLength="110" x="259.5" y="303.957">Check Redis Cache</text><polygon fill="#F1F1F1" points="276.5,385.5117,352.5,385.5117,364.5,397.5117,352.5,409.5117,276.5,409.5117,264.5,397.5117,276.5,385.5117" style="stroke:#181818;stroke-width:0.5;"/><text fill="#000000" font-family="sans-serif" font-size="11" lengthAdjust="spacing" textLength="76" x="276.5" y="402.0127">Cache Expired?</text><text fill="#000000" font-family="sans-serif" font-size="11" lengthAdjust="spacing" textLength="18" x="246.5" y="395.0947">yes</text><text fill="#000000" font-family="sans-serif" font-size="11" lengthAdjust="spacing" textLength="12" x="364.5" y="395.0947">no</text><rect fill="#F1F1F1" height="35.0938" rx="12.5" ry="12.5" style="stroke:#181818;stroke-width:0.5;" width="111" x="184" y="419.5117"/><text fill="#000000" font-family="sans-serif" font-size="12" lengthAdjust="spacing" textLength="91" x="194" y="441.9688">Invalidate Cache</text><rect fill="#F1F1F1" height="35.0938" rx="12.5" ry="12.5" style="stroke:#181818;stroke-width:0.5;" width="149" x="315" y="419.5117"/><text fill="#000000" font-family="sans-serif" font-size="12" lengthAdjust="spacing" textLength="129" x="325" y="441.9688">Return Cached Results</text><ellipse cx="389.5" cy="485.6055" fill="none" rx="11" ry="11" style="stroke:#222222;stroke-width:1.0;"/><ellipse cx="389.5" cy="485.6055" fill="#222222" rx="6" ry="6" style="stroke:#222222;stroke-width:1.0;"/><polygon fill="#F1F1F1" points="272.5,336.5938,356.5,336.5938,368.5,348.5938,356.5,360.5938,272.5,360.5938,260.5,348.5938,272.5,336.5938" style="stroke:#181818;stroke-width:0.5;"/><text fill="#000000" font-family="sans-serif" font-size="11" lengthAdjust="spacing" textLength="18" x="318.5" y="372.0127">yes</text><text fill="#000000" font-family="sans-serif" font-size="11" lengthAdjust="spacing" textLength="84" x="272.5" y="353.0947">Cache Available?</text><polygon fill="#F1F1F1" points="314.5,516.6055,326.5,528.6055,314.5,540.6055,302.5,528.6055,314.5,516.6055" style="stroke:#181818;stroke-width:0.5;"/><rect fill="none" height="246.8906" style="stroke:#000000;stroke-width:1.5;" width="547" x="41" y="562.6055"/><path d="M162,562.6055 L162,573.2148 L152,583.2148 L41,583.2148 " fill="none" style="stroke:#000000;stroke-width:1.5;"/><text fill="#000000" font-family="sans-serif" font-size="14" lengthAdjust="spacing" textLength="111" x="44" y="578.1387">Data Aggregation</text><rect fill="#555555" height="6" rx="2.5" ry="2.5" style="stroke:#555555;stroke-width:1.0;" width="527" x="51" y="600.2148"/><rect fill="#F1F1F1" height="35.0938" rx="12.5" ry="12.5" style="stroke:#181818;stroke-width:0.5;" width="129" x="65" y="626.2148"/><text fill="#000000" font-family="sans-serif" font-size="12" lengthAdjust="spacing" textLength="109" x="75" y="648.6719">Query Sales Metrics</text><rect fill="#F1F1F1" height="35.0938" rx="12.5" ry="12.5" style="stroke:#181818;stroke-width:0.5;" width="124" x="67.5" y="681.3086"/><text fill="#000000" font-family="sans-serif" font-size="12" lengthAdjust="spacing" textLength="104" x="77.5" y="703.7656">Calculate Revenue</text><rect fill="#F1F1F1" height="35.0938" rx="12.5" ry="12.5" style="stroke:#181818;stroke-width:0.5;" width="124" x="233" y="626.2148"/><text fill="#000000" font-family="sans-serif" font-size="12" lengthAdjust="spacing" textLength="104" x="243" y="648.6719">Query User Metrics</text><rect fill="#F1F1F1" height="35.0938" rx="12.5" ry="12.5" style="stroke:#181818;stroke-width:0.5;" width="146" x="222" y="681.3086"/><text fill="#000000" font-family="sans-serif" font-size="12" lengthAdjust="spacing" textLength="126" x="232" y="703.7656">Calculate Engagement</text><rect fill="#F1F1F1" height="35.0938" rx="12.5" ry="12.5" style="stroke:#181818;stroke-width:0.5;" width="168" x="396" y="626.2148"/><text fill="#000000" font-family="sans-serif" font-size="12" lengthAdjust="spacing" textLength="148" x="406" y="648.6719">Query Performance Metrics</text><rect fill="#F1F1F1" height="35.0938" rx="12.5" ry="12.5" style="stroke:#181818;stroke-width:0.5;" width="101" x="429.5" y="681.3086"/><text fill="#000000" font-family="sans-serif" font-size="12" lengthAdjust="spacing" textLength="81" x="439.5" y="703.7656">Calculate KPIs</text><rect fill="#555555" height="6" rx="2.5" ry="2.5" style="stroke:#555555;stroke-width:1.0;" width="527" x="51" y="736.4023"/><rect fill="#F1F1F1" height="35.0938" rx="12.5" ry="12.5" style="stroke:#181818;stroke-width:0.5;" width="100" x="264.5" y="762.4023"/><text fill="#000000" font-family="sans-serif" font-size="12" lengthAdjust="spacing" textLength="80" x="274.5" y="784.8594">Merge Results</text><rect fill="none" height="305.0781" style="stroke:#000000;stroke-width:1.5;" width="168" x="230.5" y="819.4961"/><path d="M292.5,819.4961 L292.5,830.1055 L282.5,840.1055 L230.5,840.1055 " fill="none" style="stroke:#000000;stroke-width:1.5;"/><text fill="#000000" font-family="sans-serif" font-size="14" lengthAdjust="spacing" textLength="52" x="233.5" y="835.0293">Analysis</text><rect fill="#F1F1F1" height="35.0938" rx="12.5" ry="12.5" style="stroke:#181818;stroke-width:0.5;" width="148" x="240.5" y="857.1055"/><text fill="#000000" font-family="sans-serif" font-size="12" lengthAdjust="spacing" textLength="128" x="250.5" y="879.5625">Apply Statistical Models</text><rect fill="#F1F1F1" height="35.0938" rx="12.5" ry="12.5" style="stroke:#181818;stroke-width:0.5;" width="114" x="257.5" y="912.1992"/><text fill="#000000" font-family="sans-serif" font-size="12" lengthAdjust="spacing" textLength="94" x="267.5" y="934.6563">Calculate Trends</text><rect fill="#F1F1F1" height="35.0938" rx="12.5" ry="12.5" style="stroke:#181818;stroke-width:0.5;" width="136" x="246.5" y="967.293"/><text fill="#000000" font-family="sans-serif" font-size="12" lengthAdjust="spacing" textLength="116" x="256.5" y="989.75">Generate Predictions</text><rect fill="#F1F1F1" height="35.0938" rx="12.5" ry="12.5" style="stroke:#181818;stroke-width:0.5;" width="107" x="261" y="1022.3867"/><text fill="#000000" font-family="sans-serif" font-size="12" lengthAdjust="spacing" textLength="87" x="271" y="1044.8438">Identify Patterns</text><rect fill="#F1F1F1" height="35.0938" rx="12.5" ry="12.5" style="stroke:#181818;stroke-width:0.5;" width="137" x="246" y="1077.4805"/><text fill="#000000" font-family="sans-serif" font-size="12" lengthAdjust="spacing" textLength="117" x="256" y="1099.9375">Calculate Percentiles</text><rect fill="none" height="246.8906" style="stroke:#000000;stroke-width:1.5;" width="607" x="11" y="1134.5742"/><path d="M99,1134.5742 L99,1145.1836 L89,1155.1836 L11,1155.1836 " fill="none" style="stroke:#000000;stroke-width:1.5;"/><text fill="#000000" font-family="sans-serif" font-size="14" lengthAdjust="spacing" textLength="78" x="14" y="1150.1074">Visualization</text><rect fill="#F1F1F1" height="35.0938" rx="12.5" ry="12.5" style="stroke:#181818;stroke-width:0.5;" width="133" x="248" y="1172.1836"/><text fill="#000000" font-family="sans-serif" font-size="12" lengthAdjust="spacing" textLength="113" x="258" y="1194.6406">Generate Chart Data</text><rect fill="#F1F1F1" height="35.0938" rx="12.5" ry="12.5" style="stroke:#181818;stroke-width:0.5;" width="128" x="250.5" y="1227.2773"/><text fill="#000000" font-family="sans-serif" font-size="12" lengthAdjust="spacing" textLength="108" x="260.5" y="1249.7344">Format for Frontend</text><rect fill="#555555" height="6" rx="2.5" ry="2.5" style="stroke:#555555;stroke-width:1.0;" width="587" x="21" y="1282.3711"/><rect fill="#F1F1F1" height="35.0938" rx="12.5" ry="12.5" style="stroke:#181818;stroke-width:0.5;" width="124" x="33" y="1308.3711"/><text fill="#000000" font-family="sans-serif" font-size="12" lengthAdjust="spacing" textLength="104" x="43" y="1330.8281">Create Line Charts</text><rect fill="#F1F1F1" height="35.0938" rx="12.5" ry="12.5" style="stroke:#181818;stroke-width:0.5;" width="119" x="185" y="1308.3711"/><text fill="#000000" font-family="sans-serif" font-size="12" lengthAdjust="spacing" textLength="99" x="195" y="1330.8281">Create Bar Charts</text><rect fill="#F1F1F1" height="35.0938" rx="12.5" ry="12.5" style="stroke:#181818;stroke-width:0.5;" width="118" x="332" y="1308.3711"/><text fill="#000000" font-family="sans-serif" font-size="12" lengthAdjust="spacing" textLength="98" x="342" y="1330.8281">Create Pie Charts</text><rect fill="#F1F1F1" height="35.0938" rx="12.5" ry="12.5" style="stroke:#181818;stroke-width:0.5;" width="118" x="478" y="1308.3711"/><text fill="#000000" font-family="sans-serif" font-size="12" lengthAdjust="spacing" textLength="98" x="488" y="1330.8281">Create Heatmaps</text><rect fill="#555555" height="6" rx="2.5" ry="2.5" style="stroke:#555555;stroke-width:1.0;" width="587" x="21" y="1363.4648"/><rect fill="none" height="194.8906" style="stroke:#000000;stroke-width:1.5;" width="146" x="241.5" y="1391.4648"/><path d="M303.5,1391.4648 L303.5,1402.0742 L293.5,1412.0742 L241.5,1412.0742 " fill="none" style="stroke:#000000;stroke-width:1.5;"/><text fill="#000000" font-family="sans-serif" font-size="14" lengthAdjust="spacing" textLength="52" x="244.5" y="1406.998">Caching</text><rect fill="#F1F1F1" height="35.0938" rx="12.5" ry="12.5" style="stroke:#181818;stroke-width:0.5;" width="113" x="258" y="1429.0742"/><text fill="#000000" font-family="sans-serif" font-size="12" lengthAdjust="spacing" textLength="93" x="268" y="1451.5313">Serialize Results</text><rect fill="#F1F1F1" height="35.0938" rx="12.5" ry="12.5" style="stroke:#181818;stroke-width:0.5;" width="98" x="265.5" y="1484.168"/><text fill="#000000" font-family="sans-serif" font-size="12" lengthAdjust="spacing" textLength="78" x="275.5" y="1506.625">Store in Redis</text><rect fill="#F1F1F1" height="35.0938" rx="12.5" ry="12.5" style="stroke:#181818;stroke-width:0.5;" width="126" x="251.5" y="1539.2617"/><text fill="#000000" font-family="sans-serif" font-size="12" lengthAdjust="spacing" textLength="106" x="261.5" y="1561.7188">Set Expiration Time</text><rect fill="#F1F1F1" height="35.0938" rx="12.5" ry="12.5" style="stroke:#181818;stroke-width:0.5;" width="169" x="230" y="1606.3555"/><text fill="#000000" font-family="sans-serif" font-size="12" lengthAdjust="spacing" textLength="149" x="240" y="1628.8125">Return Analytics Response</text><ellipse cx="314.5" cy="1672.4492" fill="none" rx="11" ry="11" style="stroke:#222222;stroke-width:1.0;"/><ellipse cx="314.5" cy="1672.4492" fill="#222222" rx="6" ry="6" style="stroke:#222222;stroke-width:1.0;"/><line style="stroke:#181818;stroke-width:1.0;" x1="314.5" x2="314.5" y1="68.6094" y2="88.6094"/><polygon fill="#181818" points="310.5,78.6094,314.5,88.6094,318.5,78.6094,314.5,82.6094" style="stroke:#181818;stroke-width:1.0;"/><line style="stroke:#181818;stroke-width:1.0;" x1="314.5" x2="314.5" y1="123.7031" y2="143.7031"/><polygon fill="#181818" points="310.5,133.7031,314.5,143.7031,318.5,133.7031,314.5,137.7031" style="stroke:#181818;stroke-width:1.0;"/><line style="stroke:#181818;stroke-width:1.0;" x1="314.5" x2="314.5" y1="261.5" y2="281.5"/><polygon fill="#181818" points="310.5,271.5,314.5,281.5,318.5,271.5,314.5,275.5" style="stroke:#181818;stroke-width:1.0;"/><line style="stroke:#181818;stroke-width:1.0;" x1="389.5" x2="389.5" y1="454.6055" y2="474.6055"/><polygon fill="#181818" points="385.5,464.6055,389.5,474.6055,393.5,464.6055,389.5,468.6055" style="stroke:#181818;stroke-width:1.0;"/><line style="stroke:#181818;stroke-width:1.0;" x1="264.5" x2="239.5" y1="397.5117" y2="397.5117"/><line style="stroke:#181818;stroke-width:1.0;" x1="239.5" x2="239.5" y1="397.5117" y2="419.5117"/><polygon fill="#181818" points="235.5,409.5117,239.5,419.5117,243.5,409.5117,239.5,413.5117" style="stroke:#181818;stroke-width:1.0;"/><line style="stroke:#181818;stroke-width:1.0;" x1="364.5" x2="389.5" y1="397.5117" y2="397.5117"/><line style="stroke:#181818;stroke-width:1.0;" x1="389.5" x2="389.5" y1="397.5117" y2="419.5117"/><polygon fill="#181818" points="385.5,409.5117,389.5,419.5117,393.5,409.5117,389.5,413.5117" style="stroke:#181818;stroke-width:1.0;"/><line style="stroke:#181818;stroke-width:1.0;" x1="239.5" x2="239.5" y1="454.6055" y2="501.6055"/><line style="stroke:#181818;stroke-width:1.0;" x1="239.5" x2="314.5" y1="501.6055" y2="501.6055"/><line style="stroke:#181818;stroke-width:1.0;" x1="314.5" x2="314.5" y1="501.6055" y2="516.6055"/><polygon fill="#181818" points="310.5,506.6055,314.5,516.6055,318.5,506.6055,314.5,510.6055" style="stroke:#181818;stroke-width:1.0;"/><line style="stroke:#181818;stroke-width:1.0;" x1="314.5" x2="314.5" y1="360.5938" y2="385.5117"/><polygon fill="#181818" points="310.5,375.5117,314.5,385.5117,318.5,375.5117,314.5,379.5117" style="stroke:#181818;stroke-width:1.0;"/><line style="stroke:#181818;stroke-width:1.0;" x1="368.5" x2="484" y1="348.5938" y2="348.5938"/><polygon fill="#181818" points="480,441.5586,484,451.5586,488,441.5586,484,445.5586" style="stroke:#181818;stroke-width:1.0;"/><line style="stroke:#181818;stroke-width:1.0;" x1="484" x2="484" y1="348.5938" y2="528.6055"/><line style="stroke:#181818;stroke-width:1.0;" x1="484" x2="326.5" y1="528.6055" y2="528.6055"/><polygon fill="#181818" points="336.5,524.6055,326.5,528.6055,336.5,532.6055,332.5,528.6055" style="stroke:#181818;stroke-width:1.0;"/><line style="stroke:#181818;stroke-width:1.0;" x1="314.5" x2="314.5" y1="316.5938" y2="336.5938"/><polygon fill="#181818" points="310.5,326.5938,314.5,336.5938,318.5,326.5938,314.5,330.5938" style="stroke:#181818;stroke-width:1.0;"/><line style="stroke:#181818;stroke-width:1.0;" x1="314.5" x2="314.5" y1="178.7969" y2="226.4063"/><polygon fill="#181818" points="310.5,216.4063,314.5,226.4063,318.5,216.4063,314.5,220.4063" style="stroke:#181818;stroke-width:1.0;"/><line style="stroke:#181818;stroke-width:1.0;" x1="129.5" x2="129.5" y1="661.3086" y2="681.3086"/><polygon fill="#181818" points="125.5,671.3086,129.5,681.3086,133.5,671.3086,129.5,675.3086" style="stroke:#181818;stroke-width:1.0;"/><line style="stroke:#181818;stroke-width:1.0;" x1="295" x2="295" y1="661.3086" y2="681.3086"/><polygon fill="#181818" points="291,671.3086,295,681.3086,299,671.3086,295,675.3086" style="stroke:#181818;stroke-width:1.0;"/><line style="stroke:#181818;stroke-width:1.0;" x1="480" x2="480" y1="661.3086" y2="681.3086"/><polygon fill="#181818" points="476,671.3086,480,681.3086,484,671.3086,480,675.3086" style="stroke:#181818;stroke-width:1.0;"/><line style="stroke:#181818;stroke-width:1.0;" x1="129.5" x2="129.5" y1="606.2148" y2="626.2148"/><polygon fill="#181818" points="125.5,616.2148,129.5,626.2148,133.5,616.2148,129.5,620.2148" style="stroke:#181818;stroke-width:1.0;"/><line style="stroke:#181818;stroke-width:1.0;" x1="295" x2="295" y1="606.2148" y2="626.2148"/><polygon fill="#181818" points="291,616.2148,295,626.2148,299,616.2148,295,620.2148" style="stroke:#181818;stroke-width:1.0;"/><line style="stroke:#181818;stroke-width:1.0;" x1="480" x2="480" y1="606.2148" y2="626.2148"/><polygon fill="#181818" points="476,616.2148,480,626.2148,484,616.2148,480,620.2148" style="stroke:#181818;stroke-width:1.0;"/><line style="stroke:#181818;stroke-width:1.0;" x1="129.5" x2="129.5" y1="716.4023" y2="736.4023"/><polygon fill="#181818" points="125.5,726.4023,129.5,736.4023,133.5,726.4023,129.5,730.4023" style="stroke:#181818;stroke-width:1.0;"/><line style="stroke:#181818;stroke-width:1.0;" x1="295" x2="295" y1="716.4023" y2="736.4023"/><polygon fill="#181818" points="291,726.4023,295,736.4023,299,726.4023,295,730.4023" style="stroke:#181818;stroke-width:1.0;"/><line style="stroke:#181818;stroke-width:1.0;" x1="480" x2="480" y1="716.4023" y2="736.4023"/><polygon fill="#181818" points="476,726.4023,480,736.4023,484,726.4023,480,730.4023" style="stroke:#181818;stroke-width:1.0;"/><line style="stroke:#181818;stroke-width:1.0;" x1="314.5" x2="314.5" y1="742.4023" y2="762.4023"/><polygon fill="#181818" points="310.5,752.4023,314.5,762.4023,318.5,752.4023,314.5,756.4023" style="stroke:#181818;stroke-width:1.0;"/><line style="stroke:#181818;stroke-width:1.0;" x1="314.5" x2="314.5" y1="540.6055" y2="600.2148"/><polygon fill="#181818" points="310.5,590.2148,314.5,600.2148,318.5,590.2148,314.5,594.2148" style="stroke:#181818;stroke-width:1.0;"/><line style="stroke:#181818;stroke-width:1.0;" x1="314.5" x2="314.5" y1="892.1992" y2="912.1992"/><polygon fill="#181818" points="310.5,902.1992,314.5,912.1992,318.5,902.1992,314.5,906.1992" style="stroke:#181818;stroke-width:1.0;"/><line style="stroke:#181818;stroke-width:1.0;" x1="314.5" x2="314.5" y1="947.293" y2="967.293"/><polygon fill="#181818" points="310.5,957.293,314.5,967.293,318.5,957.293,314.5,961.293" style="stroke:#181818;stroke-width:1.0;"/><line style="stroke:#181818;stroke-width:1.0;" x1="314.5" x2="314.5" y1="1002.3867" y2="1022.3867"/><polygon fill="#181818" points="310.5,1012.3867,314.5,1022.3867,318.5,1012.3867,314.5,1016.3867" style="stroke:#181818;stroke-width:1.0;"/><line style="stroke:#181818;stroke-width:1.0;" x1="314.5" x2="314.5" y1="1057.4805" y2="1077.4805"/><polygon fill="#181818" points="310.5,1067.4805,314.5,1077.4805,318.5,1067.4805,314.5,1071.4805" style="stroke:#181818;stroke-width:1.0;"/><line style="stroke:#181818;stroke-width:1.0;" x1="314.5" x2="314.5" y1="797.4961" y2="857.1055"/><polygon fill="#181818" points="310.5,847.1055,314.5,857.1055,318.5,847.1055,314.5,851.1055" style="stroke:#181818;stroke-width:1.0;"/><line style="stroke:#181818;stroke-width:1.0;" x1="314.5" x2="314.5" y1="1207.2773" y2="1227.2773"/><polygon fill="#181818" points="310.5,1217.2773,314.5,1227.2773,318.5,1217.2773,314.5,1221.2773" style="stroke:#181818;stroke-width:1.0;"/><line style="stroke:#181818;stroke-width:1.0;" x1="95" x2="95" y1="1288.3711" y2="1308.3711"/><polygon fill="#181818" points="91,1298.3711,95,1308.3711,99,1298.3711,95,1302.3711" style="stroke:#181818;stroke-width:1.0;"/><line style="stroke:#181818;stroke-width:1.0;" x1="244.5" x2="244.5" y1="1288.3711" y2="1308.3711"/><polygon fill="#181818" points="240.5,1298.3711,244.5,1308.3711,248.5,1298.3711,244.5,1302.3711" style="stroke:#181818;stroke-width:1.0;"/><line style="stroke:#181818;stroke-width:1.0;" x1="391" x2="391" y1="1288.3711" y2="1308.3711"/><polygon fill="#181818" points="387,1298.3711,391,1308.3711,395,1298.3711,391,1302.3711" style="stroke:#181818;stroke-width:1.0;"/><line style="stroke:#181818;stroke-width:1.0;" x1="537" x2="537" y1="1288.3711" y2="1308.3711"/><polygon fill="#181818" points="533,1298.3711,537,1308.3711,541,1298.3711,537,1302.3711" style="stroke:#181818;stroke-width:1.0;"/><line style="stroke:#181818;stroke-width:1.0;" x1="95" x2="95" y1="1343.4648" y2="1363.4648"/><polygon fill="#181818" points="91,1353.4648,95,1363.4648,99,1353.4648,95,1357.4648" style="stroke:#181818;stroke-width:1.0;"/><line style="stroke:#181818;stroke-width:1.0;" x1="244.5" x2="244.5" y1="1343.4648" y2="1363.4648"/><polygon fill="#181818" points="240.5,1353.4648,244.5,1363.4648,248.5,1353.4648,244.5,1357.4648" style="stroke:#181818;stroke-width:1.0;"/><line style="stroke:#181818;stroke-width:1.0;" x1="391" x2="391" y1="1343.4648" y2="1363.4648"/><polygon fill="#181818" points="387,1353.4648,391,1363.4648,395,1353.4648,391,1357.4648" style="stroke:#181818;stroke-width:1.0;"/><line style="stroke:#181818;stroke-width:1.0;" x1="537" x2="537" y1="1343.4648" y2="1363.4648"/><polygon fill="#181818" points="533,1353.4648,537,1363.4648,541,1353.4648,537,1357.4648" style="stroke:#181818;stroke-width:1.0;"/><line style="stroke:#181818;stroke-width:1.0;" x1="314.5" x2="314.5" y1="1262.3711" y2="1282.3711"/><polygon fill="#181818" points="310.5,1272.3711,314.5,1282.3711,318.5,1272.3711,314.5,1276.3711" style="stroke:#181818;stroke-width:1.0;"/><line style="stroke:#181818;stroke-width:1.0;" x1="314.5" x2="314.5" y1="1112.5742" y2="1172.1836"/><polygon fill="#181818" points="310.5,1162.1836,314.5,1172.1836,318.5,1162.1836,314.5,1166.1836" style="stroke:#181818;stroke-width:1.0;"/><line style="stroke:#181818;stroke-width:1.0;" x1="314.5" x2="314.5" y1="1464.168" y2="1484.168"/><polygon fill="#181818" points="310.5,1474.168,314.5,1484.168,318.5,1474.168,314.5,1478.168" style="stroke:#181818;stroke-width:1.0;"/><line style="stroke:#181818;stroke-width:1.0;" x1="314.5" x2="314.5" y1="1519.2617" y2="1539.2617"/><polygon fill="#181818" points="310.5,1529.2617,314.5,1539.2617,318.5,1529.2617,314.5,1533.2617" style="stroke:#181818;stroke-width:1.0;"/><line style="stroke:#181818;stroke-width:1.0;" x1="314.5" x2="314.5" y1="1369.4648" y2="1429.0742"/><polygon fill="#181818" points="310.5,1419.0742,314.5,1429.0742,318.5,1419.0742,314.5,1423.0742" style="stroke:#181818;stroke-width:1.0;"/><line style="stroke:#181818;stroke-width:1.0;" x1="314.5" x2="314.5" y1="1574.3555" y2="1606.3555"/><polygon fill="#181818" points="310.5,1596.3555,314.5,1606.3555,318.5,1596.3555,314.5,1600.3555" style="stroke:#181818;stroke-width:1.0;"/><line style="stroke:#181818;stroke-width:1.0;" x1="314.5" x2="314.5" y1="1641.4492" y2="1661.4492"/><polygon fill="#181818" points="310.5,1651.4492,314.5,1661.4492,318.5,1651.4492,314.5,1655.4492" style="stroke:#181818;stroke-width:1.0;"/><!--SRC=[ZLJ9Rjj03BthAuYSd4D_m3u4ghFKI0meTjexAz4IaT58dQ6CkaN-lPmPUKjgj81W6UJZylX82OiXM5ZFTIEBP_W4kKMp4ouzF90bXyATXRmKthBiu9QnTjXccHTqacNJhvuShEZ7G5xyCNYMJGjqdk1v8BS3_Oyj2JbrPBr6SanxDSUo8PWtLBvUmUyCO3eMLMDqFT9k5imHedKgziaJhFhm1YO9cM-H3NutT7CDqf25oOxyjK9EGNS_UtPKVOHeYONTek7gK7iM7MIKnCHs1zYAP70sGIhjo0z6_6pqUkdw56OhtcJxzziPwLiKXBok7TLnkedvfdElCNIQHhP6GnwM92wECthcQCh1X0vNj2Kxn1v3862DR4_3eowNekziZJMrPELoWeASEbgq9LtCyrWieb5PxliFOYt9rNGSpJdxk2AU_QXttlT6oOfEmklYe85bL-dGa-g7IYzEQoJZOKCALPBBa3Kv5fKIuatODj5Li-zpAACo87IkxvlwndvGyN-Tw76oYOq28QWM4zw7gKZW2_UkiwADpSxqcpiAOKzinrZ_jocFgC_e_Wqg-3yoVT7V5ljpGTu-d1lRUYIu9iU1D9rkyNGjdIDWcuujcKZIvQIFmGkt50UuluNZ9qCJzIg7khDu2dy0]--></g></svg>