<?xml version="1.0" encoding="us-ascii" standalone="no"?><svg xmlns="http://www.w3.org/2000/svg" xmlns:xlink="http://www.w3.org/1999/xlink" contentStyleType="text/css" height="829px" preserveAspectRatio="none" style="width:803px;height:829px;background:#FFFFFF;" version="1.1" viewBox="0 0 803 829" width="803px" zoomAndPan="magnify"><defs/><g><text fill="#000000" font-family="sans-serif" font-size="14" font-weight="bold" lengthAdjust="spacing" textLength="331" x="234.5" y="34.5332">InsightIQ - User Authentication Activity Diagram</text><ellipse cx="514.125" cy="58.6094" fill="#222222" rx="10" ry="10" style="stroke:#222222;stroke-width:1.0;"/><rect fill="#F1F1F1" height="35.0938" rx="12.5" ry="12.5" style="stroke:#181818;stroke-width:0.5;" width="170" x="429.125" y="88.6094"/><text fill="#000000" font-family="sans-serif" font-size="12" lengthAdjust="spacing" textLength="150" x="439.125" y="111.0664">User Sends Login Request</text><rect fill="#F1F1F1" height="35.0938" rx="12.5" ry="12.5" style="stroke:#181818;stroke-width:0.5;" width="188" x="420.125" y="143.7031"/><text fill="#000000" font-family="sans-serif" font-size="12" lengthAdjust="spacing" textLength="168" x="430.125" y="166.1602">Extract Username &amp; Password</text><polygon fill="#F1F1F1" points="461.625,198.7969,566.625,198.7969,578.625,210.7969,566.625,222.7969,461.625,222.7969,449.625,210.7969,461.625,198.7969" style="stroke:#181818;stroke-width:0.5;"/><text fill="#000000" font-family="sans-serif" font-size="11" lengthAdjust="spacing" textLength="105" x="461.625" y="215.2979">Credentials Provided?</text><text fill="#000000" font-family="sans-serif" font-size="11" lengthAdjust="spacing" textLength="18" x="431.625" y="208.3799">yes</text><text fill="#000000" font-family="sans-serif" font-size="11" lengthAdjust="spacing" textLength="12" x="578.625" y="208.3799">no</text><rect fill="#F1F1F1" height="35.0938" rx="12.5" ry="12.5" style="stroke:#181818;stroke-width:0.5;" width="167" x="249.75" y="232.7969"/><text fill="#000000" font-family="sans-serif" font-size="12" lengthAdjust="spacing" textLength="147" x="259.75" y="255.2539">Query User from Database</text><polygon fill="#F1F1F1" points="302.75,287.8906,363.75,287.8906,375.75,299.8906,363.75,311.8906,302.75,311.8906,290.75,299.8906,302.75,287.8906" style="stroke:#181818;stroke-width:0.5;"/><text fill="#000000" font-family="sans-serif" font-size="11" lengthAdjust="spacing" textLength="61" x="302.75" y="304.3916">User Exists?</text><text fill="#000000" font-family="sans-serif" font-size="11" lengthAdjust="spacing" textLength="18" x="272.75" y="297.4736">yes</text><text fill="#000000" font-family="sans-serif" font-size="11" lengthAdjust="spacing" textLength="12" x="375.75" y="297.4736">no</text><rect fill="#F1F1F1" height="35.0938" rx="12.5" ry="12.5" style="stroke:#181818;stroke-width:0.5;" width="171" x="98.5" y="321.8906"/><text fill="#000000" font-family="sans-serif" font-size="12" lengthAdjust="spacing" textLength="151" x="108.5" y="344.3477">Retrieve Hashed Password</text><rect fill="#F1F1F1" height="35.0938" rx="12.5" ry="12.5" style="stroke:#181818;stroke-width:0.5;" width="105" x="131.5" y="376.9844"/><text fill="#000000" font-family="sans-serif" font-size="12" lengthAdjust="spacing" textLength="85" x="141.5" y="399.4414">Compare Hash</text><polygon fill="#F1F1F1" points="140,432.0781,228,432.0781,240,444.0781,228,456.0781,140,456.0781,128,444.0781,140,432.0781" style="stroke:#181818;stroke-width:0.5;"/><text fill="#000000" font-family="sans-serif" font-size="11" lengthAdjust="spacing" textLength="88" x="140" y="448.5791">Password Match?</text><text fill="#000000" font-family="sans-serif" font-size="11" lengthAdjust="spacing" textLength="18" x="110" y="441.6611">yes</text><text fill="#000000" font-family="sans-serif" font-size="11" lengthAdjust="spacing" textLength="12" x="240" y="441.6611">no</text><rect fill="#F1F1F1" height="35.0938" rx="12.5" ry="12.5" style="stroke:#181818;stroke-width:0.5;" width="135" x="22.5" y="466.0781"/><text fill="#000000" font-family="sans-serif" font-size="12" lengthAdjust="spacing" textLength="115" x="32.5" y="488.5352">Generate JWT Token</text><rect fill="#F1F1F1" height="35.0938" rx="12.5" ry="12.5" style="stroke:#181818;stroke-width:0.5;" width="116" x="32" y="521.1719"/><text fill="#000000" font-family="sans-serif" font-size="12" lengthAdjust="spacing" textLength="96" x="42" y="543.6289">Set Session Data</text><rect fill="#F1F1F1" height="35.0938" rx="12.5" ry="12.5" style="stroke:#181818;stroke-width:0.5;" width="141" x="19.5" y="576.2656"/><text fill="#000000" font-family="sans-serif" font-size="12" lengthAdjust="spacing" textLength="121" x="29.5" y="598.7227">Create Refresh Token</text><rect fill="#F1F1F1" height="35.0938" rx="12.5" ry="12.5" style="stroke:#181818;stroke-width:0.5;" width="137" x="21.5" y="631.3594"/><text fill="#000000" font-family="sans-serif" font-size="12" lengthAdjust="spacing" textLength="117" x="31.5" y="653.8164">Store in Redis Cache</text><rect fill="#F1F1F1" height="35.0938" rx="12.5" ry="12.5" style="stroke:#181818;stroke-width:0.5;" width="158" x="11" y="686.4531"/><text fill="#000000" font-family="sans-serif" font-size="12" lengthAdjust="spacing" textLength="138" x="21" y="708.9102">Return Token &amp; User Info</text><rect fill="#F1F1F1" height="35.0938" rx="12.5" ry="12.5" style="stroke:#181818;stroke-width:0.5;" width="144" x="18" y="741.5469"/><text fill="#000000" font-family="sans-serif" font-size="12" lengthAdjust="spacing" textLength="124" x="28" y="764.0039">Redirect to Dashboard</text><rect fill="#F1F1F1" height="35.0938" rx="12.5" ry="12.5" style="stroke:#181818;stroke-width:0.5;" width="178" x="189" y="466.0781"/><text fill="#000000" font-family="sans-serif" font-size="12" lengthAdjust="spacing" textLength="158" x="199" y="488.5352">Return 401 Invalid Password</text><ellipse cx="278" cy="532.1719" fill="none" rx="11" ry="11" style="stroke:#222222;stroke-width:1.0;"/><ellipse cx="278" cy="532.1719" fill="#222222" rx="6" ry="6" style="stroke:#222222;stroke-width:1.0;"/><rect fill="#F1F1F1" height="35.0938" rx="12.5" ry="12.5" style="stroke:#181818;stroke-width:0.5;" width="171" x="397" y="321.8906"/><text fill="#000000" font-family="sans-serif" font-size="12" lengthAdjust="spacing" textLength="151" x="407" y="344.3477">Return 404 User Not Found</text><ellipse cx="482.5" cy="387.9844" fill="none" rx="11" ry="11" style="stroke:#222222;stroke-width:1.0;"/><ellipse cx="482.5" cy="387.9844" fill="#222222" rx="6" ry="6" style="stroke:#222222;stroke-width:1.0;"/><rect fill="#F1F1F1" height="35.0938" rx="12.5" ry="12.5" style="stroke:#181818;stroke-width:0.5;" width="194" x="598" y="232.7969"/><text fill="#000000" font-family="sans-serif" font-size="12" lengthAdjust="spacing" textLength="174" x="608" y="255.2539">Return 400 Missing Credentials</text><ellipse cx="695" cy="298.8906" fill="none" rx="11" ry="11" style="stroke:#222222;stroke-width:1.0;"/><ellipse cx="695" cy="298.8906" fill="#222222" rx="6" ry="6" style="stroke:#222222;stroke-width:1.0;"/><ellipse cx="514.125" cy="807.6406" fill="none" rx="11" ry="11" style="stroke:#222222;stroke-width:1.0;"/><ellipse cx="514.125" cy="807.6406" fill="#222222" rx="6" ry="6" style="stroke:#222222;stroke-width:1.0;"/><line style="stroke:#181818;stroke-width:1.0;" x1="514.125" x2="514.125" y1="68.6094" y2="88.6094"/><polygon fill="#181818" points="510.125,78.6094,514.125,88.6094,518.125,78.6094,514.125,82.6094" style="stroke:#181818;stroke-width:1.0;"/><line style="stroke:#181818;stroke-width:1.0;" x1="514.125" x2="514.125" y1="123.7031" y2="143.7031"/><polygon fill="#181818" points="510.125,133.7031,514.125,143.7031,518.125,133.7031,514.125,137.7031" style="stroke:#181818;stroke-width:1.0;"/><line style="stroke:#181818;stroke-width:1.0;" x1="184" x2="184" y1="356.9844" y2="376.9844"/><polygon fill="#181818" points="180,366.9844,184,376.9844,188,366.9844,184,370.9844" style="stroke:#181818;stroke-width:1.0;"/><line style="stroke:#181818;stroke-width:1.0;" x1="90" x2="90" y1="501.1719" y2="521.1719"/><polygon fill="#181818" points="86,511.1719,90,521.1719,94,511.1719,90,515.1719" style="stroke:#181818;stroke-width:1.0;"/><line style="stroke:#181818;stroke-width:1.0;" x1="90" x2="90" y1="556.2656" y2="576.2656"/><polygon fill="#181818" points="86,566.2656,90,576.2656,94,566.2656,90,570.2656" style="stroke:#181818;stroke-width:1.0;"/><line style="stroke:#181818;stroke-width:1.0;" x1="90" x2="90" y1="611.3594" y2="631.3594"/><polygon fill="#181818" points="86,621.3594,90,631.3594,94,621.3594,90,625.3594" style="stroke:#181818;stroke-width:1.0;"/><line style="stroke:#181818;stroke-width:1.0;" x1="90" x2="90" y1="666.4531" y2="686.4531"/><polygon fill="#181818" points="86,676.4531,90,686.4531,94,676.4531,90,680.4531" style="stroke:#181818;stroke-width:1.0;"/><line style="stroke:#181818;stroke-width:1.0;" x1="90" x2="90" y1="721.5469" y2="741.5469"/><polygon fill="#181818" points="86,731.5469,90,741.5469,94,731.5469,90,735.5469" style="stroke:#181818;stroke-width:1.0;"/><line style="stroke:#181818;stroke-width:1.0;" x1="278" x2="278" y1="501.1719" y2="521.1719"/><polygon fill="#181818" points="274,511.1719,278,521.1719,282,511.1719,278,515.1719" style="stroke:#181818;stroke-width:1.0;"/><line style="stroke:#181818;stroke-width:1.0;" x1="128" x2="90" y1="444.0781" y2="444.0781"/><line style="stroke:#181818;stroke-width:1.0;" x1="90" x2="90" y1="444.0781" y2="466.0781"/><polygon fill="#181818" points="86,456.0781,90,466.0781,94,456.0781,90,460.0781" style="stroke:#181818;stroke-width:1.0;"/><line style="stroke:#181818;stroke-width:1.0;" x1="240" x2="278" y1="444.0781" y2="444.0781"/><line style="stroke:#181818;stroke-width:1.0;" x1="278" x2="278" y1="444.0781" y2="466.0781"/><polygon fill="#181818" points="274,456.0781,278,466.0781,282,456.0781,278,460.0781" style="stroke:#181818;stroke-width:1.0;"/><line style="stroke:#181818;stroke-width:1.0;" x1="90" x2="90" y1="776.6406" y2="781.6406"/><line style="stroke:#181818;stroke-width:1.0;" x1="90" x2="514.125" y1="781.6406" y2="781.6406"/><line style="stroke:#181818;stroke-width:1.0;" x1="514.125" x2="514.125" y1="781.6406" y2="796.6406"/><polygon fill="#181818" points="510.125,786.6406,514.125,796.6406,518.125,786.6406,514.125,790.6406" style="stroke:#181818;stroke-width:1.0;"/><line style="stroke:#181818;stroke-width:1.0;" x1="184" x2="184" y1="412.0781" y2="432.0781"/><polygon fill="#181818" points="180,422.0781,184,432.0781,188,422.0781,184,426.0781" style="stroke:#181818;stroke-width:1.0;"/><line style="stroke:#181818;stroke-width:1.0;" x1="482.5" x2="482.5" y1="356.9844" y2="376.9844"/><polygon fill="#181818" points="478.5,366.9844,482.5,376.9844,486.5,366.9844,482.5,370.9844" style="stroke:#181818;stroke-width:1.0;"/><line style="stroke:#181818;stroke-width:1.0;" x1="290.75" x2="184" y1="299.8906" y2="299.8906"/><line style="stroke:#181818;stroke-width:1.0;" x1="184" x2="184" y1="299.8906" y2="321.8906"/><polygon fill="#181818" points="180,311.8906,184,321.8906,188,311.8906,184,315.8906" style="stroke:#181818;stroke-width:1.0;"/><line style="stroke:#181818;stroke-width:1.0;" x1="375.75" x2="482.5" y1="299.8906" y2="299.8906"/><line style="stroke:#181818;stroke-width:1.0;" x1="482.5" x2="482.5" y1="299.8906" y2="321.8906"/><polygon fill="#181818" points="478.5,311.8906,482.5,321.8906,486.5,311.8906,482.5,315.8906" style="stroke:#181818;stroke-width:1.0;"/><line style="stroke:#181818;stroke-width:1.0;" x1="333.25" x2="333.25" y1="267.8906" y2="287.8906"/><polygon fill="#181818" points="329.25,277.8906,333.25,287.8906,337.25,277.8906,333.25,281.8906" style="stroke:#181818;stroke-width:1.0;"/><line style="stroke:#181818;stroke-width:1.0;" x1="695" x2="695" y1="267.8906" y2="287.8906"/><polygon fill="#181818" points="691,277.8906,695,287.8906,699,277.8906,695,281.8906" style="stroke:#181818;stroke-width:1.0;"/><line style="stroke:#181818;stroke-width:1.0;" x1="449.625" x2="333.25" y1="210.7969" y2="210.7969"/><line style="stroke:#181818;stroke-width:1.0;" x1="333.25" x2="333.25" y1="210.7969" y2="232.7969"/><polygon fill="#181818" points="329.25,222.7969,333.25,232.7969,337.25,222.7969,333.25,226.7969" style="stroke:#181818;stroke-width:1.0;"/><line style="stroke:#181818;stroke-width:1.0;" x1="578.625" x2="695" y1="210.7969" y2="210.7969"/><line style="stroke:#181818;stroke-width:1.0;" x1="695" x2="695" y1="210.7969" y2="232.7969"/><polygon fill="#181818" points="691,222.7969,695,232.7969,699,222.7969,695,226.7969" style="stroke:#181818;stroke-width:1.0;"/><line style="stroke:#181818;stroke-width:1.0;" x1="514.125" x2="514.125" y1="178.7969" y2="198.7969"/><polygon fill="#181818" points="510.125,188.7969,514.125,198.7969,518.125,188.7969,514.125,192.7969" style="stroke:#181818;stroke-width:1.0;"/><!--SRC=[PP9BRy9038Jl-ojygk1GYKgSoA52bBPKfU9LzMoo3h5ATkdQeV3lkqbuARr56N_ZyMYLTKimSSARN2Tpk8TFeG33KdDooYagUmV3L7dFUeGdnat0mXXH36e6zV2Id1LuznjsiA2VaaGJCnWVD62gjP_3Wk0EPYZowuDDZE4CEgD0jbg2Mu5Py7ksP1-xK6s6pf6aQm06yvB2iGcL1L_04ogkKIY9OcLIA-C3YqgRZVI2D33j2LvHSh8t2Mfvv8iTXaPjVbMMvo6OegRvVzS8lf2ZW4hmzhM2bVycbvob9MbiHAJghGfx4UAv5R6WB93aRKfzp54NQ5bWX6bE5p5UKGRN4B76-kI9o_pDWEL0iMprSQVaQu_d6sah11tdkospVkyXUknno-rM04Jzhe6TvSoqJQuM_IRBXrTuzgKx6Ppm1hv5hs0FfXmhSXkuUGGLNRCDQUhlFm00]--></g></svg>