<?xml version="1.0" encoding="us-ascii" standalone="no"?><svg xmlns="http://www.w3.org/2000/svg" xmlns:xlink="http://www.w3.org/1999/xlink" contentStyleType="text/css" height="1754px" preserveAspectRatio="none" style="width:818px;height:1754px;background:#FFFFFF;" version="1.1" viewBox="0 0 818 1754" width="818px" zoomAndPan="magnify"><defs/><g><text fill="#000000" font-family="sans-serif" font-size="14" font-weight="bold" lengthAdjust="spacing" textLength="306" x="254.75" y="34.5332">InsightIQ - Data Processing Activity Diagram</text><rect fill="none" height="22.6406" style="stroke:none;stroke-width:1.0;" width="785.5" x="15" y="51.0645"/><ellipse cx="77" cy="88.7051" fill="#222222" rx="10" ry="10" style="stroke:#222222;stroke-width:1.0;"/><rect fill="#F1F1F1" height="35.0938" rx="12.5" ry="12.5" style="stroke:#181818;stroke-width:0.5;" width="112" x="21" y="118.7051"/><text fill="#000000" font-family="sans-serif" font-size="12" lengthAdjust="spacing" textLength="92" x="31" y="141.1621">Upload Data File</text><line style="stroke:#000000;stroke-width:1.5;" x1="15" x2="15" y1="51.0645" y2="1742.7705"/><rect fill="#F1F1F1" height="35.0938" rx="12.5" ry="12.5" style="stroke:#181818;stroke-width:0.5;" width="87" x="526.5" y="173.7988"/><text fill="#000000" font-family="sans-serif" font-size="12" lengthAdjust="spacing" textLength="67" x="536.5" y="196.2559">Receive File</text><rect fill="#F1F1F1" height="35.0938" rx="12.5" ry="12.5" style="stroke:#181818;stroke-width:0.5;" width="116" x="512" y="228.8926"/><text fill="#000000" font-family="sans-serif" font-size="12" lengthAdjust="spacing" textLength="96" x="522" y="251.3496">Validate File Type</text><polygon fill="#F1F1F1" points="537,283.9863,603,283.9863,615,295.9863,603,307.9863,537,307.9863,525,295.9863,537,283.9863" style="stroke:#181818;stroke-width:0.5;"/><text fill="#000000" font-family="sans-serif" font-size="11" lengthAdjust="spacing" textLength="66" x="537" y="300.4873">Valid Format?</text><text fill="#000000" font-family="sans-serif" font-size="11" lengthAdjust="spacing" textLength="18" x="507" y="293.5693">yes</text><text fill="#000000" font-family="sans-serif" font-size="11" lengthAdjust="spacing" textLength="12" x="615" y="293.5693">no</text><rect fill="#F1F1F1" height="35.0938" rx="12.5" ry="12.5" style="stroke:#181818;stroke-width:0.5;" width="119" x="340" y="317.9863"/><text fill="#000000" font-family="sans-serif" font-size="12" lengthAdjust="spacing" textLength="99" x="350" y="340.4434">Read File Content</text><rect fill="none" height="436.1719" style="stroke:#000000;stroke-width:1.5;" width="347" x="229.75" y="373.0801"/><path d="M335.75,373.0801 L335.75,383.6895 L325.75,393.6895 L229.75,393.6895 " fill="none" style="stroke:#000000;stroke-width:1.5;"/><text fill="#000000" font-family="sans-serif" font-size="14" lengthAdjust="spacing" textLength="96" x="232.75" y="388.6133">Data Validation</text><rect fill="#F1F1F1" height="35.0938" rx="12.5" ry="12.5" style="stroke:#181818;stroke-width:0.5;" width="147" x="326" y="410.6895"/><text fill="#000000" font-family="sans-serif" font-size="12" lengthAdjust="spacing" textLength="127" x="336" y="433.1465">Parse CSV/JSON/Excel</text><rect fill="#F1F1F1" height="35.0938" rx="12.5" ry="12.5" style="stroke:#181818;stroke-width:0.5;" width="113" x="343" y="465.7832"/><text fill="#000000" font-family="sans-serif" font-size="12" lengthAdjust="spacing" textLength="93" x="353" y="488.2402">Validate Schema</text><rect fill="#F1F1F1" height="35.0938" rx="12.5" ry="12.5" style="stroke:#181818;stroke-width:0.5;" width="120" x="339.5" y="520.877"/><text fill="#000000" font-family="sans-serif" font-size="12" lengthAdjust="spacing" textLength="100" x="349.5" y="543.334">Check Data Types</text><rect fill="#F1F1F1" height="35.0938" rx="12.5" ry="12.5" style="stroke:#181818;stroke-width:0.5;" width="155" x="322" y="575.9707"/><text fill="#000000" font-family="sans-serif" font-size="12" lengthAdjust="spacing" textLength="135" x="332" y="598.4277">Validate Required Fields</text><polygon fill="#F1F1F1" points="377,631.0645,422,631.0645,434,643.0645,422,655.0645,377,655.0645,365,643.0645,377,631.0645" style="stroke:#181818;stroke-width:0.5;"/><text fill="#000000" font-family="sans-serif" font-size="11" lengthAdjust="spacing" textLength="45" x="377" y="647.5654">All Valid?</text><text fill="#000000" font-family="sans-serif" font-size="11" lengthAdjust="spacing" textLength="18" x="347" y="640.6475">yes</text><text fill="#000000" font-family="sans-serif" font-size="11" lengthAdjust="spacing" textLength="12" x="434" y="640.6475">no</text><rect fill="#F1F1F1" height="35.0938" rx="12.5" ry="12.5" style="stroke:#181818;stroke-width:0.5;" width="136" x="249.75" y="665.0645"/><text fill="#000000" font-family="sans-serif" font-size="12" lengthAdjust="spacing" textLength="116" x="259.75" y="687.5215">Continue Processing</text><rect fill="#F1F1F1" height="35.0938" rx="12.5" ry="12.5" style="stroke:#181818;stroke-width:0.5;" width="141" x="410.75" y="665.0645"/><text fill="#000000" font-family="sans-serif" font-size="12" lengthAdjust="spacing" textLength="121" x="420.75" y="687.5215">Generate Error Report</text><rect fill="#F1F1F1" height="35.0938" rx="12.5" ry="12.5" style="stroke:#181818;stroke-width:0.5;" width="151" x="405.75" y="720.1582"/><text fill="#000000" font-family="sans-serif" font-size="12" lengthAdjust="spacing" textLength="131" x="415.75" y="742.6152">Return Validation Errors</text><ellipse cx="481.25" cy="786.252" fill="none" rx="11" ry="11" style="stroke:#222222;stroke-width:1.0;"/><ellipse cx="481.25" cy="786.252" fill="#222222" rx="6" ry="6" style="stroke:#222222;stroke-width:1.0;"/><rect fill="none" height="191.7969" style="stroke:#000000;stroke-width:1.5;" width="513" x="143" y="819.252"/><path d="M283,819.252 L283,829.8613 L273,839.8613 L143,839.8613 " fill="none" style="stroke:#000000;stroke-width:1.5;"/><text fill="#000000" font-family="sans-serif" font-size="14" lengthAdjust="spacing" textLength="130" x="146" y="834.7852">Data Transformation</text><rect fill="#555555" height="6" rx="2.5" ry="2.5" style="stroke:#555555;stroke-width:1.0;" width="493" x="153" y="856.8613"/><rect fill="#F1F1F1" height="35.0938" rx="12.5" ry="12.5" style="stroke:#181818;stroke-width:0.5;" width="82" x="190" y="882.8613"/><text fill="#000000" font-family="sans-serif" font-size="12" lengthAdjust="spacing" textLength="62" x="200" y="905.3184">Clean Data</text><rect fill="#F1F1F1" height="35.0938" rx="12.5" ry="12.5" style="stroke:#181818;stroke-width:0.5;" width="128" x="167" y="937.9551"/><text fill="#000000" font-family="sans-serif" font-size="12" lengthAdjust="spacing" textLength="108" x="177" y="960.4121">Remove Duplicates</text><rect fill="#F1F1F1" height="35.0938" rx="12.5" ry="12.5" style="stroke:#181818;stroke-width:0.5;" width="117" x="328" y="882.8613"/><text fill="#000000" font-family="sans-serif" font-size="12" lengthAdjust="spacing" textLength="97" x="338" y="905.3184">Normalize Values</text><rect fill="#F1F1F1" height="35.0938" rx="12.5" ry="12.5" style="stroke:#181818;stroke-width:0.5;" width="127" x="323" y="937.9551"/><text fill="#000000" font-family="sans-serif" font-size="12" lengthAdjust="spacing" textLength="107" x="333" y="960.4121">Convert Data Types</text><rect fill="#F1F1F1" height="35.0938" rx="12.5" ry="12.5" style="stroke:#181818;stroke-width:0.5;" width="154" x="478" y="882.8613"/><text fill="#000000" font-family="sans-serif" font-size="12" lengthAdjust="spacing" textLength="134" x="488" y="905.3184">Calculate Derived Fields</text><rect fill="#F1F1F1" height="35.0938" rx="12.5" ry="12.5" style="stroke:#181818;stroke-width:0.5;" width="141" x="484.5" y="937.9551"/><text fill="#000000" font-family="sans-serif" font-size="12" lengthAdjust="spacing" textLength="121" x="494.5" y="960.4121">Apply Business Rules</text><rect fill="#555555" height="6" rx="2.5" ry="2.5" style="stroke:#555555;stroke-width:1.0;" width="493" x="153" y="993.0488"/><rect fill="none" height="477.9248" style="stroke:#000000;stroke-width:1.5;" width="200" x="301" y="1021.0488"/><path d="M395,1021.0488 L395,1031.6582 L385,1041.6582 L301,1041.6582 " fill="none" style="stroke:#000000;stroke-width:1.5;"/><text fill="#000000" font-family="sans-serif" font-size="14" lengthAdjust="spacing" textLength="84" x="304" y="1036.582">Data Storage</text><rect fill="#F1F1F1" height="35.0938" rx="12.5" ry="12.5" style="stroke:#181818;stroke-width:0.5;" width="177" x="311" y="1058.6582"/><text fill="#000000" font-family="sans-serif" font-size="12" lengthAdjust="spacing" textLength="157" x="321" y="1081.1152">Begin Database Transaction</text><rect fill="#F1F1F1" height="35.0938" rx="12.5" ry="12.5" style="stroke:#181818;stroke-width:0.5;" width="135" x="332" y="1157.752"/><text fill="#000000" font-family="sans-serif" font-size="12" lengthAdjust="spacing" textLength="115" x="342" y="1180.209">Insert Batch Records</text><rect fill="#F1F1F1" height="35.0938" rx="12.5" ry="12.5" style="stroke:#181818;stroke-width:0.5;" width="114" x="342.5" y="1220.3457"/><text fill="#000000" font-family="sans-serif" font-size="12" lengthAdjust="spacing" textLength="94" x="352.5" y="1242.8027">Update Counters</text><polygon fill="#F1F1F1" points="399.5,1113.752,411.5,1125.752,399.5,1137.752,387.5,1125.752,399.5,1113.752" style="stroke:#181818;stroke-width:0.5;"/><polygon fill="#F1F1F1" points="372,1275.4395,427,1275.4395,439,1287.4395,427,1299.4395,372,1299.4395,360,1287.4395,372,1275.4395" style="stroke:#181818;stroke-width:0.5;"/><text fill="#000000" font-family="sans-serif" font-size="11" lengthAdjust="spacing" textLength="55" x="372" y="1291.9404">More Data?</text><text fill="#000000" font-family="sans-serif" font-size="11" lengthAdjust="spacing" textLength="18" x="439" y="1285.0225">yes</text><rect fill="#F1F1F1" height="35.0938" rx="12.5" ry="12.5" style="stroke:#181818;stroke-width:0.5;" width="132" x="333.5" y="1341.6924"/><text fill="#000000" font-family="sans-serif" font-size="12" lengthAdjust="spacing" textLength="112" x="343.5" y="1364.1494">Commit Transaction</text><rect fill="#F1F1F1" height="35.0938" rx="12.5" ry="12.5" style="stroke:#181818;stroke-width:0.5;" width="113" x="343" y="1396.7861"/><text fill="#000000" font-family="sans-serif" font-size="12" lengthAdjust="spacing" textLength="93" x="353" y="1419.2432">Update Metadata</text><rect fill="#F1F1F1" height="35.0938" rx="12.5" ry="12.5" style="stroke:#181818;stroke-width:0.5;" width="157" x="321" y="1451.8799"/><text fill="#000000" font-family="sans-serif" font-size="12" lengthAdjust="spacing" textLength="137" x="331" y="1474.3369">Trigger Analytics Refresh</text><rect fill="none" height="136.7031" style="stroke:#000000;stroke-width:1.5;" width="491" x="154" y="1508.9736"/><path d="M267,1508.9736 L267,1519.583 L257,1529.583 L154,1529.583 " fill="none" style="stroke:#000000;stroke-width:1.5;"/><text fill="#000000" font-family="sans-serif" font-size="14" lengthAdjust="spacing" textLength="103" x="157" y="1524.5068">Post-Processing</text><rect fill="#555555" height="6" rx="2.5" ry="2.5" style="stroke:#555555;stroke-width:1.0;" width="471" x="164" y="1546.583"/><rect fill="#F1F1F1" height="35.0938" rx="12.5" ry="12.5" style="stroke:#181818;stroke-width:0.5;" width="164" x="178" y="1572.583"/><text fill="#000000" font-family="sans-serif" font-size="12" lengthAdjust="spacing" textLength="144" x="188" y="1595.04">Send Success Notification</text><rect fill="#F1F1F1" height="35.0938" rx="12.5" ry="12.5" style="stroke:#181818;stroke-width:0.5;" width="125" x="370" y="1572.583"/><text fill="#000000" font-family="sans-serif" font-size="12" lengthAdjust="spacing" textLength="105" x="380" y="1595.04">Update Dashboard</text><rect fill="#F1F1F1" height="35.0938" rx="12.5" ry="12.5" style="stroke:#181818;stroke-width:0.5;" width="98" x="523" y="1572.583"/><text fill="#000000" font-family="sans-serif" font-size="12" lengthAdjust="spacing" textLength="78" x="533" y="1595.04">Log Audit Trail</text><rect fill="#555555" height="6" rx="2.5" ry="2.5" style="stroke:#555555;stroke-width:1.0;" width="471" x="164" y="1627.6768"/><rect fill="#F1F1F1" height="35.0938" rx="12.5" ry="12.5" style="stroke:#181818;stroke-width:0.5;" width="169" x="315" y="1665.6768"/><text fill="#000000" font-family="sans-serif" font-size="12" lengthAdjust="spacing" textLength="149" x="325" y="1688.1338">Return Success Response</text><rect fill="#F1F1F1" height="35.0938" rx="12.5" ry="12.5" style="stroke:#181818;stroke-width:0.5;" width="129" x="666" y="317.9863"/><text fill="#000000" font-family="sans-serif" font-size="12" lengthAdjust="spacing" textLength="109" x="676" y="340.4434">Return Format Error</text><ellipse cx="730.5" cy="384.0801" fill="none" rx="11" ry="11" style="stroke:#222222;stroke-width:1.0;"/><ellipse cx="730.5" cy="384.0801" fill="#222222" rx="6" ry="6" style="stroke:#222222;stroke-width:1.0;"/><ellipse cx="570" cy="1731.7705" fill="none" rx="11" ry="11" style="stroke:#222222;stroke-width:1.0;"/><ellipse cx="570" cy="1731.7705" fill="#222222" rx="6" ry="6" style="stroke:#222222;stroke-width:1.0;"/><line style="stroke:#000000;stroke-width:1.5;" x1="137" x2="137" y1="51.0645" y2="1742.7705"/><line style="stroke:#000000;stroke-width:1.5;" x1="799" x2="799" y1="51.0645" y2="1742.7705"/><line style="stroke:#181818;stroke-width:1.0;" x1="77" x2="77" y1="98.7051" y2="118.7051"/><polygon fill="#181818" points="73,108.7051,77,118.7051,81,108.7051,77,112.7051" style="stroke:#181818;stroke-width:1.0;"/><line style="stroke:#181818;stroke-width:1.0;" x1="570" x2="570" y1="208.8926" y2="228.8926"/><polygon fill="#181818" points="566,218.8926,570,228.8926,574,218.8926,570,222.8926" style="stroke:#181818;stroke-width:1.0;"/><line style="stroke:#181818;stroke-width:1.0;" x1="399.5" x2="399.5" y1="445.7832" y2="465.7832"/><polygon fill="#181818" points="395.5,455.7832,399.5,465.7832,403.5,455.7832,399.5,459.7832" style="stroke:#181818;stroke-width:1.0;"/><line style="stroke:#181818;stroke-width:1.0;" x1="399.5" x2="399.5" y1="500.877" y2="520.877"/><polygon fill="#181818" points="395.5,510.877,399.5,520.877,403.5,510.877,399.5,514.877" style="stroke:#181818;stroke-width:1.0;"/><line style="stroke:#181818;stroke-width:1.0;" x1="399.5" x2="399.5" y1="555.9707" y2="575.9707"/><polygon fill="#181818" points="395.5,565.9707,399.5,575.9707,403.5,565.9707,399.5,569.9707" style="stroke:#181818;stroke-width:1.0;"/><line style="stroke:#181818;stroke-width:1.0;" x1="481.25" x2="481.25" y1="700.1582" y2="720.1582"/><polygon fill="#181818" points="477.25,710.1582,481.25,720.1582,485.25,710.1582,481.25,714.1582" style="stroke:#181818;stroke-width:1.0;"/><line style="stroke:#181818;stroke-width:1.0;" x1="481.25" x2="481.25" y1="755.252" y2="775.252"/><polygon fill="#181818" points="477.25,765.252,481.25,775.252,485.25,765.252,481.25,769.252" style="stroke:#181818;stroke-width:1.0;"/><line style="stroke:#181818;stroke-width:1.0;" x1="365" x2="317.75" y1="643.0645" y2="643.0645"/><line style="stroke:#181818;stroke-width:1.0;" x1="317.75" x2="317.75" y1="643.0645" y2="665.0645"/><polygon fill="#181818" points="313.75,655.0645,317.75,665.0645,321.75,655.0645,317.75,659.0645" style="stroke:#181818;stroke-width:1.0;"/><line style="stroke:#181818;stroke-width:1.0;" x1="434" x2="481.25" y1="643.0645" y2="643.0645"/><line style="stroke:#181818;stroke-width:1.0;" x1="481.25" x2="481.25" y1="643.0645" y2="665.0645"/><polygon fill="#181818" points="477.25,655.0645,481.25,665.0645,485.25,655.0645,481.25,659.0645" style="stroke:#181818;stroke-width:1.0;"/><line style="stroke:#181818;stroke-width:1.0;" x1="317.75" x2="317.75" y1="700.1582" y2="802.252"/><line style="stroke:#181818;stroke-width:1.0;" x1="317.75" x2="399.5" y1="802.252" y2="802.252"/><line style="stroke:#181818;stroke-width:1.0;" x1="399.5" x2="399.5" y1="802.252" y2="856.8613"/><polygon fill="#181818" points="395.5,846.8613,399.5,856.8613,403.5,846.8613,399.5,850.8613" style="stroke:#181818;stroke-width:1.0;"/><line style="stroke:#181818;stroke-width:1.0;" x1="399.5" x2="399.5" y1="611.0645" y2="631.0645"/><polygon fill="#181818" points="395.5,621.0645,399.5,631.0645,403.5,621.0645,399.5,625.0645" style="stroke:#181818;stroke-width:1.0;"/><line style="stroke:#181818;stroke-width:1.0;" x1="399.5" x2="399.5" y1="353.0801" y2="410.6895"/><polygon fill="#181818" points="395.5,400.6895,399.5,410.6895,403.5,400.6895,399.5,404.6895" style="stroke:#181818;stroke-width:1.0;"/><line style="stroke:#181818;stroke-width:1.0;" x1="231" x2="231" y1="917.9551" y2="937.9551"/><polygon fill="#181818" points="227,927.9551,231,937.9551,235,927.9551,231,931.9551" style="stroke:#181818;stroke-width:1.0;"/><line style="stroke:#181818;stroke-width:1.0;" x1="386.5" x2="386.5" y1="917.9551" y2="937.9551"/><polygon fill="#181818" points="382.5,927.9551,386.5,937.9551,390.5,927.9551,386.5,931.9551" style="stroke:#181818;stroke-width:1.0;"/><line style="stroke:#181818;stroke-width:1.0;" x1="555" x2="555" y1="917.9551" y2="937.9551"/><polygon fill="#181818" points="551,927.9551,555,937.9551,559,927.9551,555,931.9551" style="stroke:#181818;stroke-width:1.0;"/><line style="stroke:#181818;stroke-width:1.0;" x1="231" x2="231" y1="862.8613" y2="882.8613"/><polygon fill="#181818" points="227,872.8613,231,882.8613,235,872.8613,231,876.8613" style="stroke:#181818;stroke-width:1.0;"/><line style="stroke:#181818;stroke-width:1.0;" x1="386.5" x2="386.5" y1="862.8613" y2="882.8613"/><polygon fill="#181818" points="382.5,872.8613,386.5,882.8613,390.5,872.8613,386.5,876.8613" style="stroke:#181818;stroke-width:1.0;"/><line style="stroke:#181818;stroke-width:1.0;" x1="555" x2="555" y1="862.8613" y2="882.8613"/><polygon fill="#181818" points="551,872.8613,555,882.8613,559,872.8613,555,876.8613" style="stroke:#181818;stroke-width:1.0;"/><line style="stroke:#181818;stroke-width:1.0;" x1="231" x2="231" y1="973.0488" y2="993.0488"/><polygon fill="#181818" points="227,983.0488,231,993.0488,235,983.0488,231,987.0488" style="stroke:#181818;stroke-width:1.0;"/><line style="stroke:#181818;stroke-width:1.0;" x1="386.5" x2="386.5" y1="973.0488" y2="993.0488"/><polygon fill="#181818" points="382.5,983.0488,386.5,993.0488,390.5,983.0488,386.5,987.0488" style="stroke:#181818;stroke-width:1.0;"/><line style="stroke:#181818;stroke-width:1.0;" x1="555" x2="555" y1="973.0488" y2="993.0488"/><polygon fill="#181818" points="551,983.0488,555,993.0488,559,983.0488,555,987.0488" style="stroke:#181818;stroke-width:1.0;"/><line style="stroke:#181818;stroke-width:1.0;" x1="399.5" x2="399.5" y1="1192.8457" y2="1220.3457"/><polygon fill="#181818" points="395.5,1210.3457,399.5,1220.3457,403.5,1210.3457,399.5,1214.3457" style="stroke:#181818;stroke-width:1.0;"/><line style="stroke:#181818;stroke-width:1.0;" x1="399.5" x2="399.5" y1="1137.752" y2="1157.752"/><polygon fill="#181818" points="395.5,1147.752,399.5,1157.752,403.5,1147.752,399.5,1151.752" style="stroke:#181818;stroke-width:1.0;"/><line style="stroke:#181818;stroke-width:1.0;" x1="439" x2="479" y1="1287.4395" y2="1287.4395"/><polygon fill="#181818" points="475,1212.8457,479,1202.8457,483,1212.8457,479,1208.8457" style="stroke:#181818;stroke-width:1.0;"/><line style="stroke:#181818;stroke-width:1.0;" x1="479" x2="479" y1="1125.752" y2="1287.4395"/><line style="stroke:#181818;stroke-width:1.0;" x1="479" x2="411.5" y1="1125.752" y2="1125.752"/><polygon fill="#181818" points="421.5,1121.752,411.5,1125.752,421.5,1129.752,417.5,1125.752" style="stroke:#181818;stroke-width:1.0;"/><line style="stroke:#181818;stroke-width:1.0;" x1="399.5" x2="399.5" y1="1255.4395" y2="1275.4395"/><polygon fill="#181818" points="395.5,1265.4395,399.5,1275.4395,403.5,1265.4395,399.5,1269.4395" style="stroke:#181818;stroke-width:1.0;"/><line style="stroke:#181818;stroke-width:1.0;" x1="399.5" x2="399.5" y1="1093.752" y2="1113.752"/><polygon fill="#181818" points="395.5,1103.752,399.5,1113.752,403.5,1103.752,399.5,1107.752" style="stroke:#181818;stroke-width:1.0;"/><line style="stroke:#181818;stroke-width:1.0;" x1="399.5" x2="399.5" y1="1299.4395" y2="1341.6924"/><polygon fill="#181818" points="395.5,1331.6924,399.5,1341.6924,403.5,1331.6924,399.5,1335.6924" style="stroke:#181818;stroke-width:1.0;"/><text fill="#000000" font-family="sans-serif" font-size="11" lengthAdjust="spacing" textLength="12" x="403.5" y="1321.7754">no</text><line style="stroke:#181818;stroke-width:1.0;" x1="399.5" x2="399.5" y1="1376.7861" y2="1396.7861"/><polygon fill="#181818" points="395.5,1386.7861,399.5,1396.7861,403.5,1386.7861,399.5,1390.7861" style="stroke:#181818;stroke-width:1.0;"/><line style="stroke:#181818;stroke-width:1.0;" x1="399.5" x2="399.5" y1="1431.8799" y2="1451.8799"/><polygon fill="#181818" points="395.5,1441.8799,399.5,1451.8799,403.5,1441.8799,399.5,1445.8799" style="stroke:#181818;stroke-width:1.0;"/><line style="stroke:#181818;stroke-width:1.0;" x1="399.5" x2="399.5" y1="999.0488" y2="1058.6582"/><polygon fill="#181818" points="395.5,1048.6582,399.5,1058.6582,403.5,1048.6582,399.5,1052.6582" style="stroke:#181818;stroke-width:1.0;"/><line style="stroke:#181818;stroke-width:1.0;" x1="260" x2="260" y1="1552.583" y2="1572.583"/><polygon fill="#181818" points="256,1562.583,260,1572.583,264,1562.583,260,1566.583" style="stroke:#181818;stroke-width:1.0;"/><line style="stroke:#181818;stroke-width:1.0;" x1="432.5" x2="432.5" y1="1552.583" y2="1572.583"/><polygon fill="#181818" points="428.5,1562.583,432.5,1572.583,436.5,1562.583,432.5,1566.583" style="stroke:#181818;stroke-width:1.0;"/><line style="stroke:#181818;stroke-width:1.0;" x1="572" x2="572" y1="1552.583" y2="1572.583"/><polygon fill="#181818" points="568,1562.583,572,1572.583,576,1562.583,572,1566.583" style="stroke:#181818;stroke-width:1.0;"/><line style="stroke:#181818;stroke-width:1.0;" x1="260" x2="260" y1="1607.6768" y2="1627.6768"/><polygon fill="#181818" points="256,1617.6768,260,1627.6768,264,1617.6768,260,1621.6768" style="stroke:#181818;stroke-width:1.0;"/><line style="stroke:#181818;stroke-width:1.0;" x1="432.5" x2="432.5" y1="1607.6768" y2="1627.6768"/><polygon fill="#181818" points="428.5,1617.6768,432.5,1627.6768,436.5,1617.6768,432.5,1621.6768" style="stroke:#181818;stroke-width:1.0;"/><line style="stroke:#181818;stroke-width:1.0;" x1="572" x2="572" y1="1607.6768" y2="1627.6768"/><polygon fill="#181818" points="568,1617.6768,572,1627.6768,576,1617.6768,572,1621.6768" style="stroke:#181818;stroke-width:1.0;"/><line style="stroke:#181818;stroke-width:1.0;" x1="399.5" x2="399.5" y1="1486.9736" y2="1546.583"/><polygon fill="#181818" points="395.5,1536.583,399.5,1546.583,403.5,1536.583,399.5,1540.583" style="stroke:#181818;stroke-width:1.0;"/><line style="stroke:#181818;stroke-width:1.0;" x1="399.5" x2="399.5" y1="1633.6768" y2="1665.6768"/><polygon fill="#181818" points="395.5,1655.6768,399.5,1665.6768,403.5,1655.6768,399.5,1659.6768" style="stroke:#181818;stroke-width:1.0;"/><line style="stroke:#181818;stroke-width:1.0;" x1="730.5" x2="730.5" y1="353.0801" y2="373.0801"/><polygon fill="#181818" points="726.5,363.0801,730.5,373.0801,734.5,363.0801,730.5,367.0801" style="stroke:#181818;stroke-width:1.0;"/><line style="stroke:#181818;stroke-width:1.0;" x1="525" x2="399.5" y1="295.9863" y2="295.9863"/><line style="stroke:#181818;stroke-width:1.0;" x1="399.5" x2="399.5" y1="295.9863" y2="317.9863"/><polygon fill="#181818" points="395.5,307.9863,399.5,317.9863,403.5,307.9863,399.5,311.9863" style="stroke:#181818;stroke-width:1.0;"/><line style="stroke:#181818;stroke-width:1.0;" x1="615" x2="730.5" y1="295.9863" y2="295.9863"/><line style="stroke:#181818;stroke-width:1.0;" x1="730.5" x2="730.5" y1="295.9863" y2="317.9863"/><polygon fill="#181818" points="726.5,307.9863,730.5,317.9863,734.5,307.9863,730.5,311.9863" style="stroke:#181818;stroke-width:1.0;"/><line style="stroke:#181818;stroke-width:1.0;" x1="399.5" x2="399.5" y1="1700.7705" y2="1705.7705"/><line style="stroke:#181818;stroke-width:1.0;" x1="399.5" x2="570" y1="1705.7705" y2="1705.7705"/><line style="stroke:#181818;stroke-width:1.0;" x1="570" x2="570" y1="1705.7705" y2="1720.7705"/><polygon fill="#181818" points="566,1710.7705,570,1720.7705,574,1710.7705,570,1714.7705" style="stroke:#181818;stroke-width:1.0;"/><line style="stroke:#181818;stroke-width:1.0;" x1="570" x2="570" y1="263.9863" y2="283.9863"/><polygon fill="#181818" points="566,273.9863,570,283.9863,574,273.9863,570,277.9863" style="stroke:#181818;stroke-width:1.0;"/><line style="stroke:#181818;stroke-width:1.0;" x1="77" x2="77" y1="153.7988" y2="158.7988"/><line style="stroke:#181818;stroke-width:1.0;" x1="77" x2="570" y1="158.7988" y2="158.7988"/><line style="stroke:#181818;stroke-width:1.0;" x1="570" x2="570" y1="158.7988" y2="173.7988"/><polygon fill="#181818" points="566,163.7988,570,173.7988,574,163.7988,570,167.7988" style="stroke:#181818;stroke-width:1.0;"/><text fill="#000000" font-family="sans-serif" font-size="18" lengthAdjust="spacing" textLength="38" x="57" y="69.75">User</text><text fill="#000000" font-family="sans-serif" font-size="18" lengthAdjust="spacing" textLength="59" x="438.5" y="69.75">System</text><!--SRC=[TLHDRzim3BtxLmWzfOUWzmJOa8zswB1sNPpspigCJLIMF8dkbYtxxwEisFEQ530CMtma7nz9CR51TMi3bHNVVbDJjGO6zU2TnX38bcgXcLw9zsfDK7gei-pm6D0Vii3WEPizDiP1aTnkoE1S0Fa-CDQ7RBP1ZVIAHyFi2GmLmEbVRVTDHDDEJJg3kd6-1lvugRX2goPx39UPKX94udSUAsSPBS_bL9v6yXEJi-gYotwCBWSNwhVOnVK1V12t_EdgS_xr_khwfqOpJwQ1IwuhhE5ukgfGlwHY8htm5hp1xorvZ7pG54TpzufbB8n9BDxMa68BUx8jZjHD_cY4vCIw0Va9BVgOxjfxvoLfuppFU-i6kVLsL6w2XHuGs3KfhYre9rz_pkkrzM33hjDyf9aSl0oC3OBjr1WbhvqqTDqsXhHGF6QDNWfA8Di3xsDWGxym4crnO1TbU4NF9oAVXbY1qQs9EgpHonZzhxe05arZzchPYfIYfzgqfWycfVULl5Dzpiv3YSEeBB6aLEipI3iwSK17Xr6JFJO8tAUNjOc5B85r9KtIpe-uFJRTmAnSApFRDoVvgnzLdER9dVFOPPHneJ0Qbka7wqPPHRAw9Zxbr2UvGuPYwD9iwwaiqQk51RDdqg8CxZo6QdvMZWSNUFfl9iyDGXxrp5iT8UhUCUrYymSUfwqx4bj3g9uT-E8zt1SdDqnRfEB8lDUyVkPx2XiCZHFrkvjWl3uzC5qbQJ4YgDk9j0zPz_qN]--></g></svg>