<?xml version="1.0" encoding="us-ascii" standalone="no"?><svg xmlns="http://www.w3.org/2000/svg" xmlns:xlink="http://www.w3.org/1999/xlink" contentStyleType="text/css" height="1656px" preserveAspectRatio="none" style="width:849px;height:1656px;background:#FFFFFF;" version="1.1" viewBox="0 0 849 1656" width="849px" zoomAndPan="magnify"><defs/><g><text fill="#000000" font-family="sans-serif" font-size="14" font-weight="bold" lengthAdjust="spacing" textLength="175" x="330" y="26.5332">InsightIQ - Class Diagram</text><!--cluster Data Models--><g id="cluster_Data Models"><path d="M449.5,387.1094 L541.5,387.1094 A3.75,3.75 0 0 1 544,389.6094 L551,414.7188 L839.5,414.7188 A2.5,2.5 0 0 1 842,417.2188 L842,1433.6094 A2.5,2.5 0 0 1 839.5,1436.1094 L449.5,1436.1094 A2.5,2.5 0 0 1 447,1433.6094 L447,389.6094 A2.5,2.5 0 0 1 449.5,387.1094 " fill="#E0E7FF" style="stroke:#000000;stroke-width:1.5;"/><line style="stroke:#000000;stroke-width:1.5;" x1="447" x2="551" y1="414.7188" y2="414.7188"/><text fill="#000000" font-family="sans-serif" font-size="14" font-weight="bold" lengthAdjust="spacing" textLength="87" x="453" y="405.6426">Data Models</text></g><!--cluster Analytics--><g id="cluster_Analytics"><path d="M182.5,1180.1094 L249.5,1180.1094 A3.75,3.75 0 0 1 252,1182.6094 L259,1207.7188 L420.5,1207.7188 A2.5,2.5 0 0 1 423,1210.2188 L423,1646.6094 A2.5,2.5 0 0 1 420.5,1649.1094 L182.5,1649.1094 A2.5,2.5 0 0 1 180,1646.6094 L180,1182.6094 A2.5,2.5 0 0 1 182.5,1180.1094 " fill="#E0E7FF" style="stroke:#000000;stroke-width:1.5;"/><line style="stroke:#000000;stroke-width:1.5;" x1="180" x2="259" y1="1207.7188" y2="1207.7188"/><text fill="#000000" font-family="sans-serif" font-size="14" font-weight="bold" lengthAdjust="spacing" textLength="62" x="186" y="1198.6426">Analytics</text></g><!--cluster ML Models--><g id="cluster_ML Models"><path d="M201,787.1094 L283,787.1094 A3.75,3.75 0 0 1 285.5,789.6094 L292.5,814.7188 L402,814.7188 A2.5,2.5 0 0 1 404.5,817.2188 L404.5,1153.6094 A2.5,2.5 0 0 1 402,1156.1094 L201,1156.1094 A2.5,2.5 0 0 1 198.5,1153.6094 L198.5,789.6094 A2.5,2.5 0 0 1 201,787.1094 " fill="#E0E7FF" style="stroke:#000000;stroke-width:1.5;"/><line style="stroke:#000000;stroke-width:1.5;" x1="198.5" x2="292.5" y1="814.7188" y2="814.7188"/><text fill="#000000" font-family="sans-serif" font-size="14" font-weight="bold" lengthAdjust="spacing" textLength="77" x="204.5" y="805.6426">ML Models</text></g><!--cluster Utils--><g id="cluster_Utils"><path d="M213,179.1094 L249,179.1094 A3.75,3.75 0 0 1 251.5,181.6094 L258.5,206.7188 L390,206.7188 A2.5,2.5 0 0 1 392.5,209.2188 L392.5,588.6094 A2.5,2.5 0 0 1 390,591.1094 L213,591.1094 A2.5,2.5 0 0 1 210.5,588.6094 L210.5,181.6094 A2.5,2.5 0 0 1 213,179.1094 " fill="#E0E7FF" style="stroke:#000000;stroke-width:1.5;"/><line style="stroke:#000000;stroke-width:1.5;" x1="210.5" x2="258.5" y1="206.7188" y2="206.7188"/><text fill="#000000" font-family="sans-serif" font-size="14" font-weight="bold" lengthAdjust="spacing" textLength="31" x="216.5" y="197.6426">Utils</text></g><!--cluster UI--><g id="cluster_UI"><path d="M223.5,615.1094 L242.5,615.1094 A3.75,3.75 0 0 1 245,617.6094 L252,642.7188 L379.5,642.7188 A2.5,2.5 0 0 1 382,645.2188 L382,760.6094 A2.5,2.5 0 0 1 379.5,763.1094 L223.5,763.1094 A2.5,2.5 0 0 1 221,760.6094 L221,617.6094 A2.5,2.5 0 0 1 223.5,615.1094 " fill="#E0E7FF" style="stroke:#000000;stroke-width:1.5;"/><line style="stroke:#000000;stroke-width:1.5;" x1="221" x2="252" y1="642.7188" y2="642.7188"/><text fill="#000000" font-family="sans-serif" font-size="14" font-weight="bold" lengthAdjust="spacing" textLength="14" x="227" y="633.6426">UI</text></g><!--class User--><g id="elem_User"><rect codeLine="28" fill="#F1F1F1" height="112.8281" id="User" rx="2.5" ry="2.5" style="stroke:#6366F1;stroke-width:0.5;" width="87" x="503" y="591.6094"/><ellipse cx="527.9" cy="607.6094" fill="#ADD1B2" rx="11" ry="11" style="stroke:#181818;stroke-width:1.0;"/><path d="M530.6656,603.4844 Q530.8219,603.2656 531.0094,603.1563 Q531.1969,603.0469 531.4156,603.0469 Q531.7906,603.0469 532.025,603.3125 Q532.2594,603.5625 532.2594,604.1719 L532.2594,605.625 Q532.2594,606.2344 532.025,606.5 Q531.7906,606.7656 531.4156,606.7656 Q531.0719,606.7656 530.8688,606.5625 Q530.6656,606.375 530.5563,605.8594 Q530.5094,605.5 530.3219,605.3125 Q529.9938,604.9375 529.3844,604.7188 Q528.775,604.5 528.15,604.5 Q527.3844,604.5 526.7438,604.8281 Q526.1188,605.1563 525.6188,605.9063 Q525.1344,606.6563 525.1344,607.6875 L525.1344,608.7813 Q525.1344,610.0156 526.025,610.8438 Q526.9156,611.6563 528.5094,611.6563 Q529.4469,611.6563 530.1031,611.4063 Q530.4938,611.25 530.9156,610.8125 Q531.1813,610.5469 531.3219,610.4688 Q531.4781,610.3906 531.6813,610.3906 Q532.0094,610.3906 532.2594,610.6563 Q532.525,610.9063 532.525,611.25 Q532.525,611.5938 532.1813,612 Q531.6813,612.5781 530.8844,612.9063 Q529.8063,613.3594 528.5094,613.3594 Q526.9938,613.3594 525.7906,612.7344 Q524.8063,612.2344 524.1188,611.1719 Q523.4313,610.0938 523.4313,608.8125 L523.4313,607.6563 Q523.4313,606.3281 524.0406,605.1875 Q524.6656,604.0313 525.7594,603.4219 Q526.8531,602.7969 528.0875,602.7969 Q528.8219,602.7969 529.4625,602.9688 Q530.1188,603.125 530.6656,603.4844 Z " fill="#000000"/><text fill="#000000" font-family="sans-serif" font-size="14" lengthAdjust="spacing" textLength="29" x="546.1" y="613.3379">User</text><line style="stroke:#6366F1;stroke-width:0.5;" x1="504" x2="589" y1="623.6094" y2="623.6094"/><text fill="#000000" font-family="sans-serif" font-size="14" lengthAdjust="spacing" textLength="71" x="511" y="644.1426">+username</text><text fill="#000000" font-family="sans-serif" font-size="14" lengthAdjust="spacing" textLength="41" x="511" y="665.752">+email</text><text fill="#000000" font-family="sans-serif" font-size="14" lengthAdjust="spacing" textLength="32" x="511" y="687.3613">+role</text><line style="stroke:#6366F1;stroke-width:0.5;" x1="504" x2="589" y1="696.4375" y2="696.4375"/></g><!--class RawData--><g id="elem_RawData"><rect codeLine="34" fill="#F1F1F1" height="134.4375" id="RawData" rx="2.5" ry="2.5" style="stroke:#6366F1;stroke-width:0.5;" width="131" x="481" y="427.1094"/><ellipse cx="513.1" cy="443.1094" fill="#ADD1B2" rx="11" ry="11" style="stroke:#181818;stroke-width:1.0;"/><path d="M515.8656,438.9844 Q516.0219,438.7656 516.2094,438.6563 Q516.3969,438.5469 516.6156,438.5469 Q516.9906,438.5469 517.225,438.8125 Q517.4594,439.0625 517.4594,439.6719 L517.4594,441.125 Q517.4594,441.7344 517.225,442 Q516.9906,442.2656 516.6156,442.2656 Q516.2719,442.2656 516.0688,442.0625 Q515.8656,441.875 515.7563,441.3594 Q515.7094,441 515.5219,440.8125 Q515.1938,440.4375 514.5844,440.2188 Q513.975,440 513.35,440 Q512.5844,440 511.9438,440.3281 Q511.3188,440.6563 510.8188,441.4063 Q510.3344,442.1563 510.3344,443.1875 L510.3344,444.2813 Q510.3344,445.5156 511.225,446.3438 Q512.1156,447.1563 513.7094,447.1563 Q514.6469,447.1563 515.3031,446.9063 Q515.6938,446.75 516.1156,446.3125 Q516.3813,446.0469 516.5219,445.9688 Q516.6781,445.8906 516.8813,445.8906 Q517.2094,445.8906 517.4594,446.1563 Q517.725,446.4063 517.725,446.75 Q517.725,447.0938 517.3813,447.5 Q516.8813,448.0781 516.0844,448.4063 Q515.0063,448.8594 513.7094,448.8594 Q512.1938,448.8594 510.9906,448.2344 Q510.0063,447.7344 509.3188,446.6719 Q508.6313,445.5938 508.6313,444.3125 L508.6313,443.1563 Q508.6313,441.8281 509.2406,440.6875 Q509.8656,439.5313 510.9594,438.9219 Q512.0531,438.2969 513.2875,438.2969 Q514.0219,438.2969 514.6625,438.4688 Q515.3188,438.625 515.8656,438.9844 Z " fill="#000000"/><text fill="#000000" font-family="sans-serif" font-size="14" lengthAdjust="spacing" textLength="57" x="532.9" y="448.8379">RawData</text><line style="stroke:#6366F1;stroke-width:0.5;" x1="482" x2="611" y1="459.1094" y2="459.1094"/><text fill="#000000" font-family="sans-serif" font-size="14" lengthAdjust="spacing" textLength="36" x="489" y="479.6426">+date</text><text fill="#000000" font-family="sans-serif" font-size="14" lengthAdjust="spacing" textLength="104" x="489" y="501.252">+product, region</text><text fill="#000000" font-family="sans-serif" font-size="14" lengthAdjust="spacing" textLength="115" x="489" y="522.8613">+sales, cost, profit</text><text fill="#000000" font-family="sans-serif" font-size="14" lengthAdjust="spacing" textLength="62" x="489" y="544.4707">+batch_id</text><line style="stroke:#6366F1;stroke-width:0.5;" x1="482" x2="611" y1="553.5469" y2="553.5469"/></g><!--class CleanedData--><g id="elem_CleanedData"><rect codeLine="41" fill="#F1F1F1" height="134.4375" id="CleanedData" rx="2.5" ry="2.5" style="stroke:#6366F1;stroke-width:0.5;" width="156" x="670" y="427.1094"/><ellipse cx="701.65" cy="443.1094" fill="#ADD1B2" rx="11" ry="11" style="stroke:#181818;stroke-width:1.0;"/><path d="M704.4156,438.9844 Q704.5719,438.7656 704.7594,438.6563 Q704.9469,438.5469 705.1656,438.5469 Q705.5406,438.5469 705.775,438.8125 Q706.0094,439.0625 706.0094,439.6719 L706.0094,441.125 Q706.0094,441.7344 705.775,442 Q705.5406,442.2656 705.1656,442.2656 Q704.8219,442.2656 704.6188,442.0625 Q704.4156,441.875 704.3063,441.3594 Q704.2594,441 704.0719,440.8125 Q703.7438,440.4375 703.1344,440.2188 Q702.525,440 701.9,440 Q701.1344,440 700.4938,440.3281 Q699.8688,440.6563 699.3688,441.4063 Q698.8844,442.1563 698.8844,443.1875 L698.8844,444.2813 Q698.8844,445.5156 699.775,446.3438 Q700.6656,447.1563 702.2594,447.1563 Q703.1969,447.1563 703.8531,446.9063 Q704.2438,446.75 704.6656,446.3125 Q704.9313,446.0469 705.0719,445.9688 Q705.2281,445.8906 705.4313,445.8906 Q705.7594,445.8906 706.0094,446.1563 Q706.275,446.4063 706.275,446.75 Q706.275,447.0938 705.9313,447.5 Q705.4313,448.0781 704.6344,448.4063 Q703.5563,448.8594 702.2594,448.8594 Q700.7438,448.8594 699.5406,448.2344 Q698.5563,447.7344 697.8688,446.6719 Q697.1813,445.5938 697.1813,444.3125 L697.1813,443.1563 Q697.1813,441.8281 697.7906,440.6875 Q698.4156,439.5313 699.5094,438.9219 Q700.6031,438.2969 701.8375,438.2969 Q702.5719,438.2969 703.2125,438.4688 Q703.8688,438.625 704.4156,438.9844 Z " fill="#000000"/><text fill="#000000" font-family="sans-serif" font-size="14" lengthAdjust="spacing" textLength="83" x="721.35" y="448.8379">CleanedData</text><line style="stroke:#6366F1;stroke-width:0.5;" x1="671" x2="825" y1="459.1094" y2="459.1094"/><text fill="#000000" font-family="sans-serif" font-size="14" lengthAdjust="spacing" textLength="140" x="678" y="479.6426">+date, product, region</text><text fill="#000000" font-family="sans-serif" font-size="14" lengthAdjust="spacing" textLength="115" x="678" y="501.252">+sales, cost, profit</text><text fill="#000000" font-family="sans-serif" font-size="14" lengthAdjust="spacing" textLength="115" x="678" y="522.8613">+profit_margin, roi</text><text fill="#000000" font-family="sans-serif" font-size="14" lengthAdjust="spacing" textLength="137" x="678" y="544.4707">+year, month, quarter</text><line style="stroke:#6366F1;stroke-width:0.5;" x1="671" x2="825" y1="553.5469" y2="553.5469"/></g><!--class KPI--><g id="elem_KPI"><rect codeLine="48" fill="#F1F1F1" height="112.8281" id="KPI" rx="2.5" ry="2.5" style="stroke:#6366F1;stroke-width:0.5;" width="167" x="463" y="1163.6094"/><ellipse cx="529.75" cy="1179.6094" fill="#ADD1B2" rx="11" ry="11" style="stroke:#181818;stroke-width:1.0;"/><path d="M532.5156,1175.4844 Q532.6719,1175.2656 532.8594,1175.1563 Q533.0469,1175.0469 533.2656,1175.0469 Q533.6406,1175.0469 533.875,1175.3125 Q534.1094,1175.5625 534.1094,1176.1719 L534.1094,1177.625 Q534.1094,1178.2344 533.875,1178.5 Q533.6406,1178.7656 533.2656,1178.7656 Q532.9219,1178.7656 532.7188,1178.5625 Q532.5156,1178.375 532.4063,1177.8594 Q532.3594,1177.5 532.1719,1177.3125 Q531.8438,1176.9375 531.2344,1176.7188 Q530.625,1176.5 530,1176.5 Q529.2344,1176.5 528.5938,1176.8281 Q527.9688,1177.1563 527.4688,1177.9063 Q526.9844,1178.6563 526.9844,1179.6875 L526.9844,1180.7813 Q526.9844,1182.0156 527.875,1182.8438 Q528.7656,1183.6563 530.3594,1183.6563 Q531.2969,1183.6563 531.9531,1183.4063 Q532.3438,1183.25 532.7656,1182.8125 Q533.0313,1182.5469 533.1719,1182.4688 Q533.3281,1182.3906 533.5313,1182.3906 Q533.8594,1182.3906 534.1094,1182.6563 Q534.375,1182.9063 534.375,1183.25 Q534.375,1183.5938 534.0313,1184 Q533.5313,1184.5781 532.7344,1184.9063 Q531.6563,1185.3594 530.3594,1185.3594 Q528.8438,1185.3594 527.6406,1184.7344 Q526.6563,1184.2344 525.9688,1183.1719 Q525.2813,1182.0938 525.2813,1180.8125 L525.2813,1179.6563 Q525.2813,1178.3281 525.8906,1177.1875 Q526.5156,1176.0313 527.6094,1175.4219 Q528.7031,1174.7969 529.9375,1174.7969 Q530.6719,1174.7969 531.3125,1174.9688 Q531.9688,1175.125 532.5156,1175.4844 Z " fill="#000000"/><text fill="#000000" font-family="sans-serif" font-size="14" lengthAdjust="spacing" textLength="21" x="552.25" y="1185.3379">KPI</text><line style="stroke:#6366F1;stroke-width:0.5;" x1="464" x2="629" y1="1195.6094" y2="1195.6094"/><text fill="#000000" font-family="sans-serif" font-size="14" lengthAdjust="spacing" textLength="151" x="471" y="1216.1426">+total_sales, total_profit</text><text fill="#000000" font-family="sans-serif" font-size="14" lengthAdjust="spacing" textLength="83" x="471" y="1237.752">+growth_rate</text><text fill="#000000" font-family="sans-serif" font-size="14" lengthAdjust="spacing" textLength="90" x="471" y="1259.3613">+health_score</text><line style="stroke:#6366F1;stroke-width:0.5;" x1="464" x2="629" y1="1268.4375" y2="1268.4375"/></g><!--class Prediction--><g id="elem_Prediction"><rect codeLine="54" fill="#F1F1F1" height="112.8281" id="Prediction" rx="2.5" ry="2.5" style="stroke:#6366F1;stroke-width:0.5;" width="147" x="473" y="877.6094"/><ellipse cx="509.6" cy="893.6094" fill="#ADD1B2" rx="11" ry="11" style="stroke:#181818;stroke-width:1.0;"/><path d="M512.3656,889.4844 Q512.5219,889.2656 512.7094,889.1563 Q512.8969,889.0469 513.1156,889.0469 Q513.4906,889.0469 513.725,889.3125 Q513.9594,889.5625 513.9594,890.1719 L513.9594,891.625 Q513.9594,892.2344 513.725,892.5 Q513.4906,892.7656 513.1156,892.7656 Q512.7719,892.7656 512.5688,892.5625 Q512.3656,892.375 512.2563,891.8594 Q512.2094,891.5 512.0219,891.3125 Q511.6938,890.9375 511.0844,890.7188 Q510.475,890.5 509.85,890.5 Q509.0844,890.5 508.4438,890.8281 Q507.8188,891.1563 507.3188,891.9063 Q506.8344,892.6563 506.8344,893.6875 L506.8344,894.7813 Q506.8344,896.0156 507.725,896.8438 Q508.6156,897.6563 510.2094,897.6563 Q511.1469,897.6563 511.8031,897.4063 Q512.1938,897.25 512.6156,896.8125 Q512.8813,896.5469 513.0219,896.4688 Q513.1781,896.3906 513.3813,896.3906 Q513.7094,896.3906 513.9594,896.6563 Q514.225,896.9063 514.225,897.25 Q514.225,897.5938 513.8813,898 Q513.3813,898.5781 512.5844,898.9063 Q511.5063,899.3594 510.2094,899.3594 Q508.6938,899.3594 507.4906,898.7344 Q506.5063,898.2344 505.8188,897.1719 Q505.1313,896.0938 505.1313,894.8125 L505.1313,893.6563 Q505.1313,892.3281 505.7406,891.1875 Q506.3656,890.0313 507.4594,889.4219 Q508.5531,888.7969 509.7875,888.7969 Q510.5219,888.7969 511.1625,888.9688 Q511.8188,889.125 512.3656,889.4844 Z " fill="#000000"/><text fill="#000000" font-family="sans-serif" font-size="14" lengthAdjust="spacing" textLength="63" x="530.4" y="899.3379">Prediction</text><line style="stroke:#6366F1;stroke-width:0.5;" x1="474" x2="619" y1="909.6094" y2="909.6094"/><text fill="#000000" font-family="sans-serif" font-size="14" lengthAdjust="spacing" textLength="106" x="481" y="930.1426">+prediction_date</text><text fill="#000000" font-family="sans-serif" font-size="14" lengthAdjust="spacing" textLength="108" x="481" y="951.752">+predicted_sales</text><text fill="#000000" font-family="sans-serif" font-size="14" lengthAdjust="spacing" textLength="131" x="481" y="973.3613">+confidence_interval</text><line style="stroke:#6366F1;stroke-width:0.5;" x1="474" x2="619" y1="982.4375" y2="982.4375"/></g><!--class Insight--><g id="elem_Insight"><rect codeLine="60" fill="#F1F1F1" height="112.8281" id="Insight" rx="2.5" ry="2.5" style="stroke:#6366F1;stroke-width:0.5;" width="122" x="485.5" y="1020.6094"/><ellipse cx="520.75" cy="1036.6094" fill="#ADD1B2" rx="11" ry="11" style="stroke:#181818;stroke-width:1.0;"/><path d="M523.5156,1032.4844 Q523.6719,1032.2656 523.8594,1032.1563 Q524.0469,1032.0469 524.2656,1032.0469 Q524.6406,1032.0469 524.875,1032.3125 Q525.1094,1032.5625 525.1094,1033.1719 L525.1094,1034.625 Q525.1094,1035.2344 524.875,1035.5 Q524.6406,1035.7656 524.2656,1035.7656 Q523.9219,1035.7656 523.7188,1035.5625 Q523.5156,1035.375 523.4063,1034.8594 Q523.3594,1034.5 523.1719,1034.3125 Q522.8438,1033.9375 522.2344,1033.7188 Q521.625,1033.5 521,1033.5 Q520.2344,1033.5 519.5938,1033.8281 Q518.9688,1034.1563 518.4688,1034.9063 Q517.9844,1035.6563 517.9844,1036.6875 L517.9844,1037.7813 Q517.9844,1039.0156 518.875,1039.8438 Q519.7656,1040.6563 521.3594,1040.6563 Q522.2969,1040.6563 522.9531,1040.4063 Q523.3438,1040.25 523.7656,1039.8125 Q524.0313,1039.5469 524.1719,1039.4688 Q524.3281,1039.3906 524.5313,1039.3906 Q524.8594,1039.3906 525.1094,1039.6563 Q525.375,1039.9063 525.375,1040.25 Q525.375,1040.5938 525.0313,1041 Q524.5313,1041.5781 523.7344,1041.9063 Q522.6563,1042.3594 521.3594,1042.3594 Q519.8438,1042.3594 518.6406,1041.7344 Q517.6563,1041.2344 516.9688,1040.1719 Q516.2813,1039.0938 516.2813,1037.8125 L516.2813,1036.6563 Q516.2813,1035.3281 516.8906,1034.1875 Q517.5156,1033.0313 518.6094,1032.4219 Q519.7031,1031.7969 520.9375,1031.7969 Q521.6719,1031.7969 522.3125,1031.9688 Q522.9688,1032.125 523.5156,1032.4844 Z " fill="#000000"/><text fill="#000000" font-family="sans-serif" font-size="14" lengthAdjust="spacing" textLength="41" x="541.25" y="1042.3379">Insight</text><line style="stroke:#6366F1;stroke-width:0.5;" x1="486.5" x2="606.5" y1="1052.6094" y2="1052.6094"/><text fill="#000000" font-family="sans-serif" font-size="14" lengthAdjust="spacing" textLength="84" x="493.5" y="1073.1426">+insight_type</text><text fill="#000000" font-family="sans-serif" font-size="14" lengthAdjust="spacing" textLength="93" x="493.5" y="1094.752">+category, title</text><text fill="#000000" font-family="sans-serif" font-size="14" lengthAdjust="spacing" textLength="106" x="493.5" y="1116.3613">+impact, severity</text><line style="stroke:#6366F1;stroke-width:0.5;" x1="486.5" x2="606.5" y1="1125.4375" y2="1125.4375"/></g><!--class Recommendation--><g id="elem_Recommendation"><rect codeLine="66" fill="#F1F1F1" height="112.8281" id="Recommendation" rx="2.5" ry="2.5" style="stroke:#6366F1;stroke-width:0.5;" width="146" x="473.5" y="1306.6094"/><ellipse cx="488.5" cy="1322.6094" fill="#ADD1B2" rx="11" ry="11" style="stroke:#181818;stroke-width:1.0;"/><path d="M491.2656,1318.4844 Q491.4219,1318.2656 491.6094,1318.1563 Q491.7969,1318.0469 492.0156,1318.0469 Q492.3906,1318.0469 492.625,1318.3125 Q492.8594,1318.5625 492.8594,1319.1719 L492.8594,1320.625 Q492.8594,1321.2344 492.625,1321.5 Q492.3906,1321.7656 492.0156,1321.7656 Q491.6719,1321.7656 491.4688,1321.5625 Q491.2656,1321.375 491.1563,1320.8594 Q491.1094,1320.5 490.9219,1320.3125 Q490.5938,1319.9375 489.9844,1319.7188 Q489.375,1319.5 488.75,1319.5 Q487.9844,1319.5 487.3438,1319.8281 Q486.7188,1320.1563 486.2188,1320.9063 Q485.7344,1321.6563 485.7344,1322.6875 L485.7344,1323.7813 Q485.7344,1325.0156 486.625,1325.8438 Q487.5156,1326.6563 489.1094,1326.6563 Q490.0469,1326.6563 490.7031,1326.4063 Q491.0938,1326.25 491.5156,1325.8125 Q491.7813,1325.5469 491.9219,1325.4688 Q492.0781,1325.3906 492.2813,1325.3906 Q492.6094,1325.3906 492.8594,1325.6563 Q493.125,1325.9063 493.125,1326.25 Q493.125,1326.5938 492.7813,1327 Q492.2813,1327.5781 491.4844,1327.9063 Q490.4063,1328.3594 489.1094,1328.3594 Q487.5938,1328.3594 486.3906,1327.7344 Q485.4063,1327.2344 484.7188,1326.1719 Q484.0313,1325.0938 484.0313,1323.8125 L484.0313,1322.6563 Q484.0313,1321.3281 484.6406,1320.1875 Q485.2656,1319.0313 486.3594,1318.4219 Q487.4531,1317.7969 488.6875,1317.7969 Q489.4219,1317.7969 490.0625,1317.9688 Q490.7188,1318.125 491.2656,1318.4844 Z " fill="#000000"/><text fill="#000000" font-family="sans-serif" font-size="14" lengthAdjust="spacing" textLength="110" x="504.5" y="1328.3379">Recommendation</text><line style="stroke:#6366F1;stroke-width:0.5;" x1="474.5" x2="618.5" y1="1338.6094" y2="1338.6094"/><text fill="#000000" font-family="sans-serif" font-size="14" lengthAdjust="spacing" textLength="114" x="481.5" y="1359.1426">+priority, category</text><text fill="#000000" font-family="sans-serif" font-size="14" lengthAdjust="spacing" textLength="107" x="481.5" y="1380.752">+title, description</text><text fill="#000000" font-family="sans-serif" font-size="14" lengthAdjust="spacing" textLength="118" x="481.5" y="1402.3613">+estimated_impact</text><line style="stroke:#6366F1;stroke-width:0.5;" x1="474.5" x2="618.5" y1="1411.4375" y2="1411.4375"/></g><!--class Anomaly--><g id="elem_Anomaly"><rect codeLine="72" fill="#F1F1F1" height="112.8281" id="Anomaly" rx="2.5" ry="2.5" style="stroke:#6366F1;stroke-width:0.5;" width="118" x="487.5" y="734.6094"/><ellipse cx="515.1" cy="750.6094" fill="#ADD1B2" rx="11" ry="11" style="stroke:#181818;stroke-width:1.0;"/><path d="M517.8656,746.4844 Q518.0219,746.2656 518.2094,746.1563 Q518.3969,746.0469 518.6156,746.0469 Q518.9906,746.0469 519.225,746.3125 Q519.4594,746.5625 519.4594,747.1719 L519.4594,748.625 Q519.4594,749.2344 519.225,749.5 Q518.9906,749.7656 518.6156,749.7656 Q518.2719,749.7656 518.0688,749.5625 Q517.8656,749.375 517.7563,748.8594 Q517.7094,748.5 517.5219,748.3125 Q517.1938,747.9375 516.5844,747.7188 Q515.975,747.5 515.35,747.5 Q514.5844,747.5 513.9438,747.8281 Q513.3188,748.1563 512.8188,748.9063 Q512.3344,749.6563 512.3344,750.6875 L512.3344,751.7813 Q512.3344,753.0156 513.225,753.8438 Q514.1156,754.6563 515.7094,754.6563 Q516.6469,754.6563 517.3031,754.4063 Q517.6938,754.25 518.1156,753.8125 Q518.3813,753.5469 518.5219,753.4688 Q518.6781,753.3906 518.8813,753.3906 Q519.2094,753.3906 519.4594,753.6563 Q519.725,753.9063 519.725,754.25 Q519.725,754.5938 519.3813,755 Q518.8813,755.5781 518.0844,755.9063 Q517.0063,756.3594 515.7094,756.3594 Q514.1938,756.3594 512.9906,755.7344 Q512.0063,755.2344 511.3188,754.1719 Q510.6313,753.0938 510.6313,751.8125 L510.6313,750.6563 Q510.6313,749.3281 511.2406,748.1875 Q511.8656,747.0313 512.9594,746.4219 Q514.0531,745.7969 515.2875,745.7969 Q516.0219,745.7969 516.6625,745.9688 Q517.3188,746.125 517.8656,746.4844 Z " fill="#000000"/><text fill="#000000" font-family="sans-serif" font-size="14" lengthAdjust="spacing" textLength="54" x="533.9" y="756.3379">Anomaly</text><line style="stroke:#6366F1;stroke-width:0.5;" x1="488.5" x2="604.5" y1="766.6094" y2="766.6094"/><text fill="#000000" font-family="sans-serif" font-size="14" lengthAdjust="spacing" textLength="102" x="495.5" y="787.1426">+detection_date</text><text fill="#000000" font-family="sans-serif" font-size="14" lengthAdjust="spacing" textLength="96" x="495.5" y="808.752">+anomaly_type</text><text fill="#000000" font-family="sans-serif" font-size="14" lengthAdjust="spacing" textLength="57" x="495.5" y="830.3613">+severity</text><line style="stroke:#6366F1;stroke-width:0.5;" x1="488.5" x2="604.5" y1="839.4375" y2="839.4375"/></g><!--class KPICalculator--><g id="elem_KPICalculator"><rect codeLine="81" fill="#F1F1F1" height="91.2188" id="KPICalculator" rx="2.5" ry="2.5" style="stroke:#6366F1;stroke-width:0.5;" width="180" x="211.5" y="1420.6094"/><ellipse cx="253.05" cy="1436.6094" fill="#ADD1B2" rx="11" ry="11" style="stroke:#181818;stroke-width:1.0;"/><path d="M255.8156,1432.4844 Q255.9719,1432.2656 256.1594,1432.1563 Q256.3469,1432.0469 256.5656,1432.0469 Q256.9406,1432.0469 257.175,1432.3125 Q257.4094,1432.5625 257.4094,1433.1719 L257.4094,1434.625 Q257.4094,1435.2344 257.175,1435.5 Q256.9406,1435.7656 256.5656,1435.7656 Q256.2219,1435.7656 256.0188,1435.5625 Q255.8156,1435.375 255.7063,1434.8594 Q255.6594,1434.5 255.4719,1434.3125 Q255.1438,1433.9375 254.5344,1433.7188 Q253.925,1433.5 253.3,1433.5 Q252.5344,1433.5 251.8938,1433.8281 Q251.2688,1434.1563 250.7688,1434.9063 Q250.2844,1435.6563 250.2844,1436.6875 L250.2844,1437.7813 Q250.2844,1439.0156 251.175,1439.8438 Q252.0656,1440.6563 253.6594,1440.6563 Q254.5969,1440.6563 255.2531,1440.4063 Q255.6438,1440.25 256.0656,1439.8125 Q256.3313,1439.5469 256.4719,1439.4688 Q256.6281,1439.3906 256.8313,1439.3906 Q257.1594,1439.3906 257.4094,1439.6563 Q257.675,1439.9063 257.675,1440.25 Q257.675,1440.5938 257.3313,1441 Q256.8313,1441.5781 256.0344,1441.9063 Q254.9563,1442.3594 253.6594,1442.3594 Q252.1438,1442.3594 250.9406,1441.7344 Q249.9563,1441.2344 249.2688,1440.1719 Q248.5813,1439.0938 248.5813,1437.8125 L248.5813,1436.6563 Q248.5813,1435.3281 249.1906,1434.1875 Q249.8156,1433.0313 250.9094,1432.4219 Q252.0031,1431.7969 253.2375,1431.7969 Q253.9719,1431.7969 254.6125,1431.9688 Q255.2688,1432.125 255.8156,1432.4844 Z " fill="#000000"/><text fill="#000000" font-family="sans-serif" font-size="14" lengthAdjust="spacing" textLength="85" x="274.95" y="1442.3379">KPICalculator</text><line style="stroke:#6366F1;stroke-width:0.5;" x1="212.5" x2="390.5" y1="1452.6094" y2="1452.6094"/><line style="stroke:#6366F1;stroke-width:0.5;" x1="212.5" x2="390.5" y1="1460.6094" y2="1460.6094"/><text fill="#000000" font-family="sans-serif" font-size="14" lengthAdjust="spacing" textLength="129" x="219.5" y="1481.1426">+calculate_all_kpis()</text><text fill="#000000" font-family="sans-serif" font-size="14" lengthAdjust="spacing" textLength="164" x="219.5" y="1502.752">+calculate_health_score()</text></g><!--class EDA--><g id="elem_EDA"><rect codeLine="86" fill="#F1F1F1" height="91.2188" id="EDA" rx="2.5" ry="2.5" style="stroke:#6366F1;stroke-width:0.5;" width="193" x="205" y="1541.6094"/><ellipse cx="281.25" cy="1557.6094" fill="#ADD1B2" rx="11" ry="11" style="stroke:#181818;stroke-width:1.0;"/><path d="M284.0156,1553.4844 Q284.1719,1553.2656 284.3594,1553.1563 Q284.5469,1553.0469 284.7656,1553.0469 Q285.1406,1553.0469 285.375,1553.3125 Q285.6094,1553.5625 285.6094,1554.1719 L285.6094,1555.625 Q285.6094,1556.2344 285.375,1556.5 Q285.1406,1556.7656 284.7656,1556.7656 Q284.4219,1556.7656 284.2188,1556.5625 Q284.0156,1556.375 283.9063,1555.8594 Q283.8594,1555.5 283.6719,1555.3125 Q283.3438,1554.9375 282.7344,1554.7188 Q282.125,1554.5 281.5,1554.5 Q280.7344,1554.5 280.0938,1554.8281 Q279.4688,1555.1563 278.9688,1555.9063 Q278.4844,1556.6563 278.4844,1557.6875 L278.4844,1558.7813 Q278.4844,1560.0156 279.375,1560.8438 Q280.2656,1561.6563 281.8594,1561.6563 Q282.7969,1561.6563 283.4531,1561.4063 Q283.8438,1561.25 284.2656,1560.8125 Q284.5313,1560.5469 284.6719,1560.4688 Q284.8281,1560.3906 285.0313,1560.3906 Q285.3594,1560.3906 285.6094,1560.6563 Q285.875,1560.9063 285.875,1561.25 Q285.875,1561.5938 285.5313,1562 Q285.0313,1562.5781 284.2344,1562.9063 Q283.1563,1563.3594 281.8594,1563.3594 Q280.3438,1563.3594 279.1406,1562.7344 Q278.1563,1562.2344 277.4688,1561.1719 Q276.7813,1560.0938 276.7813,1558.8125 L276.7813,1557.6563 Q276.7813,1556.3281 277.3906,1555.1875 Q278.0156,1554.0313 279.1094,1553.4219 Q280.2031,1552.7969 281.4375,1552.7969 Q282.1719,1552.7969 282.8125,1552.9688 Q283.4688,1553.125 284.0156,1553.4844 Z " fill="#000000"/><text fill="#000000" font-family="sans-serif" font-size="14" lengthAdjust="spacing" textLength="28" x="303.75" y="1563.3379">EDA</text><line style="stroke:#6366F1;stroke-width:0.5;" x1="206" x2="397" y1="1573.6094" y2="1573.6094"/><line style="stroke:#6366F1;stroke-width:0.5;" x1="206" x2="397" y1="1581.6094" y2="1581.6094"/><text fill="#000000" font-family="sans-serif" font-size="14" lengthAdjust="spacing" textLength="177" x="213" y="1602.1426">+analyze_temporal_trends()</text><text fill="#000000" font-family="sans-serif" font-size="14" lengthAdjust="spacing" textLength="154" x="213" y="1623.752">+analyze_performance()</text></g><!--class RecommendationEngine--><g id="elem_RecommendationEngine"><rect codeLine="91" fill="#F1F1F1" height="69.6094" id="RecommendationEngine" rx="2.5" ry="2.5" style="stroke:#6366F1;stroke-width:0.5;" width="211" x="196" y="1320.1094"/><ellipse cx="220.45" cy="1336.1094" fill="#ADD1B2" rx="11" ry="11" style="stroke:#181818;stroke-width:1.0;"/><path d="M223.2156,1331.9844 Q223.3719,1331.7656 223.5594,1331.6563 Q223.7469,1331.5469 223.9656,1331.5469 Q224.3406,1331.5469 224.575,1331.8125 Q224.8094,1332.0625 224.8094,1332.6719 L224.8094,1334.125 Q224.8094,1334.7344 224.575,1335 Q224.3406,1335.2656 223.9656,1335.2656 Q223.6219,1335.2656 223.4188,1335.0625 Q223.2156,1334.875 223.1063,1334.3594 Q223.0594,1334 222.8719,1333.8125 Q222.5438,1333.4375 221.9344,1333.2188 Q221.325,1333 220.7,1333 Q219.9344,1333 219.2938,1333.3281 Q218.6688,1333.6563 218.1688,1334.4063 Q217.6844,1335.1563 217.6844,1336.1875 L217.6844,1337.2813 Q217.6844,1338.5156 218.575,1339.3438 Q219.4656,1340.1563 221.0594,1340.1563 Q221.9969,1340.1563 222.6531,1339.9063 Q223.0438,1339.75 223.4656,1339.3125 Q223.7313,1339.0469 223.8719,1338.9688 Q224.0281,1338.8906 224.2313,1338.8906 Q224.5594,1338.8906 224.8094,1339.1563 Q225.075,1339.4063 225.075,1339.75 Q225.075,1340.0938 224.7313,1340.5 Q224.2313,1341.0781 223.4344,1341.4063 Q222.3563,1341.8594 221.0594,1341.8594 Q219.5438,1341.8594 218.3406,1341.2344 Q217.3563,1340.7344 216.6688,1339.6719 Q215.9813,1338.5938 215.9813,1337.3125 L215.9813,1336.1563 Q215.9813,1334.8281 216.5906,1333.6875 Q217.2156,1332.5313 218.3094,1331.9219 Q219.4031,1331.2969 220.6375,1331.2969 Q221.3719,1331.2969 222.0125,1331.4688 Q222.6688,1331.625 223.2156,1331.9844 Z " fill="#000000"/><text fill="#000000" font-family="sans-serif" font-size="14" lengthAdjust="spacing" textLength="154" x="238.55" y="1341.8379">RecommendationEngine</text><line style="stroke:#6366F1;stroke-width:0.5;" x1="197" x2="406" y1="1352.1094" y2="1352.1094"/><line style="stroke:#6366F1;stroke-width:0.5;" x1="197" x2="406" y1="1360.1094" y2="1360.1094"/><text fill="#000000" font-family="sans-serif" font-size="14" lengthAdjust="spacing" textLength="195" x="204" y="1380.6426">+generate_recommendations()</text></g><!--class SWOTAnalysis--><g id="elem_SWOTAnalysis"><rect codeLine="95" fill="#F1F1F1" height="69.6094" id="SWOTAnalysis" rx="2.5" ry="2.5" style="stroke:#6366F1;stroke-width:0.5;" width="192" x="205.5" y="1220.1094"/><ellipse cx="248.4" cy="1236.1094" fill="#ADD1B2" rx="11" ry="11" style="stroke:#181818;stroke-width:1.0;"/><path d="M251.1656,1231.9844 Q251.3219,1231.7656 251.5094,1231.6563 Q251.6969,1231.5469 251.9156,1231.5469 Q252.2906,1231.5469 252.525,1231.8125 Q252.7594,1232.0625 252.7594,1232.6719 L252.7594,1234.125 Q252.7594,1234.7344 252.525,1235 Q252.2906,1235.2656 251.9156,1235.2656 Q251.5719,1235.2656 251.3688,1235.0625 Q251.1656,1234.875 251.0563,1234.3594 Q251.0094,1234 250.8219,1233.8125 Q250.4938,1233.4375 249.8844,1233.2188 Q249.275,1233 248.65,1233 Q247.8844,1233 247.2438,1233.3281 Q246.6188,1233.6563 246.1188,1234.4063 Q245.6344,1235.1563 245.6344,1236.1875 L245.6344,1237.2813 Q245.6344,1238.5156 246.525,1239.3438 Q247.4156,1240.1563 249.0094,1240.1563 Q249.9469,1240.1563 250.6031,1239.9063 Q250.9938,1239.75 251.4156,1239.3125 Q251.6813,1239.0469 251.8219,1238.9688 Q251.9781,1238.8906 252.1813,1238.8906 Q252.5094,1238.8906 252.7594,1239.1563 Q253.025,1239.4063 253.025,1239.75 Q253.025,1240.0938 252.6813,1240.5 Q252.1813,1241.0781 251.3844,1241.4063 Q250.3063,1241.8594 249.0094,1241.8594 Q247.4938,1241.8594 246.2906,1241.2344 Q245.3063,1240.7344 244.6188,1239.6719 Q243.9313,1238.5938 243.9313,1237.3125 L243.9313,1236.1563 Q243.9313,1234.8281 244.5406,1233.6875 Q245.1656,1232.5313 246.2594,1231.9219 Q247.3531,1231.2969 248.5875,1231.2969 Q249.3219,1231.2969 249.9625,1231.4688 Q250.6188,1231.625 251.1656,1231.9844 Z " fill="#000000"/><text fill="#000000" font-family="sans-serif" font-size="14" lengthAdjust="spacing" textLength="94" x="270.6" y="1241.8379">SWOTAnalysis</text><line style="stroke:#6366F1;stroke-width:0.5;" x1="206.5" x2="396.5" y1="1252.1094" y2="1252.1094"/><line style="stroke:#6366F1;stroke-width:0.5;" x1="206.5" x2="396.5" y1="1260.1094" y2="1260.1094"/><text fill="#000000" font-family="sans-serif" font-size="14" lengthAdjust="spacing" textLength="176" x="213.5" y="1280.6426">+generate_swot_summary()</text></g><!--class Forecasting--><g id="elem_Forecasting"><rect codeLine="101" fill="#F1F1F1" height="91.2188" id="Forecasting" rx="2.5" ry="2.5" style="stroke:#6366F1;stroke-width:0.5;" width="174" x="214.5" y="948.6094"/><ellipse cx="257.85" cy="964.6094" fill="#ADD1B2" rx="11" ry="11" style="stroke:#181818;stroke-width:1.0;"/><path d="M260.6156,960.4844 Q260.7719,960.2656 260.9594,960.1563 Q261.1469,960.0469 261.3656,960.0469 Q261.7406,960.0469 261.975,960.3125 Q262.2094,960.5625 262.2094,961.1719 L262.2094,962.625 Q262.2094,963.2344 261.975,963.5 Q261.7406,963.7656 261.3656,963.7656 Q261.0219,963.7656 260.8188,963.5625 Q260.6156,963.375 260.5063,962.8594 Q260.4594,962.5 260.2719,962.3125 Q259.9438,961.9375 259.3344,961.7188 Q258.725,961.5 258.1,961.5 Q257.3344,961.5 256.6938,961.8281 Q256.0688,962.1563 255.5688,962.9063 Q255.0844,963.6563 255.0844,964.6875 L255.0844,965.7813 Q255.0844,967.0156 255.975,967.8438 Q256.8656,968.6563 258.4594,968.6563 Q259.3969,968.6563 260.0531,968.4063 Q260.4438,968.25 260.8656,967.8125 Q261.1313,967.5469 261.2719,967.4688 Q261.4281,967.3906 261.6313,967.3906 Q261.9594,967.3906 262.2094,967.6563 Q262.475,967.9063 262.475,968.25 Q262.475,968.5938 262.1313,969 Q261.6313,969.5781 260.8344,969.9063 Q259.7563,970.3594 258.4594,970.3594 Q256.9438,970.3594 255.7406,969.7344 Q254.7563,969.2344 254.0688,968.1719 Q253.3813,967.0938 253.3813,965.8125 L253.3813,964.6563 Q253.3813,963.3281 253.9906,962.1875 Q254.6156,961.0313 255.7094,960.4219 Q256.8031,959.7969 258.0375,959.7969 Q258.7719,959.7969 259.4125,959.9688 Q260.0688,960.125 260.6156,960.4844 Z " fill="#000000"/><text fill="#000000" font-family="sans-serif" font-size="14" lengthAdjust="spacing" textLength="75" x="280.15" y="970.3379">Forecasting</text><line style="stroke:#6366F1;stroke-width:0.5;" x1="215.5" x2="387.5" y1="980.6094" y2="980.6094"/><line style="stroke:#6366F1;stroke-width:0.5;" x1="215.5" x2="387.5" y1="988.6094" y2="988.6094"/><text fill="#000000" font-family="sans-serif" font-size="14" lengthAdjust="spacing" textLength="158" x="222.5" y="1009.1426">+forecast_with_prophet()</text><text fill="#000000" font-family="sans-serif" font-size="14" lengthAdjust="spacing" textLength="144" x="222.5" y="1030.752">+forecast_with_arima()</text></g><!--class AnomalyDetection--><g id="elem_AnomalyDetection"><rect codeLine="106" fill="#F1F1F1" height="91.2188" id="AnomalyDetection" rx="2.5" ry="2.5" style="stroke:#6366F1;stroke-width:0.5;" width="172" x="215.5" y="827.6094"/><ellipse cx="240.4" cy="843.6094" fill="#ADD1B2" rx="11" ry="11" style="stroke:#181818;stroke-width:1.0;"/><path d="M243.1656,839.4844 Q243.3219,839.2656 243.5094,839.1563 Q243.6969,839.0469 243.9156,839.0469 Q244.2906,839.0469 244.525,839.3125 Q244.7594,839.5625 244.7594,840.1719 L244.7594,841.625 Q244.7594,842.2344 244.525,842.5 Q244.2906,842.7656 243.9156,842.7656 Q243.5719,842.7656 243.3688,842.5625 Q243.1656,842.375 243.0563,841.8594 Q243.0094,841.5 242.8219,841.3125 Q242.4938,840.9375 241.8844,840.7188 Q241.275,840.5 240.65,840.5 Q239.8844,840.5 239.2438,840.8281 Q238.6188,841.1563 238.1188,841.9063 Q237.6344,842.6563 237.6344,843.6875 L237.6344,844.7813 Q237.6344,846.0156 238.525,846.8438 Q239.4156,847.6563 241.0094,847.6563 Q241.9469,847.6563 242.6031,847.4063 Q242.9938,847.25 243.4156,846.8125 Q243.6813,846.5469 243.8219,846.4688 Q243.9781,846.3906 244.1813,846.3906 Q244.5094,846.3906 244.7594,846.6563 Q245.025,846.9063 245.025,847.25 Q245.025,847.5938 244.6813,848 Q244.1813,848.5781 243.3844,848.9063 Q242.3063,849.3594 241.0094,849.3594 Q239.4938,849.3594 238.2906,848.7344 Q237.3063,848.2344 236.6188,847.1719 Q235.9313,846.0938 235.9313,844.8125 L235.9313,843.6563 Q235.9313,842.3281 236.5406,841.1875 Q237.1656,840.0313 238.2594,839.4219 Q239.3531,838.7969 240.5875,838.7969 Q241.3219,838.7969 241.9625,838.9688 Q242.6188,839.125 243.1656,839.4844 Z " fill="#000000"/><text fill="#000000" font-family="sans-serif" font-size="14" lengthAdjust="spacing" textLength="114" x="258.6" y="849.3379">AnomalyDetection</text><line style="stroke:#6366F1;stroke-width:0.5;" x1="216.5" x2="386.5" y1="859.6094" y2="859.6094"/><line style="stroke:#6366F1;stroke-width:0.5;" x1="216.5" x2="386.5" y1="867.6094" y2="867.6094"/><text fill="#000000" font-family="sans-serif" font-size="14" lengthAdjust="spacing" textLength="129" x="223.5" y="888.1426">+detect_anomalies()</text><text fill="#000000" font-family="sans-serif" font-size="14" lengthAdjust="spacing" textLength="156" x="223.5" y="909.752">+detect_sudden_drops()</text></g><!--class ScenarioAnalysis--><g id="elem_ScenarioAnalysis"><rect codeLine="111" fill="#F1F1F1" height="69.6094" id="ScenarioAnalysis" rx="2.5" ry="2.5" style="stroke:#6366F1;stroke-width:0.5;" width="155" x="224" y="1070.1094"/><ellipse cx="243.95" cy="1086.1094" fill="#ADD1B2" rx="11" ry="11" style="stroke:#181818;stroke-width:1.0;"/><path d="M246.7156,1081.9844 Q246.8719,1081.7656 247.0594,1081.6563 Q247.2469,1081.5469 247.4656,1081.5469 Q247.8406,1081.5469 248.075,1081.8125 Q248.3094,1082.0625 248.3094,1082.6719 L248.3094,1084.125 Q248.3094,1084.7344 248.075,1085 Q247.8406,1085.2656 247.4656,1085.2656 Q247.1219,1085.2656 246.9188,1085.0625 Q246.7156,1084.875 246.6063,1084.3594 Q246.5594,1084 246.3719,1083.8125 Q246.0438,1083.4375 245.4344,1083.2188 Q244.825,1083 244.2,1083 Q243.4344,1083 242.7938,1083.3281 Q242.1688,1083.6563 241.6688,1084.4063 Q241.1844,1085.1563 241.1844,1086.1875 L241.1844,1087.2813 Q241.1844,1088.5156 242.075,1089.3438 Q242.9656,1090.1563 244.5594,1090.1563 Q245.4969,1090.1563 246.1531,1089.9063 Q246.5438,1089.75 246.9656,1089.3125 Q247.2313,1089.0469 247.3719,1088.9688 Q247.5281,1088.8906 247.7313,1088.8906 Q248.0594,1088.8906 248.3094,1089.1563 Q248.575,1089.4063 248.575,1089.75 Q248.575,1090.0938 248.2313,1090.5 Q247.7313,1091.0781 246.9344,1091.4063 Q245.8563,1091.8594 244.5594,1091.8594 Q243.0438,1091.8594 241.8406,1091.2344 Q240.8563,1090.7344 240.1688,1089.6719 Q239.4813,1088.5938 239.4813,1087.3125 L239.4813,1086.1563 Q239.4813,1084.8281 240.0906,1083.6875 Q240.7156,1082.5313 241.8094,1081.9219 Q242.9031,1081.2969 244.1375,1081.2969 Q244.8719,1081.2969 245.5125,1081.4688 Q246.1688,1081.625 246.7156,1081.9844 Z " fill="#000000"/><text fill="#000000" font-family="sans-serif" font-size="14" lengthAdjust="spacing" textLength="108" x="261.05" y="1091.8379">ScenarioAnalysis</text><line style="stroke:#6366F1;stroke-width:0.5;" x1="225" x2="378" y1="1102.1094" y2="1102.1094"/><line style="stroke:#6366F1;stroke-width:0.5;" x1="225" x2="378" y1="1110.1094" y2="1110.1094"/><text fill="#000000" font-family="sans-serif" font-size="14" lengthAdjust="spacing" textLength="139" x="232" y="1130.6426">+simulate_scenarios()</text></g><!--class DataProcessor--><g id="elem_DataProcessor"><rect codeLine="118" fill="#F1F1F1" height="112.8281" id="DataProcessor" rx="2.5" ry="2.5" style="stroke:#6366F1;stroke-width:0.5;" width="150" x="226.5" y="219.6094"/><ellipse cx="250.5" cy="235.6094" fill="#ADD1B2" rx="11" ry="11" style="stroke:#181818;stroke-width:1.0;"/><path d="M253.2656,231.4844 Q253.4219,231.2656 253.6094,231.1563 Q253.7969,231.0469 254.0156,231.0469 Q254.3906,231.0469 254.625,231.3125 Q254.8594,231.5625 254.8594,232.1719 L254.8594,233.625 Q254.8594,234.2344 254.625,234.5 Q254.3906,234.7656 254.0156,234.7656 Q253.6719,234.7656 253.4688,234.5625 Q253.2656,234.375 253.1563,233.8594 Q253.1094,233.5 252.9219,233.3125 Q252.5938,232.9375 251.9844,232.7188 Q251.375,232.5 250.75,232.5 Q249.9844,232.5 249.3438,232.8281 Q248.7188,233.1563 248.2188,233.9063 Q247.7344,234.6563 247.7344,235.6875 L247.7344,236.7813 Q247.7344,238.0156 248.625,238.8438 Q249.5156,239.6563 251.1094,239.6563 Q252.0469,239.6563 252.7031,239.4063 Q253.0938,239.25 253.5156,238.8125 Q253.7813,238.5469 253.9219,238.4688 Q254.0781,238.3906 254.2813,238.3906 Q254.6094,238.3906 254.8594,238.6563 Q255.125,238.9063 255.125,239.25 Q255.125,239.5938 254.7813,240 Q254.2813,240.5781 253.4844,240.9063 Q252.4063,241.3594 251.1094,241.3594 Q249.5938,241.3594 248.3906,240.7344 Q247.4063,240.2344 246.7188,239.1719 Q246.0313,238.0938 246.0313,236.8125 L246.0313,235.6563 Q246.0313,234.3281 246.6406,233.1875 Q247.2656,232.0313 248.3594,231.4219 Q249.4531,230.7969 250.6875,230.7969 Q251.4219,230.7969 252.0625,230.9688 Q252.7188,231.125 253.2656,231.4844 Z " fill="#000000"/><text fill="#000000" font-family="sans-serif" font-size="14" lengthAdjust="spacing" textLength="94" x="268.5" y="241.3379">DataProcessor</text><line style="stroke:#6366F1;stroke-width:0.5;" x1="227.5" x2="375.5" y1="251.6094" y2="251.6094"/><line style="stroke:#6366F1;stroke-width:0.5;" x1="227.5" x2="375.5" y1="259.6094" y2="259.6094"/><text fill="#000000" font-family="sans-serif" font-size="14" lengthAdjust="spacing" textLength="103" x="234.5" y="280.1426">+validate_data()</text><text fill="#000000" font-family="sans-serif" font-size="14" lengthAdjust="spacing" textLength="88" x="234.5" y="301.752">+clean_data()</text><text fill="#000000" font-family="sans-serif" font-size="14" lengthAdjust="spacing" textLength="134" x="234.5" y="323.3613">+engineer_features()</text></g><!--class Auth--><g id="elem_Auth"><rect codeLine="124" fill="#F1F1F1" height="91.2188" id="Auth" rx="2.5" ry="2.5" style="stroke:#6366F1;stroke-width:0.5;" width="118" x="242.5" y="483.6094"/><ellipse cx="281.35" cy="499.6094" fill="#ADD1B2" rx="11" ry="11" style="stroke:#181818;stroke-width:1.0;"/><path d="M284.1156,495.4844 Q284.2719,495.2656 284.4594,495.1563 Q284.6469,495.0469 284.8656,495.0469 Q285.2406,495.0469 285.475,495.3125 Q285.7094,495.5625 285.7094,496.1719 L285.7094,497.625 Q285.7094,498.2344 285.475,498.5 Q285.2406,498.7656 284.8656,498.7656 Q284.5219,498.7656 284.3188,498.5625 Q284.1156,498.375 284.0063,497.8594 Q283.9594,497.5 283.7719,497.3125 Q283.4438,496.9375 282.8344,496.7188 Q282.225,496.5 281.6,496.5 Q280.8344,496.5 280.1938,496.8281 Q279.5688,497.1563 279.0688,497.9063 Q278.5844,498.6563 278.5844,499.6875 L278.5844,500.7813 Q278.5844,502.0156 279.475,502.8438 Q280.3656,503.6563 281.9594,503.6563 Q282.8969,503.6563 283.5531,503.4063 Q283.9438,503.25 284.3656,502.8125 Q284.6313,502.5469 284.7719,502.4688 Q284.9281,502.3906 285.1313,502.3906 Q285.4594,502.3906 285.7094,502.6563 Q285.975,502.9063 285.975,503.25 Q285.975,503.5938 285.6313,504 Q285.1313,504.5781 284.3344,504.9063 Q283.2563,505.3594 281.9594,505.3594 Q280.4438,505.3594 279.2406,504.7344 Q278.2563,504.2344 277.5688,503.1719 Q276.8813,502.0938 276.8813,500.8125 L276.8813,499.6563 Q276.8813,498.3281 277.4906,497.1875 Q278.1156,496.0313 279.2094,495.4219 Q280.3031,494.7969 281.5375,494.7969 Q282.2719,494.7969 282.9125,494.9688 Q283.5688,495.125 284.1156,495.4844 Z " fill="#000000"/><text fill="#000000" font-family="sans-serif" font-size="14" lengthAdjust="spacing" textLength="29" x="302.65" y="505.3379">Auth</text><line style="stroke:#6366F1;stroke-width:0.5;" x1="243.5" x2="359.5" y1="515.6094" y2="515.6094"/><line style="stroke:#6366F1;stroke-width:0.5;" x1="243.5" x2="359.5" y1="523.6094" y2="523.6094"/><text fill="#000000" font-family="sans-serif" font-size="14" lengthAdjust="spacing" textLength="84" x="250.5" y="544.1426">+login_user()</text><text fill="#000000" font-family="sans-serif" font-size="14" lengthAdjust="spacing" textLength="102" x="250.5" y="565.752">+register_user()</text></g><!--class DBUtils--><g id="elem_DBUtils"><rect codeLine="129" fill="#F1F1F1" height="91.2188" id="DBUtils" rx="2.5" ry="2.5" style="stroke:#6366F1;stroke-width:0.5;" width="100" x="251.5" y="362.6094"/><ellipse cx="275.05" cy="378.6094" fill="#ADD1B2" rx="11" ry="11" style="stroke:#181818;stroke-width:1.0;"/><path d="M277.8156,374.4844 Q277.9719,374.2656 278.1594,374.1563 Q278.3469,374.0469 278.5656,374.0469 Q278.9406,374.0469 279.175,374.3125 Q279.4094,374.5625 279.4094,375.1719 L279.4094,376.625 Q279.4094,377.2344 279.175,377.5 Q278.9406,377.7656 278.5656,377.7656 Q278.2219,377.7656 278.0188,377.5625 Q277.8156,377.375 277.7063,376.8594 Q277.6594,376.5 277.4719,376.3125 Q277.1438,375.9375 276.5344,375.7188 Q275.925,375.5 275.3,375.5 Q274.5344,375.5 273.8938,375.8281 Q273.2688,376.1563 272.7688,376.9063 Q272.2844,377.6563 272.2844,378.6875 L272.2844,379.7813 Q272.2844,381.0156 273.175,381.8438 Q274.0656,382.6563 275.6594,382.6563 Q276.5969,382.6563 277.2531,382.4063 Q277.6438,382.25 278.0656,381.8125 Q278.3313,381.5469 278.4719,381.4688 Q278.6281,381.3906 278.8313,381.3906 Q279.1594,381.3906 279.4094,381.6563 Q279.675,381.9063 279.675,382.25 Q279.675,382.5938 279.3313,383 Q278.8313,383.5781 278.0344,383.9063 Q276.9563,384.3594 275.6594,384.3594 Q274.1438,384.3594 272.9406,383.7344 Q271.9563,383.2344 271.2688,382.1719 Q270.5813,381.0938 270.5813,379.8125 L270.5813,378.6563 Q270.5813,377.3281 271.1906,376.1875 Q271.8156,375.0313 272.9094,374.4219 Q274.0031,373.7969 275.2375,373.7969 Q275.9719,373.7969 276.6125,373.9688 Q277.2688,374.125 277.8156,374.4844 Z " fill="#000000"/><text fill="#000000" font-family="sans-serif" font-size="14" lengthAdjust="spacing" textLength="45" x="292.95" y="384.3379">DBUtils</text><line style="stroke:#6366F1;stroke-width:0.5;" x1="252.5" x2="350.5" y1="394.6094" y2="394.6094"/><line style="stroke:#6366F1;stroke-width:0.5;" x1="252.5" x2="350.5" y1="402.6094" y2="402.6094"/><text fill="#000000" font-family="sans-serif" font-size="14" lengthAdjust="spacing" textLength="84" x="259.5" y="423.1426">+save_data()</text><text fill="#000000" font-family="sans-serif" font-size="14" lengthAdjust="spacing" textLength="74" x="259.5" y="444.752">+get_data()</text></g><!--class Components--><g id="elem_Components"><rect codeLine="136" fill="#F1F1F1" height="91.2188" id="Components" rx="2.5" ry="2.5" style="stroke:#6366F1;stroke-width:0.5;" width="129" x="237" y="655.6094"/><ellipse cx="257.85" cy="671.6094" fill="#ADD1B2" rx="11" ry="11" style="stroke:#181818;stroke-width:1.0;"/><path d="M260.6156,667.4844 Q260.7719,667.2656 260.9594,667.1563 Q261.1469,667.0469 261.3656,667.0469 Q261.7406,667.0469 261.975,667.3125 Q262.2094,667.5625 262.2094,668.1719 L262.2094,669.625 Q262.2094,670.2344 261.975,670.5 Q261.7406,670.7656 261.3656,670.7656 Q261.0219,670.7656 260.8188,670.5625 Q260.6156,670.375 260.5063,669.8594 Q260.4594,669.5 260.2719,669.3125 Q259.9438,668.9375 259.3344,668.7188 Q258.725,668.5 258.1,668.5 Q257.3344,668.5 256.6938,668.8281 Q256.0688,669.1563 255.5688,669.9063 Q255.0844,670.6563 255.0844,671.6875 L255.0844,672.7813 Q255.0844,674.0156 255.975,674.8438 Q256.8656,675.6563 258.4594,675.6563 Q259.3969,675.6563 260.0531,675.4063 Q260.4438,675.25 260.8656,674.8125 Q261.1313,674.5469 261.2719,674.4688 Q261.4281,674.3906 261.6313,674.3906 Q261.9594,674.3906 262.2094,674.6563 Q262.475,674.9063 262.475,675.25 Q262.475,675.5938 262.1313,676 Q261.6313,676.5781 260.8344,676.9063 Q259.7563,677.3594 258.4594,677.3594 Q256.9438,677.3594 255.7406,676.7344 Q254.7563,676.2344 254.0688,675.1719 Q253.3813,674.0938 253.3813,672.8125 L253.3813,671.6563 Q253.3813,670.3281 253.9906,669.1875 Q254.6156,668.0313 255.7094,667.4219 Q256.8031,666.7969 258.0375,666.7969 Q258.7719,666.7969 259.4125,666.9688 Q260.0688,667.125 260.6156,667.4844 Z " fill="#000000"/><text fill="#000000" font-family="sans-serif" font-size="14" lengthAdjust="spacing" textLength="80" x="275.15" y="677.3379">Components</text><line style="stroke:#6366F1;stroke-width:0.5;" x1="238" x2="365" y1="687.6094" y2="687.6094"/><line style="stroke:#6366F1;stroke-width:0.5;" x1="238" x2="365" y1="695.6094" y2="695.6094"/><text fill="#000000" font-family="sans-serif" font-size="14" lengthAdjust="spacing" textLength="107" x="245" y="716.1426">+render_charts()</text><text fill="#000000" font-family="sans-serif" font-size="14" lengthAdjust="spacing" textLength="113" x="245" y="737.752">+render_metrics()</text></g><!--class App--><g id="elem_App"><rect codeLine="14" fill="#F1F1F1" height="112.8281" id="App" rx="2.5" ry="2.5" style="stroke:#6366F1;stroke-width:0.5;" width="149" x="7" y="346.6094"/><ellipse cx="62.75" cy="362.6094" fill="#ADD1B2" rx="11" ry="11" style="stroke:#181818;stroke-width:1.0;"/><path d="M65.5156,358.4844 Q65.6719,358.2656 65.8594,358.1563 Q66.0469,358.0469 66.2656,358.0469 Q66.6406,358.0469 66.875,358.3125 Q67.1094,358.5625 67.1094,359.1719 L67.1094,360.625 Q67.1094,361.2344 66.875,361.5 Q66.6406,361.7656 66.2656,361.7656 Q65.9219,361.7656 65.7188,361.5625 Q65.5156,361.375 65.4063,360.8594 Q65.3594,360.5 65.1719,360.3125 Q64.8438,359.9375 64.2344,359.7188 Q63.625,359.5 63,359.5 Q62.2344,359.5 61.5938,359.8281 Q60.9688,360.1563 60.4688,360.9063 Q59.9844,361.6563 59.9844,362.6875 L59.9844,363.7813 Q59.9844,365.0156 60.875,365.8438 Q61.7656,366.6563 63.3594,366.6563 Q64.2969,366.6563 64.9531,366.4063 Q65.3438,366.25 65.7656,365.8125 Q66.0313,365.5469 66.1719,365.4688 Q66.3281,365.3906 66.5313,365.3906 Q66.8594,365.3906 67.1094,365.6563 Q67.375,365.9063 67.375,366.25 Q67.375,366.5938 67.0313,367 Q66.5313,367.5781 65.7344,367.9063 Q64.6563,368.3594 63.3594,368.3594 Q61.8438,368.3594 60.6406,367.7344 Q59.6563,367.2344 58.9688,366.1719 Q58.2813,365.0938 58.2813,363.8125 L58.2813,362.6563 Q58.2813,361.3281 58.8906,360.1875 Q59.5156,359.0313 60.6094,358.4219 Q61.7031,357.7969 62.9375,357.7969 Q63.6719,357.7969 64.3125,357.9688 Q64.9688,358.125 65.5156,358.4844 Z " fill="#000000"/><text fill="#000000" font-family="sans-serif" font-size="14" lengthAdjust="spacing" textLength="25" x="85.25" y="368.3379">App</text><line style="stroke:#6366F1;stroke-width:0.5;" x1="8" x2="155" y1="378.6094" y2="378.6094"/><text fill="#000000" font-family="sans-serif" font-size="14" lengthAdjust="spacing" textLength="95" x="15" y="399.1426">+session_state</text><line style="stroke:#6366F1;stroke-width:0.5;" x1="8" x2="155" y1="408.2188" y2="408.2188"/><text fill="#000000" font-family="sans-serif" font-size="14" lengthAdjust="spacing" textLength="133" x="15" y="428.752">+render_navigation()</text><text fill="#000000" font-family="sans-serif" font-size="14" lengthAdjust="spacing" textLength="48" x="15" y="450.3613">+main()</text></g><!--class Config--><g id="elem_Config"><rect codeLine="20" fill="#F1F1F1" height="112.8281" id="Config" rx="2.5" ry="2.5" style="stroke:#6366F1;stroke-width:0.5;" width="112" x="245.5" y="49.6094"/><ellipse cx="276.25" cy="65.6094" fill="#ADD1B2" rx="11" ry="11" style="stroke:#181818;stroke-width:1.0;"/><path d="M279.0156,61.4844 Q279.1719,61.2656 279.3594,61.1563 Q279.5469,61.0469 279.7656,61.0469 Q280.1406,61.0469 280.375,61.3125 Q280.6094,61.5625 280.6094,62.1719 L280.6094,63.625 Q280.6094,64.2344 280.375,64.5 Q280.1406,64.7656 279.7656,64.7656 Q279.4219,64.7656 279.2188,64.5625 Q279.0156,64.375 278.9063,63.8594 Q278.8594,63.5 278.6719,63.3125 Q278.3438,62.9375 277.7344,62.7188 Q277.125,62.5 276.5,62.5 Q275.7344,62.5 275.0938,62.8281 Q274.4688,63.1563 273.9688,63.9063 Q273.4844,64.6563 273.4844,65.6875 L273.4844,66.7813 Q273.4844,68.0156 274.375,68.8438 Q275.2656,69.6563 276.8594,69.6563 Q277.7969,69.6563 278.4531,69.4063 Q278.8438,69.25 279.2656,68.8125 Q279.5313,68.5469 279.6719,68.4688 Q279.8281,68.3906 280.0313,68.3906 Q280.3594,68.3906 280.6094,68.6563 Q280.875,68.9063 280.875,69.25 Q280.875,69.5938 280.5313,70 Q280.0313,70.5781 279.2344,70.9063 Q278.1563,71.3594 276.8594,71.3594 Q275.3438,71.3594 274.1406,70.7344 Q273.1563,70.2344 272.4688,69.1719 Q271.7813,68.0938 271.7813,66.8125 L271.7813,65.6563 Q271.7813,64.3281 272.3906,63.1875 Q273.0156,62.0313 274.1094,61.4219 Q275.2031,60.7969 276.4375,60.7969 Q277.1719,60.7969 277.8125,60.9688 Q278.4688,61.125 279.0156,61.4844 Z " fill="#000000"/><text fill="#000000" font-family="sans-serif" font-size="14" lengthAdjust="spacing" textLength="41" x="295.75" y="71.3379">Config</text><line style="stroke:#6366F1;stroke-width:0.5;" x1="246.5" x2="356.5" y1="81.6094" y2="81.6094"/><text fill="#000000" font-family="sans-serif" font-size="14" lengthAdjust="spacing" textLength="88" x="253.5" y="102.1426">+DB_CONFIG</text><text fill="#000000" font-family="sans-serif" font-size="14" lengthAdjust="spacing" textLength="96" x="253.5" y="123.752">+APP_CONFIG</text><text fill="#000000" font-family="sans-serif" font-size="14" lengthAdjust="spacing" textLength="88" x="253.5" y="145.3613">+ML_CONFIG</text><line style="stroke:#6366F1;stroke-width:0.5;" x1="246.5" x2="356.5" y1="154.4375" y2="154.4375"/></g><!--link App to Config--><g id="link_App_Config"><path codeLine="143" d="M99.58,346.2594 C114.17,304.0594 138.2,246.6894 172,204.1094 C192.23,178.6194 215.566,159.4943 240.446,142.4943 " fill="none" id="App-to-Config" style="stroke:#6366F1;stroke-width:1.0;"/><polygon fill="#6366F1" points="245.4,139.1094,235.7124,140.8842,241.2717,141.9302,240.2257,147.4895,245.4,139.1094" style="stroke:#6366F1;stroke-width:1.0;"/></g><!--link App to Auth--><g id="link_App_Auth"><path codeLine="144" d="M156.02,458.1094 C161.35,461.6094 166.72,464.9694 172,468.1094 C194.3,481.3494 214.4657,491.4892 236.9357,501.7892 " fill="none" id="App-to-Auth" style="stroke:#6366F1;stroke-width:1.0;"/><polygon fill="#6366F1" points="242.39,504.2894,235.8754,496.9029,237.8448,502.2059,232.5418,504.1753,242.39,504.2894" style="stroke:#6366F1;stroke-width:1.0;"/></g><!--link App to Components--><g id="link_App_Components"><path codeLine="145" d="M102.46,459.6694 C117.85,498.6394 141.63,550.3494 172,590.1094 C190.43,614.2394 210.187,633.1191 232.777,651.6091 " fill="none" id="App-to-Components" style="stroke:#6366F1;stroke-width:1.0;"/><polygon fill="#6366F1" points="237.42,655.4094,232.989,646.6136,233.5508,652.2424,227.9219,652.8042,237.42,655.4094" style="stroke:#6366F1;stroke-width:1.0;"/></g><!--link App to DataProcessor--><g id="link_App_DataProcessor"><path codeLine="146" d="M156.06,356.6494 C161.43,353.3894 166.79,350.1794 172,347.1094 C189.46,336.8294 203.2213,328.9965 221.1313,319.0765 " fill="none" id="App-to-DataProcessor" style="stroke:#6366F1;stroke-width:1.0;"/><polygon fill="#6366F1" points="226.38,316.1694,216.5689,317.031,222.0061,318.592,220.4451,324.0292,226.38,316.1694" style="stroke:#6366F1;stroke-width:1.0;"/></g><!--link DataProcessor to RawData--><g id="link_DataProcessor_RawData"><path codeLine="148" d="M376.53,310.3594 C395.29,320.7794 414.72,333.1994 431,347.1094 C457.81,370.0094 479.0254,395.2038 498.5954,422.1638 " fill="none" id="DataProcessor-to-RawData" style="stroke:#6366F1;stroke-width:1.0;"/><polygon fill="#6366F1" points="502.12,427.0194,500.0701,417.3862,499.1828,422.973,493.596,422.0857,502.12,427.0194" style="stroke:#6366F1;stroke-width:1.0;"/></g><!--link DataProcessor to CleanedData--><g id="link_DataProcessor_CleanedData"><path codeLine="149" d="M376.55,288.9994 C445.78,303.3794 550.16,331.1694 630,379.1094 C651.37,391.9394 667.5269,405.2073 685.1669,422.6773 " fill="none" id="DataProcessor-to-CleanedData" style="stroke:#6366F1;stroke-width:1.0;"/><polygon fill="#6366F1" points="689.43,426.8994,685.85,417.7242,685.8774,423.381,680.2206,423.4084,689.43,426.8994" style="stroke:#6366F1;stroke-width:1.0;"/></g><!--link RawData to CleanedData--><g id="link_RawData_CleanedData"><path codeLine="150" d="M612.27,494.1094 C630.59,494.1094 644.71,494.1094 663.69,494.1094 " fill="none" id="RawData-to-CleanedData" style="stroke:#6366F1;stroke-width:1.0;stroke-dasharray:7.0,7.0;"/><polygon fill="#6366F1" points="669.69,494.1094,660.69,490.1094,664.69,494.1094,660.69,498.1094,669.69,494.1094" style="stroke:#6366F1;stroke-width:1.0;"/></g><!--link KPICalculator to CleanedData--><g id="link_KPICalculator_CleanedData"><path codeLine="152" d="M391.77,1484.7994 C465.7,1494.6094 568.3,1494.1994 630,1434.1094 C692.55,1373.1894 731.502,772.4098 743.072,567.3798 " fill="none" id="KPICalculator-to-CleanedData" style="stroke:#6366F1;stroke-width:1.0;"/><polygon fill="#6366F1" points="743.41,561.3894,738.9093,570.1497,743.1283,566.3814,746.8966,570.6004,743.41,561.3894" style="stroke:#6366F1;stroke-width:1.0;"/></g><!--link KPICalculator to KPI--><g id="link_KPICalculator_KPI"><path codeLine="153" d="M391.67,1439.0894 C407.03,1430.5794 421.19,1419.4894 431,1405.1094 C445.31,1384.1294 426.24,1313.0694 439,1291.1094 C445.14,1280.5394 449.0086,1275.1489 458.4386,1267.0489 " fill="none" id="KPICalculator-to-KPI" style="stroke:#6366F1;stroke-width:1.0;"/><polygon fill="#6366F1" points="462.99,1263.1394,453.5565,1265.9693,459.1971,1266.3973,458.7692,1272.0379,462.99,1263.1394" style="stroke:#6366F1;stroke-width:1.0;"/></g><!--link EDA to CleanedData--><g id="link_EDA_CleanedData"><path codeLine="155" d="M398.21,1587.8994 C472.92,1582.9894 573.25,1563.2194 630,1497.1094 C691.02,1426.0294 731.3792,780.3902 743.1492,567.2302 " fill="none" id="EDA-to-CleanedData" style="stroke:#6366F1;stroke-width:1.0;"/><polygon fill="#6366F1" points="743.48,561.2394,738.9899,570.0052,743.2043,566.2318,746.9777,570.4462,743.48,561.2394" style="stroke:#6366F1;stroke-width:1.0;"/></g><!--link RecommendationEngine to Recommendation--><g id="link_RecommendationEngine_Recommendation"><path codeLine="156" d="M407.32,1358.5594 C429.54,1359.2894 446.5232,1359.8523 467.2132,1360.5323 " fill="none" id="RecommendationEngine-to-Recommendation" style="stroke:#6366F1;stroke-width:1.0;"/><polygon fill="#6366F1" points="473.21,1360.7294,464.3463,1356.4359,468.2127,1360.5651,464.0835,1364.4316,473.21,1360.7294" style="stroke:#6366F1;stroke-width:1.0;"/></g><!--link SWOTAnalysis to Insight--><g id="link_SWOTAnalysis_Insight"><path codeLine="157" d="M348.8,1220.0994 C373.47,1201.1894 404.19,1177.2394 431,1155.1094 C434.64,1152.0994 435.25,1150.9794 439,1148.1094 C453.64,1136.8994 465.0012,1128.8228 480.4012,1118.5328 " fill="none" id="SWOTAnalysis-to-Insight" style="stroke:#6366F1;stroke-width:1.0;"/><polygon fill="#6366F1" points="485.39,1115.1994,475.6845,1116.8736,481.2327,1117.9772,480.1291,1123.5254,485.39,1115.1994" style="stroke:#6366F1;stroke-width:1.0;"/></g><!--link Forecasting to Prediction--><g id="link_Forecasting_Prediction"><path codeLine="159" d="M388.51,972.8694 C416.09,966.0594 440.525,960.028 467.045,953.478 " fill="none" id="Forecasting-to-Prediction" style="stroke:#6366F1;stroke-width:1.0;"/><polygon fill="#6366F1" points="472.87,952.0394,463.1734,950.3141,468.0159,953.2383,465.0917,958.0807,472.87,952.0394" style="stroke:#6366F1;stroke-width:1.0;"/></g><!--link AnomalyDetection to Anomaly--><g id="link_AnomalyDetection_Anomaly"><path codeLine="160" d="M387.83,844.3194 C420.79,833.1894 451.9648,822.6673 481.7548,812.6173 " fill="none" id="AnomalyDetection-to-Anomaly" style="stroke:#6366F1;stroke-width:1.0;"/><polygon fill="#6366F1" points="487.44,810.6994,477.6336,809.7862,482.7023,812.2977,480.1909,817.3665,487.44,810.6994" style="stroke:#6366F1;stroke-width:1.0;"/></g><!--link DBUtils to RawData--><g id="link_DBUtils_RawData"><path codeLine="162" d="M351.67,425.5094 C388.84,438.6694 434.5433,454.8489 475.0633,469.1789 " fill="none" id="DBUtils-to-RawData" style="stroke:#6366F1;stroke-width:1.0;"/><polygon fill="#6366F1" points="480.72,471.1794,473.5686,464.4075,476.0061,469.5123,470.9013,471.9497,480.72,471.1794" style="stroke:#6366F1;stroke-width:1.0;"/></g><!--link DBUtils to CleanedData--><g id="link_DBUtils_CleanedData"><path codeLine="163" d="M351.67,399.8894 C417.02,390.9294 535.29,381.5894 630,412.1094 C643.69,416.5194 652.0436,420.0648 664.7236,427.6648 " fill="none" id="DBUtils-to-CleanedData" style="stroke:#6366F1;stroke-width:1.0;"/><polygon fill="#6366F1" points="669.87,430.7494,664.2068,422.6916,665.5813,428.1789,660.094,429.5534,669.87,430.7494" style="stroke:#6366F1;stroke-width:1.0;"/></g><!--link DBUtils to KPI--><g id="link_DBUtils_KPI"><path codeLine="164" d="M351.66,417.5694 C380.02,425.8094 413.45,440.8994 431,468.1094 C451.48,499.8594 421.08,1114.8494 439,1148.1094 C444.93,1159.1094 448.8407,1164.8027 458.3907,1173.1427 " fill="none" id="DBUtils-to-KPI" style="stroke:#6366F1;stroke-width:1.0;"/><polygon fill="#6366F1" points="462.91,1177.0894,458.7622,1168.1565,459.1439,1173.8005,453.5,1174.1822,462.91,1177.0894" style="stroke:#6366F1;stroke-width:1.0;"/></g><!--link Auth to User--><g id="link_Auth_User"><path codeLine="166" d="M360.7,557.6094 C404.51,579.0694 458.1612,605.341 497.6012,624.651 " fill="none" id="Auth-to-User" style="stroke:#6366F1;stroke-width:1.0;"/><polygon fill="#6366F1" points="502.99,627.2894,496.6657,619.7393,498.4993,625.0907,493.1479,626.9243,502.99,627.2894" style="stroke:#6366F1;stroke-width:1.0;"/></g><!--SRC=[dLR1RkCs4BthAuZjeItgBD9kaPvQG96LhR1ExCOsYZq94sei4v58bQHZU8lzzmubsIObxQK-cJEZUSF7DqDMkBFCAgP5kRUi41gv5Kf6vbN81ZJKZ5TWJ6oj5Yy7YnbNSYs-8BlrGbw0lvPQ7MIHg4ffzjr3-nickLUwGDs7t7suktlusGi1hTNnMyw64A34-o5GUfl-5W0rK1H2bkmNpoPLWGORzi6lMODyTSPVRwF82biXowHn96H_iHkMk7hPN43fOgFeU_RxvSUIvNFAujLgaINn9bi-URwetIYBcuRz6p7w_MJG628qDnOiTYQDadZ89Ro94XpRF_pOEMeGxl_Ng4-JABaJvJdJ_3vFbayFsSTkIGK4wyV5UVbrKEyytiHi4NzEd_rAUqhPkpbOO8_4KMNUzLWT_DQWxWqjme7M4cgyMf0ghgvBhQhEIHLSqpp3iONmCXLdBjfLerLnu7R6D9PEUnU7WGhDZ75bo4bHEs6lpXUmV9-BOWoOL0WIYodGDit_0ElMUGsw59A-LUBgEo7e6QkLjFiP- -S0sg8U5_LfbVd5M6MXodlCRZ749A4VxJxN0LTxX8gCXYizGVLAOo7Q1lQnceir7nBVEh3e2hawk1DUWP9ZBYHjvmsgCLZVBpwIw4ovFJKU32VGKkaJRTGrcXTUamY9RODlg8KzJMW7kQfhwXSORqeezmsTM9_U8zV1p1XrFTUYiS4nex6Y1hVd3dsC6KjLGtKAf8CMfmY4BdImty5sXkrulrrdJ-bwpHRBZraosPAnfAnMy453aeOIgFYX0gk2pkIz5NEeglor4QOVAGElhvu-8jXwEe_zjE3A-8AvnRfHcYHgtUWASfz36jGxfMiWoKmb3iynbTH5w2ELAD49FTT1e9dAjVvxkMa9Ci9CvZ17PNDpgAbRJvS4bE92x-DYSjuz42iSI1-ozFFkUdD-5CGTTMcpH-jp40Q09drDrTthQdxMqbXWUQSdWG75lSyS2kh8l23yQLeuIi9MKzGOKNS2C7sGyNa9rBdTP8jiawNhIM5khHYoviRiIYjEzrmeIXeQmhMBwna8zEZcyyYAhIZeNjmXs8F6oKt61xltCIf57-NkOl9JkT5kQ6pvZY3D_BxTI40Hl8qhBT7wjb15soma8b7K9HAb3VBsbptVqxrWmY9RHutqikBVFezFwMVsd2xQXyRwpsmLd8jxPzpS_D4_52vBnvBdEvTrCGL75aNX2Rg0_igUy7XtQtI-sD-_3-rHEAU6duszP8aYDtj625DZeoqmS4J1I73-_cwA8h-ddUDwGqQZVcofwun4IY-HW0xFvfVfszkzj39rA_U4Ylu3]--></g></svg>