<?xml version="1.0" encoding="us-ascii" standalone="no"?><svg xmlns="http://www.w3.org/2000/svg" xmlns:xlink="http://www.w3.org/1999/xlink" contentStyleType="text/css" height="2057px" preserveAspectRatio="none" style="width:912px;height:2057px;background:#FFFFFF;" version="1.1" viewBox="0 0 912 2057" width="912px" zoomAndPan="magnify"><defs><filter height="300%" id="f1knuvjw57m60o" width="300%" x="-1" y="-1"><feGaussianBlur result="blurOut" stdDeviation="2.0"/><feColorMatrix in="blurOut" result="blurOut2" type="matrix" values="0 0 0 0 0 0 0 0 0 0 0 0 0 0 0 0 0 0 .4 0"/><feOffset dx="4.0" dy="4.0" in="blurOut2" result="blurOut3"/><feBlend in="SourceGraphic" in2="blurOut3" mode="normal"/></filter></defs><g><text fill="#000000" font-family="sans-serif" font-size="14" font-weight="bold" lengthAdjust="spacing" textLength="330" x="284" y="26.5332">InsightIQ - System Architecture (Class Diagram)</text><!--cluster Domain Models--><g id="cluster_Domain Models"><rect fill="#E3F2FD" filter="url(#f1knuvjw57m60o)" height="517" rx="2.5" ry="2.5" style="stroke:#000000;stroke-width:1.5;" width="291.5" x="7" y="1528.6094"/><text fill="#000000" font-family="sans-serif" font-size="10" font-weight="bold" lengthAdjust="spacing" textLength="76" x="114.75" y="1542.9902">Domain Models</text></g><!--cluster Controllers--><g id="cluster_Controllers"><rect fill="#C8E6C9" filter="url(#f1knuvjw57m60o)" height="514" rx="2.5" ry="2.5" style="stroke:#000000;stroke-width:1.5;" width="306.5" x="9.5" y="49.6094"/><text fill="#000000" font-family="sans-serif" font-size="10" font-weight="bold" lengthAdjust="spacing" textLength="54" x="135.75" y="63.9902">Controllers</text></g><!--cluster Services--><g id="cluster_Services"><rect fill="#FFF9C4" filter="url(#f1knuvjw57m60o)" height="509" rx="2.5" ry="2.5" style="stroke:#000000;stroke-width:1.5;" width="463.5" x="189.5" y="587.6094"/><text fill="#000000" font-family="sans-serif" font-size="10" font-weight="bold" lengthAdjust="spacing" textLength="45" x="398.75" y="601.9902">Services</text></g><!--cluster Repositories--><g id="cluster_Repositories"><rect fill="#FFCDD2" filter="url(#f1knuvjw57m60o)" height="337" rx="2.5" ry="2.5" style="stroke:#000000;stroke-width:1.5;" width="310" x="345" y="1120.6094"/><text fill="#000000" font-family="sans-serif" font-size="10" font-weight="bold" lengthAdjust="spacing" textLength="62" x="469" y="1134.9902">Repositories</text></g><!--cluster Infrastructure--><g id="cluster_Infrastructure"><rect fill="#ECEFF1" filter="url(#f1knuvjw57m60o)" height="230" rx="2.5" ry="2.5" style="stroke:#000000;stroke-width:1.5;" width="221" x="679" y="1120.6094"/><text fill="#000000" font-family="sans-serif" font-size="10" font-weight="bold" lengthAdjust="spacing" textLength="66" x="756.5" y="1134.9902">Infrastructure</text></g><!--class User--><g id="elem_User"><rect codeLine="29" fill="#FFFFFF" filter="url(#f1knuvjw57m60o)" height="141.0156" id="User" rx="2.5" ry="2.5" style="stroke:#000000;stroke-width:1.5;" width="115" x="23" y="1564.1094"/><ellipse cx="59.85" cy="1584.4297" fill="#ADD1B2" rx="9" ry="9" style="stroke:#181818;stroke-width:1.0;"/><path d="M61.4594,1582.3359 Q61.5531,1582.2109 61.6469,1582.1641 Q61.7406,1582.1016 61.8656,1582.1016 Q62.0531,1582.1016 62.1781,1582.2422 Q62.3031,1582.3828 62.3031,1582.6953 L62.3031,1583.4609 Q62.3031,1583.7891 62.1781,1583.9297 Q62.0531,1584.0703 61.8656,1584.0703 Q61.6781,1584.0703 61.5688,1583.9609 Q61.4594,1583.8672 61.4125,1583.5859 Q61.3813,1583.3984 61.2875,1583.3047 Q61.1,1583.1016 60.7719,1582.9922 Q60.4594,1582.8672 60.1313,1582.8672 Q59.725,1582.8672 59.3813,1583.0547 Q59.0531,1583.2266 58.7875,1583.6172 Q58.5375,1584.0078 58.5375,1584.5547 L58.5375,1585.1328 Q58.5375,1585.7891 59.0063,1586.2266 Q59.475,1586.6641 60.3188,1586.6641 Q60.8188,1586.6641 61.1625,1586.5234 Q61.3656,1586.4453 61.6,1586.2109 Q61.7406,1586.0703 61.8188,1586.0391 Q61.8969,1585.9922 61.9906,1585.9922 Q62.1781,1585.9922 62.3031,1586.1328 Q62.4438,1586.2578 62.4438,1586.4453 Q62.4438,1586.6328 62.2563,1586.8359 Q61.9906,1587.1484 61.5688,1587.3203 Q61.0063,1587.5547 60.3188,1587.5547 Q59.5219,1587.5547 58.8813,1587.2266 Q58.3656,1586.9609 57.9906,1586.3984 Q57.6313,1585.8359 57.6313,1585.1641 L57.6313,1584.5391 Q57.6313,1583.8359 57.9594,1583.2422 Q58.2875,1582.6328 58.8656,1582.3047 Q59.4438,1581.9609 60.1,1581.9609 Q60.4906,1581.9609 60.8188,1582.0547 Q61.1625,1582.1484 61.4594,1582.3359 Z " fill="#000000"/><text fill="#000000" font-family="sans-serif" font-size="9" font-style="italic" lengthAdjust="spacing" textLength="34" x="77.15" y="1580.4521">&#171;Entity&#187;</text><text fill="#000000" font-family="sans-serif" font-size="9" lengthAdjust="spacing" textLength="20" x="84.15" y="1595.7725">User</text><line style="stroke:#000000;stroke-width:1.5;" x1="24" x2="137" y1="1604.75" y2="1604.75"/><text fill="#000000" font-family="sans-serif" font-size="8" lengthAdjust="spacing" textLength="35" x="31" y="1619.0547">+id: UUID</text><text fill="#000000" font-family="sans-serif" font-size="8" lengthAdjust="spacing" textLength="62" x="31" y="1633.1172">+username: string</text><text fill="#000000" font-family="sans-serif" font-size="8" lengthAdjust="spacing" textLength="47" x="31" y="1647.1797">+email: string</text><text fill="#000000" font-family="sans-serif" font-size="8" lengthAdjust="spacing" textLength="55" x="31" y="1661.2422">+role: UserRole</text><line style="stroke:#000000;stroke-width:1.5;" x1="24" x2="137" y1="1669" y2="1669"/><text fill="#000000" font-family="sans-serif" font-size="8" lengthAdjust="spacing" textLength="99" x="31" y="1683.3047">+validatePassword(): boolean</text><text fill="#000000" font-family="sans-serif" font-size="8" lengthAdjust="spacing" textLength="91" x="31" y="1697.3672">+hasPermission(): boolean</text></g><!--class Dashboard--><g id="elem_Dashboard"><rect codeLine="39" fill="#FFFFFF" filter="url(#f1knuvjw57m60o)" height="112.8906" id="Dashboard" rx="2.5" ry="2.5" style="stroke:#000000;stroke-width:1.5;" width="80" x="201.5" y="1730.1094"/><ellipse cx="215.85" cy="1750.4297" fill="#ADD1B2" rx="9" ry="9" style="stroke:#181818;stroke-width:1.0;"/><path d="M217.4594,1748.3359 Q217.5531,1748.2109 217.6469,1748.1641 Q217.7406,1748.1016 217.8656,1748.1016 Q218.0531,1748.1016 218.1781,1748.2422 Q218.3031,1748.3828 218.3031,1748.6953 L218.3031,1749.4609 Q218.3031,1749.7891 218.1781,1749.9297 Q218.0531,1750.0703 217.8656,1750.0703 Q217.6781,1750.0703 217.5688,1749.9609 Q217.4594,1749.8672 217.4125,1749.5859 Q217.3813,1749.3984 217.2875,1749.3047 Q217.1,1749.1016 216.7719,1748.9922 Q216.4594,1748.8672 216.1313,1748.8672 Q215.725,1748.8672 215.3813,1749.0547 Q215.0531,1749.2266 214.7875,1749.6172 Q214.5375,1750.0078 214.5375,1750.5547 L214.5375,1751.1328 Q214.5375,1751.7891 215.0063,1752.2266 Q215.475,1752.6641 216.3188,1752.6641 Q216.8188,1752.6641 217.1625,1752.5234 Q217.3656,1752.4453 217.6,1752.2109 Q217.7406,1752.0703 217.8188,1752.0391 Q217.8969,1751.9922 217.9906,1751.9922 Q218.1781,1751.9922 218.3031,1752.1328 Q218.4438,1752.2578 218.4438,1752.4453 Q218.4438,1752.6328 218.2563,1752.8359 Q217.9906,1753.1484 217.5688,1753.3203 Q217.0063,1753.5547 216.3188,1753.5547 Q215.5219,1753.5547 214.8813,1753.2266 Q214.3656,1752.9609 213.9906,1752.3984 Q213.6313,1751.8359 213.6313,1751.1641 L213.6313,1750.5391 Q213.6313,1749.8359 213.9594,1749.2422 Q214.2875,1748.6328 214.8656,1748.3047 Q215.4438,1747.9609 216.1,1747.9609 Q216.4906,1747.9609 216.8188,1748.0547 Q217.1625,1748.1484 217.4594,1748.3359 Z " fill="#000000"/><text fill="#000000" font-family="sans-serif" font-size="9" font-style="italic" lengthAdjust="spacing" textLength="34" x="235.65" y="1746.4521">&#171;Entity&#187;</text><text fill="#000000" font-family="sans-serif" font-size="9" lengthAdjust="spacing" textLength="45" x="230.15" y="1761.7725">Dashboard</text><line style="stroke:#000000;stroke-width:1.5;" x1="202.5" x2="280.5" y1="1770.75" y2="1770.75"/><text fill="#000000" font-family="sans-serif" font-size="8" lengthAdjust="spacing" textLength="35" x="209.5" y="1785.0547">+id: UUID</text><text fill="#000000" font-family="sans-serif" font-size="8" lengthAdjust="spacing" textLength="47" x="209.5" y="1799.1172">+name: string</text><line style="stroke:#000000;stroke-width:1.5;" x1="202.5" x2="280.5" y1="1806.875" y2="1806.875"/><text fill="#000000" font-family="sans-serif" font-size="8" lengthAdjust="spacing" textLength="64" x="209.5" y="1821.1797">+addWidget(): void</text><text fill="#000000" font-family="sans-serif" font-size="8" lengthAdjust="spacing" textLength="47" x="209.5" y="1835.2422">+share(): void</text></g><!--class Insight--><g id="elem_Insight"><rect codeLine="47" fill="#FFFFFF" filter="url(#f1knuvjw57m60o)" height="126.9531" id="Insight" rx="2.5" ry="2.5" style="stroke:#000000;stroke-width:1.5;" width="82" x="200.5" y="1568.1094"/><ellipse cx="222.5" cy="1588.4297" fill="#ADD1B2" rx="9" ry="9" style="stroke:#181818;stroke-width:1.0;"/><path d="M224.1094,1586.3359 Q224.2031,1586.2109 224.2969,1586.1641 Q224.3906,1586.1016 224.5156,1586.1016 Q224.7031,1586.1016 224.8281,1586.2422 Q224.9531,1586.3828 224.9531,1586.6953 L224.9531,1587.4609 Q224.9531,1587.7891 224.8281,1587.9297 Q224.7031,1588.0703 224.5156,1588.0703 Q224.3281,1588.0703 224.2188,1587.9609 Q224.1094,1587.8672 224.0625,1587.5859 Q224.0313,1587.3984 223.9375,1587.3047 Q223.75,1587.1016 223.4219,1586.9922 Q223.1094,1586.8672 222.7813,1586.8672 Q222.375,1586.8672 222.0313,1587.0547 Q221.7031,1587.2266 221.4375,1587.6172 Q221.1875,1588.0078 221.1875,1588.5547 L221.1875,1589.1328 Q221.1875,1589.7891 221.6563,1590.2266 Q222.125,1590.6641 222.9688,1590.6641 Q223.4688,1590.6641 223.8125,1590.5234 Q224.0156,1590.4453 224.25,1590.2109 Q224.3906,1590.0703 224.4688,1590.0391 Q224.5469,1589.9922 224.6406,1589.9922 Q224.8281,1589.9922 224.9531,1590.1328 Q225.0938,1590.2578 225.0938,1590.4453 Q225.0938,1590.6328 224.9063,1590.8359 Q224.6406,1591.1484 224.2188,1591.3203 Q223.6563,1591.5547 222.9688,1591.5547 Q222.1719,1591.5547 221.5313,1591.2266 Q221.0156,1590.9609 220.6406,1590.3984 Q220.2813,1589.8359 220.2813,1589.1641 L220.2813,1588.5391 Q220.2813,1587.8359 220.6094,1587.2422 Q220.9375,1586.6328 221.5156,1586.3047 Q222.0938,1585.9609 222.75,1585.9609 Q223.1406,1585.9609 223.4688,1586.0547 Q223.8125,1586.1484 224.1094,1586.3359 Z " fill="#000000"/><text fill="#000000" font-family="sans-serif" font-size="9" font-style="italic" lengthAdjust="spacing" textLength="34" x="236.5" y="1584.4521">&#171;Entity&#187;</text><text fill="#000000" font-family="sans-serif" font-size="9" lengthAdjust="spacing" textLength="28" x="239.5" y="1599.7725">Insight</text><line style="stroke:#000000;stroke-width:1.5;" x1="201.5" x2="281.5" y1="1608.75" y2="1608.75"/><text fill="#000000" font-family="sans-serif" font-size="8" lengthAdjust="spacing" textLength="35" x="208.5" y="1623.0547">+id: UUID</text><text fill="#000000" font-family="sans-serif" font-size="8" lengthAdjust="spacing" textLength="41" x="208.5" y="1637.1172">+title: string</text><text fill="#000000" font-family="sans-serif" font-size="8" lengthAdjust="spacing" textLength="61" x="208.5" y="1651.1797">+type: InsightType</text><line style="stroke:#000000;stroke-width:1.5;" x1="201.5" x2="281.5" y1="1658.9375" y2="1658.9375"/><text fill="#000000" font-family="sans-serif" font-size="8" lengthAdjust="spacing" textLength="66" x="208.5" y="1673.2422">+validate(): boolean</text><text fill="#000000" font-family="sans-serif" font-size="8" lengthAdjust="spacing" textLength="48" x="208.5" y="1687.3047">+export(): File</text></g><!--class Report--><g id="elem_Report"><rect codeLine="56" fill="#FFFFFF" filter="url(#f1knuvjw57m60o)" height="126.9531" id="Report" rx="2.5" ry="2.5" style="stroke:#000000;stroke-width:1.5;" width="93" x="34" y="1740.1094"/><ellipse cx="60.95" cy="1760.4297" fill="#ADD1B2" rx="9" ry="9" style="stroke:#181818;stroke-width:1.0;"/><path d="M62.5594,1758.3359 Q62.6531,1758.2109 62.7469,1758.1641 Q62.8406,1758.1016 62.9656,1758.1016 Q63.1531,1758.1016 63.2781,1758.2422 Q63.4031,1758.3828 63.4031,1758.6953 L63.4031,1759.4609 Q63.4031,1759.7891 63.2781,1759.9297 Q63.1531,1760.0703 62.9656,1760.0703 Q62.7781,1760.0703 62.6688,1759.9609 Q62.5594,1759.8672 62.5125,1759.5859 Q62.4813,1759.3984 62.3875,1759.3047 Q62.2,1759.1016 61.8719,1758.9922 Q61.5594,1758.8672 61.2313,1758.8672 Q60.825,1758.8672 60.4813,1759.0547 Q60.1531,1759.2266 59.8875,1759.6172 Q59.6375,1760.0078 59.6375,1760.5547 L59.6375,1761.1328 Q59.6375,1761.7891 60.1063,1762.2266 Q60.575,1762.6641 61.4188,1762.6641 Q61.9188,1762.6641 62.2625,1762.5234 Q62.4656,1762.4453 62.7,1762.2109 Q62.8406,1762.0703 62.9188,1762.0391 Q62.9969,1761.9922 63.0906,1761.9922 Q63.2781,1761.9922 63.4031,1762.1328 Q63.5438,1762.2578 63.5438,1762.4453 Q63.5438,1762.6328 63.3563,1762.8359 Q63.0906,1763.1484 62.6688,1763.3203 Q62.1063,1763.5547 61.4188,1763.5547 Q60.6219,1763.5547 59.9813,1763.2266 Q59.4656,1762.9609 59.0906,1762.3984 Q58.7313,1761.8359 58.7313,1761.1641 L58.7313,1760.5391 Q58.7313,1759.8359 59.0594,1759.2422 Q59.3875,1758.6328 59.9656,1758.3047 Q60.5438,1757.9609 61.2,1757.9609 Q61.5906,1757.9609 61.9188,1758.0547 Q62.2625,1758.1484 62.5594,1758.3359 Z " fill="#000000"/><text fill="#000000" font-family="sans-serif" font-size="9" font-style="italic" lengthAdjust="spacing" textLength="34" x="76.05" y="1756.4521">&#171;Entity&#187;</text><text fill="#000000" font-family="sans-serif" font-size="9" lengthAdjust="spacing" textLength="28" x="79.05" y="1771.7725">Report</text><line style="stroke:#000000;stroke-width:1.5;" x1="35" x2="126" y1="1780.75" y2="1780.75"/><text fill="#000000" font-family="sans-serif" font-size="8" lengthAdjust="spacing" textLength="35" x="42" y="1795.0547">+id: UUID</text><text fill="#000000" font-family="sans-serif" font-size="8" lengthAdjust="spacing" textLength="47" x="42" y="1809.1172">+name: string</text><text fill="#000000" font-family="sans-serif" font-size="8" lengthAdjust="spacing" textLength="77" x="42" y="1823.1797">+format: ReportFormat</text><line style="stroke:#000000;stroke-width:1.5;" x1="35" x2="126" y1="1830.9375" y2="1830.9375"/><text fill="#000000" font-family="sans-serif" font-size="8" lengthAdjust="spacing" textLength="58" x="42" y="1845.2422">+generate(): File</text><text fill="#000000" font-family="sans-serif" font-size="8" lengthAdjust="spacing" textLength="44" x="42" y="1859.3047">+send(): void</text></g><!--class DataSource--><g id="elem_DataSource"><rect codeLine="65" fill="#FFFFFF" filter="url(#f1knuvjw57m60o)" height="126.9531" id="DataSource" rx="2.5" ry="2.5" style="stroke:#000000;stroke-width:1.5;" width="104" x="28.5" y="1902.1094"/><ellipse cx="51.85" cy="1922.4297" fill="#ADD1B2" rx="9" ry="9" style="stroke:#181818;stroke-width:1.0;"/><path d="M53.4594,1920.3359 Q53.5531,1920.2109 53.6469,1920.1641 Q53.7406,1920.1016 53.8656,1920.1016 Q54.0531,1920.1016 54.1781,1920.2422 Q54.3031,1920.3828 54.3031,1920.6953 L54.3031,1921.4609 Q54.3031,1921.7891 54.1781,1921.9297 Q54.0531,1922.0703 53.8656,1922.0703 Q53.6781,1922.0703 53.5688,1921.9609 Q53.4594,1921.8672 53.4125,1921.5859 Q53.3813,1921.3984 53.2875,1921.3047 Q53.1,1921.1016 52.7719,1920.9922 Q52.4594,1920.8672 52.1313,1920.8672 Q51.725,1920.8672 51.3813,1921.0547 Q51.0531,1921.2266 50.7875,1921.6172 Q50.5375,1922.0078 50.5375,1922.5547 L50.5375,1923.1328 Q50.5375,1923.7891 51.0063,1924.2266 Q51.475,1924.6641 52.3188,1924.6641 Q52.8188,1924.6641 53.1625,1924.5234 Q53.3656,1924.4453 53.6,1924.2109 Q53.7406,1924.0703 53.8188,1924.0391 Q53.8969,1923.9922 53.9906,1923.9922 Q54.1781,1923.9922 54.3031,1924.1328 Q54.4438,1924.2578 54.4438,1924.4453 Q54.4438,1924.6328 54.2563,1924.8359 Q53.9906,1925.1484 53.5688,1925.3203 Q53.0063,1925.5547 52.3188,1925.5547 Q51.5219,1925.5547 50.8813,1925.2266 Q50.3656,1924.9609 49.9906,1924.3984 Q49.6313,1923.8359 49.6313,1923.1641 L49.6313,1922.5391 Q49.6313,1921.8359 49.9594,1921.2422 Q50.2875,1920.6328 50.8656,1920.3047 Q51.4438,1919.9609 52.1,1919.9609 Q52.4906,1919.9609 52.8188,1920.0547 Q53.1625,1920.1484 53.4594,1920.3359 Z " fill="#000000"/><text fill="#000000" font-family="sans-serif" font-size="9" font-style="italic" lengthAdjust="spacing" textLength="34" x="75.65" y="1918.4521">&#171;Entity&#187;</text><text fill="#000000" font-family="sans-serif" font-size="9" lengthAdjust="spacing" textLength="49" x="68.15" y="1933.7725">DataSource</text><line style="stroke:#000000;stroke-width:1.5;" x1="29.5" x2="131.5" y1="1942.75" y2="1942.75"/><text fill="#000000" font-family="sans-serif" font-size="8" lengthAdjust="spacing" textLength="35" x="36.5" y="1957.0547">+id: UUID</text><text fill="#000000" font-family="sans-serif" font-size="8" lengthAdjust="spacing" textLength="78" x="36.5" y="1971.1172">+type: DataSourceType</text><text fill="#000000" font-family="sans-serif" font-size="8" lengthAdjust="spacing" textLength="88" x="36.5" y="1985.1797">+status: ConnectionStatus</text><line style="stroke:#000000;stroke-width:1.5;" x1="29.5" x2="131.5" y1="1992.9375" y2="1992.9375"/><text fill="#000000" font-family="sans-serif" font-size="8" lengthAdjust="spacing" textLength="67" x="36.5" y="2007.2422">+connect(): boolean</text><text fill="#000000" font-family="sans-serif" font-size="8" lengthAdjust="spacing" textLength="80" x="36.5" y="2021.3047">+fetchData(): ResultSet</text></g><!--class BaseController--><g id="elem_BaseController"><rect codeLine="81" fill="#FFFFFF" filter="url(#f1knuvjw57m60o)" height="72.125" id="BaseController" rx="2.5" ry="2.5" style="stroke:#000000;stroke-width:1.5;" width="110" x="25.5" y="347.6094"/><ellipse cx="46.15" cy="361.6094" fill="#A9DCDF" rx="9" ry="9" style="stroke:#181818;stroke-width:1.0;"/><path d="M47.9469,362.6563 L45.7594,362.6563 L45.5406,363.2031 L45.7594,363.2031 Q46.0875,363.2031 46.2281,363.3281 Q46.3688,363.4531 46.3688,363.6563 Q46.3688,363.8594 46.2281,363.9844 Q46.0875,364.1094 45.7594,364.1094 L44.5563,364.1094 Q44.2281,364.1094 44.0875,363.9844 Q43.9469,363.8594 43.9469,363.6563 Q43.9469,363.4531 44.1031,363.3281 Q44.2438,363.2031 44.5719,363.2031 L45.9938,359.6875 L45.4,359.6875 Q45.0719,359.6875 44.9313,359.5625 Q44.7906,359.4375 44.7906,359.2344 Q44.7906,359.0313 44.9313,358.9063 Q45.0719,358.7813 45.4,358.7813 L47.3375,358.7813 L49.1344,363.2031 Q49.4469,363.2031 49.5563,363.2813 Q49.7594,363.4219 49.7594,363.6563 Q49.7594,363.8594 49.6188,363.9844 Q49.4781,364.1094 49.1656,364.1094 L47.9469,364.1094 Q47.6188,364.1094 47.4781,363.9844 Q47.3375,363.8594 47.3375,363.6563 Q47.3375,363.4531 47.4781,363.3281 Q47.6188,363.2031 47.9469,363.2031 L48.1656,363.2031 L47.9469,362.6563 Z M47.5719,361.7656 L46.8531,359.9688 L46.1188,361.7656 L47.5719,361.7656 Z " fill="#000000"/><text fill="#000000" font-family="sans-serif" font-size="9" font-style="italic" lengthAdjust="spacing" textLength="61" x="61.85" y="365.292">BaseController</text><line style="stroke:#000000;stroke-width:1.5;" x1="26.5" x2="134.5" y1="375.6094" y2="375.6094"/><line style="stroke:#000000;stroke-width:1.5;" x1="26.5" x2="134.5" y1="383.6094" y2="383.6094"/><text fill="#000000" font-family="sans-serif" font-size="8" font-style="italic" lengthAdjust="spacing" textLength="54" x="33.5" y="397.9141">#execute(): void</text><text fill="#000000" font-family="sans-serif" font-size="8" lengthAdjust="spacing" textLength="94" x="33.5" y="411.9766">#validateRequest(): boolean</text></g><!--class AuthController--><g id="elem_AuthController"><rect codeLine="86" fill="#FFFFFF" filter="url(#f1knuvjw57m60o)" height="86.1875" id="AuthController" rx="2.5" ry="2.5" style="stroke:#000000;stroke-width:1.5;" width="91" x="196" y="461.6094"/><ellipse cx="209" cy="475.6094" fill="#ADD1B2" rx="9" ry="9" style="stroke:#181818;stroke-width:1.0;"/><path d="M210.6094,473.5156 Q210.7031,473.3906 210.7969,473.3438 Q210.8906,473.2813 211.0156,473.2813 Q211.2031,473.2813 211.3281,473.4219 Q211.4531,473.5625 211.4531,473.875 L211.4531,474.6406 Q211.4531,474.9688 211.3281,475.1094 Q211.2031,475.25 211.0156,475.25 Q210.8281,475.25 210.7188,475.1406 Q210.6094,475.0469 210.5625,474.7656 Q210.5313,474.5781 210.4375,474.4844 Q210.25,474.2813 209.9219,474.1719 Q209.6094,474.0469 209.2813,474.0469 Q208.875,474.0469 208.5313,474.2344 Q208.2031,474.4063 207.9375,474.7969 Q207.6875,475.1875 207.6875,475.7344 L207.6875,476.3125 Q207.6875,476.9688 208.1563,477.4063 Q208.625,477.8438 209.4688,477.8438 Q209.9688,477.8438 210.3125,477.7031 Q210.5156,477.625 210.75,477.3906 Q210.8906,477.25 210.9688,477.2188 Q211.0469,477.1719 211.1406,477.1719 Q211.3281,477.1719 211.4531,477.3125 Q211.5938,477.4375 211.5938,477.625 Q211.5938,477.8125 211.4063,478.0156 Q211.1406,478.3281 210.7188,478.5 Q210.1563,478.7344 209.4688,478.7344 Q208.6719,478.7344 208.0313,478.4063 Q207.5156,478.1406 207.1406,477.5781 Q206.7813,477.0156 206.7813,476.3438 L206.7813,475.7188 Q206.7813,475.0156 207.1094,474.4219 Q207.4375,473.8125 208.0156,473.4844 Q208.5938,473.1406 209.25,473.1406 Q209.6406,473.1406 209.9688,473.2344 Q210.3125,473.3281 210.6094,473.5156 Z " fill="#000000"/><text fill="#000000" font-family="sans-serif" font-size="9" lengthAdjust="spacing" textLength="59" x="223" y="479.292">AuthController</text><line style="stroke:#000000;stroke-width:1.5;" x1="197" x2="286" y1="489.6094" y2="489.6094"/><line style="stroke:#000000;stroke-width:1.5;" x1="197" x2="286" y1="497.6094" y2="497.6094"/><text fill="#000000" font-family="sans-serif" font-size="8" lengthAdjust="spacing" textLength="52" x="204" y="511.9141">+login(): Token</text><text fill="#000000" font-family="sans-serif" font-size="8" lengthAdjust="spacing" textLength="49" x="204" y="525.9766">+logout(): void</text><text fill="#000000" font-family="sans-serif" font-size="8" lengthAdjust="spacing" textLength="59" x="204" y="540.0391">+register(): User</text></g><!--class InsightController--><g id="elem_InsightController"><rect codeLine="92" fill="#FFFFFF" filter="url(#f1knuvjw57m60o)" height="100.25" id="InsightController" rx="2.5" ry="2.5" style="stroke:#000000;stroke-width:1.5;" width="100" x="191.5" y="205.6094"/><ellipse cx="204.5" cy="219.6094" fill="#ADD1B2" rx="9" ry="9" style="stroke:#181818;stroke-width:1.0;"/><path d="M206.1094,217.5156 Q206.2031,217.3906 206.2969,217.3438 Q206.3906,217.2813 206.5156,217.2813 Q206.7031,217.2813 206.8281,217.4219 Q206.9531,217.5625 206.9531,217.875 L206.9531,218.6406 Q206.9531,218.9688 206.8281,219.1094 Q206.7031,219.25 206.5156,219.25 Q206.3281,219.25 206.2188,219.1406 Q206.1094,219.0469 206.0625,218.7656 Q206.0313,218.5781 205.9375,218.4844 Q205.75,218.2813 205.4219,218.1719 Q205.1094,218.0469 204.7813,218.0469 Q204.375,218.0469 204.0313,218.2344 Q203.7031,218.4063 203.4375,218.7969 Q203.1875,219.1875 203.1875,219.7344 L203.1875,220.3125 Q203.1875,220.9688 203.6563,221.4063 Q204.125,221.8438 204.9688,221.8438 Q205.4688,221.8438 205.8125,221.7031 Q206.0156,221.625 206.25,221.3906 Q206.3906,221.25 206.4688,221.2188 Q206.5469,221.1719 206.6406,221.1719 Q206.8281,221.1719 206.9531,221.3125 Q207.0938,221.4375 207.0938,221.625 Q207.0938,221.8125 206.9063,222.0156 Q206.6406,222.3281 206.2188,222.5 Q205.6563,222.7344 204.9688,222.7344 Q204.1719,222.7344 203.5313,222.4063 Q203.0156,222.1406 202.6406,221.5781 Q202.2813,221.0156 202.2813,220.3438 L202.2813,219.7188 Q202.2813,219.0156 202.6094,218.4219 Q202.9375,217.8125 203.5156,217.4844 Q204.0938,217.1406 204.75,217.1406 Q205.1406,217.1406 205.4688,217.2344 Q205.8125,217.3281 206.1094,217.5156 Z " fill="#000000"/><text fill="#000000" font-family="sans-serif" font-size="9" lengthAdjust="spacing" textLength="68" x="218.5" y="223.292">InsightController</text><line style="stroke:#000000;stroke-width:1.5;" x1="192.5" x2="290.5" y1="233.6094" y2="233.6094"/><line style="stroke:#000000;stroke-width:1.5;" x1="192.5" x2="290.5" y1="241.6094" y2="241.6094"/><text fill="#000000" font-family="sans-serif" font-size="8" lengthAdjust="spacing" textLength="62" x="199.5" y="255.9141">+getAll(): Insight[]</text><text fill="#000000" font-family="sans-serif" font-size="8" lengthAdjust="spacing" textLength="59" x="199.5" y="269.9766">+create(): Insight</text><text fill="#000000" font-family="sans-serif" font-size="8" lengthAdjust="spacing" textLength="60" x="199.5" y="284.0391">+update(): Insight</text><text fill="#000000" font-family="sans-serif" font-size="8" lengthAdjust="spacing" textLength="61" x="199.5" y="298.1016">+delete(): boolean</text></g><!--class DashboardController--><g id="elem_DashboardController"><rect codeLine="99" fill="#FFFFFF" filter="url(#f1knuvjw57m60o)" height="86.1875" id="DashboardController" rx="2.5" ry="2.5" style="stroke:#000000;stroke-width:1.5;" width="117" x="183" y="340.6094"/><ellipse cx="196" cy="354.6094" fill="#ADD1B2" rx="9" ry="9" style="stroke:#181818;stroke-width:1.0;"/><path d="M197.6094,352.5156 Q197.7031,352.3906 197.7969,352.3438 Q197.8906,352.2813 198.0156,352.2813 Q198.2031,352.2813 198.3281,352.4219 Q198.4531,352.5625 198.4531,352.875 L198.4531,353.6406 Q198.4531,353.9688 198.3281,354.1094 Q198.2031,354.25 198.0156,354.25 Q197.8281,354.25 197.7188,354.1406 Q197.6094,354.0469 197.5625,353.7656 Q197.5313,353.5781 197.4375,353.4844 Q197.25,353.2813 196.9219,353.1719 Q196.6094,353.0469 196.2813,353.0469 Q195.875,353.0469 195.5313,353.2344 Q195.2031,353.4063 194.9375,353.7969 Q194.6875,354.1875 194.6875,354.7344 L194.6875,355.3125 Q194.6875,355.9688 195.1563,356.4063 Q195.625,356.8438 196.4688,356.8438 Q196.9688,356.8438 197.3125,356.7031 Q197.5156,356.625 197.75,356.3906 Q197.8906,356.25 197.9688,356.2188 Q198.0469,356.1719 198.1406,356.1719 Q198.3281,356.1719 198.4531,356.3125 Q198.5938,356.4375 198.5938,356.625 Q198.5938,356.8125 198.4063,357.0156 Q198.1406,357.3281 197.7188,357.5 Q197.1563,357.7344 196.4688,357.7344 Q195.6719,357.7344 195.0313,357.4063 Q194.5156,357.1406 194.1406,356.5781 Q193.7813,356.0156 193.7813,355.3438 L193.7813,354.7188 Q193.7813,354.0156 194.1094,353.4219 Q194.4375,352.8125 195.0156,352.4844 Q195.5938,352.1406 196.25,352.1406 Q196.6406,352.1406 196.9688,352.2344 Q197.3125,352.3281 197.6094,352.5156 Z " fill="#000000"/><text fill="#000000" font-family="sans-serif" font-size="9" lengthAdjust="spacing" textLength="85" x="210" y="358.292">DashboardController</text><line style="stroke:#000000;stroke-width:1.5;" x1="184" x2="299" y1="368.6094" y2="368.6094"/><line style="stroke:#000000;stroke-width:1.5;" x1="184" x2="299" y1="376.6094" y2="376.6094"/><text fill="#000000" font-family="sans-serif" font-size="8" lengthAdjust="spacing" textLength="76" x="191" y="390.9141">+getAll(): Dashboard[]</text><text fill="#000000" font-family="sans-serif" font-size="8" lengthAdjust="spacing" textLength="73" x="191" y="404.9766">+create(): Dashboard</text><text fill="#000000" font-family="sans-serif" font-size="8" lengthAdjust="spacing" textLength="75" x="191" y="419.0391">+addWidget(): Widget</text></g><!--class ReportController--><g id="elem_ReportController"><rect codeLine="105" fill="#FFFFFF" filter="url(#f1knuvjw57m60o)" height="86.1875" id="ReportController" rx="2.5" ry="2.5" style="stroke:#000000;stroke-width:1.5;" width="100" x="191.5" y="84.6094"/><ellipse cx="204.5" cy="98.6094" fill="#ADD1B2" rx="9" ry="9" style="stroke:#181818;stroke-width:1.0;"/><path d="M206.1094,96.5156 Q206.2031,96.3906 206.2969,96.3438 Q206.3906,96.2813 206.5156,96.2813 Q206.7031,96.2813 206.8281,96.4219 Q206.9531,96.5625 206.9531,96.875 L206.9531,97.6406 Q206.9531,97.9688 206.8281,98.1094 Q206.7031,98.25 206.5156,98.25 Q206.3281,98.25 206.2188,98.1406 Q206.1094,98.0469 206.0625,97.7656 Q206.0313,97.5781 205.9375,97.4844 Q205.75,97.2813 205.4219,97.1719 Q205.1094,97.0469 204.7813,97.0469 Q204.375,97.0469 204.0313,97.2344 Q203.7031,97.4063 203.4375,97.7969 Q203.1875,98.1875 203.1875,98.7344 L203.1875,99.3125 Q203.1875,99.9688 203.6563,100.4063 Q204.125,100.8438 204.9688,100.8438 Q205.4688,100.8438 205.8125,100.7031 Q206.0156,100.625 206.25,100.3906 Q206.3906,100.25 206.4688,100.2188 Q206.5469,100.1719 206.6406,100.1719 Q206.8281,100.1719 206.9531,100.3125 Q207.0938,100.4375 207.0938,100.625 Q207.0938,100.8125 206.9063,101.0156 Q206.6406,101.3281 206.2188,101.5 Q205.6563,101.7344 204.9688,101.7344 Q204.1719,101.7344 203.5313,101.4063 Q203.0156,101.1406 202.6406,100.5781 Q202.2813,100.0156 202.2813,99.3438 L202.2813,98.7188 Q202.2813,98.0156 202.6094,97.4219 Q202.9375,96.8125 203.5156,96.4844 Q204.0938,96.1406 204.75,96.1406 Q205.1406,96.1406 205.4688,96.2344 Q205.8125,96.3281 206.1094,96.5156 Z " fill="#000000"/><text fill="#000000" font-family="sans-serif" font-size="9" lengthAdjust="spacing" textLength="68" x="218.5" y="102.292">ReportController</text><line style="stroke:#000000;stroke-width:1.5;" x1="192.5" x2="290.5" y1="112.6094" y2="112.6094"/><line style="stroke:#000000;stroke-width:1.5;" x1="192.5" x2="290.5" y1="120.6094" y2="120.6094"/><text fill="#000000" font-family="sans-serif" font-size="8" lengthAdjust="spacing" textLength="58" x="199.5" y="134.9141">+generate(): File</text><text fill="#000000" font-family="sans-serif" font-size="8" lengthAdjust="spacing" textLength="58" x="199.5" y="148.9766">+schedule(): void</text><text fill="#000000" font-family="sans-serif" font-size="8" lengthAdjust="spacing" textLength="59" x="199.5" y="163.0391">+download(): File</text></g><!--class IService--><g id="elem_IService"><rect codeLine="123" fill="#FFFFFF" filter="url(#f1knuvjw57m60o)" height="72.125" id="IService" rx="2.5" ry="2.5" style="stroke:#000000;stroke-width:1.5;" width="72" x="205.5" y="773.6094"/><ellipse cx="221.2" cy="787.6094" fill="#B4A7E5" rx="9" ry="9" style="stroke:#181818;stroke-width:1.0;"/><path d="M222.8563,786.1875 L222.8563,789.7031 L223.7625,789.7031 Q224.0906,789.7031 224.2156,789.8281 Q224.3563,789.9531 224.3563,790.1563 Q224.3563,790.3594 224.2156,790.4844 Q224.0906,790.6094 223.7625,790.6094 L221.0438,790.6094 Q220.7156,790.6094 220.575,790.4844 Q220.4344,790.3594 220.4344,790.1563 Q220.4344,789.9531 220.575,789.8281 Q220.7156,789.7031 221.0438,789.7031 L221.95,789.7031 L221.95,786.1875 L221.0438,786.1875 Q220.7156,786.1875 220.575,786.0625 Q220.4344,785.9375 220.4344,785.7344 Q220.4344,785.5313 220.575,785.4063 Q220.7156,785.2813 221.0438,785.2813 L223.7625,785.2813 Q224.0906,785.2813 224.2156,785.4063 Q224.3563,785.5313 224.3563,785.7344 Q224.3563,785.9375 224.2156,786.0625 Q224.0906,786.1875 223.7625,786.1875 L222.8563,786.1875 Z " fill="#000000"/><text fill="#000000" font-family="sans-serif" font-size="9" font-style="italic" lengthAdjust="spacing" textLength="34" x="235.8" y="791.292">IService</text><line style="stroke:#000000;stroke-width:1.5;" x1="206.5" x2="276.5" y1="801.6094" y2="801.6094"/><line style="stroke:#000000;stroke-width:1.5;" x1="206.5" x2="276.5" y1="809.6094" y2="809.6094"/><text fill="#000000" font-family="sans-serif" font-size="8" lengthAdjust="spacing" textLength="56" x="213.5" y="823.9141">+initialize(): void</text><text fill="#000000" font-family="sans-serif" font-size="8" lengthAdjust="spacing" textLength="52" x="213.5" y="837.9766">+destroy(): void</text></g><!--class AuthService--><g id="elem_AuthService"><rect codeLine="128" fill="#FFFFFF" filter="url(#f1knuvjw57m60o)" height="86.1875" id="AuthService" rx="2.5" ry="2.5" style="stroke:#000000;stroke-width:1.5;" width="100" x="358" y="994.6094"/><ellipse cx="378.65" cy="1008.6094" fill="#ADD1B2" rx="9" ry="9" style="stroke:#181818;stroke-width:1.0;"/><path d="M380.2594,1006.5156 Q380.3531,1006.3906 380.4469,1006.3438 Q380.5406,1006.2813 380.6656,1006.2813 Q380.8531,1006.2813 380.9781,1006.4219 Q381.1031,1006.5625 381.1031,1006.875 L381.1031,1007.6406 Q381.1031,1007.9688 380.9781,1008.1094 Q380.8531,1008.25 380.6656,1008.25 Q380.4781,1008.25 380.3688,1008.1406 Q380.2594,1008.0469 380.2125,1007.7656 Q380.1813,1007.5781 380.0875,1007.4844 Q379.9,1007.2813 379.5719,1007.1719 Q379.2594,1007.0469 378.9313,1007.0469 Q378.525,1007.0469 378.1813,1007.2344 Q377.8531,1007.4063 377.5875,1007.7969 Q377.3375,1008.1875 377.3375,1008.7344 L377.3375,1009.3125 Q377.3375,1009.9688 377.8063,1010.4063 Q378.275,1010.8438 379.1188,1010.8438 Q379.6188,1010.8438 379.9625,1010.7031 Q380.1656,1010.625 380.4,1010.3906 Q380.5406,1010.25 380.6188,1010.2188 Q380.6969,1010.1719 380.7906,1010.1719 Q380.9781,1010.1719 381.1031,1010.3125 Q381.2438,1010.4375 381.2438,1010.625 Q381.2438,1010.8125 381.0563,1011.0156 Q380.7906,1011.3281 380.3688,1011.5 Q379.8063,1011.7344 379.1188,1011.7344 Q378.3219,1011.7344 377.6813,1011.4063 Q377.1656,1011.1406 376.7906,1010.5781 Q376.4313,1010.0156 376.4313,1009.3438 L376.4313,1008.7188 Q376.4313,1008.0156 376.7594,1007.4219 Q377.0875,1006.8125 377.6656,1006.4844 Q378.2438,1006.1406 378.9,1006.1406 Q379.2906,1006.1406 379.6188,1006.2344 Q379.9625,1006.3281 380.2594,1006.5156 Z " fill="#000000"/><text fill="#000000" font-family="sans-serif" font-size="9" lengthAdjust="spacing" textLength="51" x="394.35" y="1012.292">AuthService</text><line style="stroke:#000000;stroke-width:1.5;" x1="359" x2="457" y1="1022.6094" y2="1022.6094"/><line style="stroke:#000000;stroke-width:1.5;" x1="359" x2="457" y1="1030.6094" y2="1030.6094"/><text fill="#000000" font-family="sans-serif" font-size="8" lengthAdjust="spacing" textLength="75" x="366" y="1044.9141">+authenticate(): Token</text><text fill="#000000" font-family="sans-serif" font-size="8" lengthAdjust="spacing" textLength="77" x="366" y="1058.9766">+validateToken(): User</text><text fill="#000000" font-family="sans-serif" font-size="8" lengthAdjust="spacing" textLength="84" x="366" y="1073.0391">+hashPassword(): string</text></g><!--class InsightService--><g id="elem_InsightService"><rect codeLine="134" fill="#FFFFFF" filter="url(#f1knuvjw57m60o)" height="86.1875" id="InsightService" rx="2.5" ry="2.5" style="stroke:#000000;stroke-width:1.5;" width="107" x="354.5" y="766.6094"/><ellipse cx="374.25" cy="780.6094" fill="#ADD1B2" rx="9" ry="9" style="stroke:#181818;stroke-width:1.0;"/><path d="M375.8594,778.5156 Q375.9531,778.3906 376.0469,778.3438 Q376.1406,778.2813 376.2656,778.2813 Q376.4531,778.2813 376.5781,778.4219 Q376.7031,778.5625 376.7031,778.875 L376.7031,779.6406 Q376.7031,779.9688 376.5781,780.1094 Q376.4531,780.25 376.2656,780.25 Q376.0781,780.25 375.9688,780.1406 Q375.8594,780.0469 375.8125,779.7656 Q375.7813,779.5781 375.6875,779.4844 Q375.5,779.2813 375.1719,779.1719 Q374.8594,779.0469 374.5313,779.0469 Q374.125,779.0469 373.7813,779.2344 Q373.4531,779.4063 373.1875,779.7969 Q372.9375,780.1875 372.9375,780.7344 L372.9375,781.3125 Q372.9375,781.9688 373.4063,782.4063 Q373.875,782.8438 374.7188,782.8438 Q375.2188,782.8438 375.5625,782.7031 Q375.7656,782.625 376,782.3906 Q376.1406,782.25 376.2188,782.2188 Q376.2969,782.1719 376.3906,782.1719 Q376.5781,782.1719 376.7031,782.3125 Q376.8438,782.4375 376.8438,782.625 Q376.8438,782.8125 376.6563,783.0156 Q376.3906,783.3281 375.9688,783.5 Q375.4063,783.7344 374.7188,783.7344 Q373.9219,783.7344 373.2813,783.4063 Q372.7656,783.1406 372.3906,782.5781 Q372.0313,782.0156 372.0313,781.3438 L372.0313,780.7188 Q372.0313,780.0156 372.3594,779.4219 Q372.6875,778.8125 373.2656,778.4844 Q373.8438,778.1406 374.5,778.1406 Q374.8906,778.1406 375.2188,778.2344 Q375.5625,778.3281 375.8594,778.5156 Z " fill="#000000"/><text fill="#000000" font-family="sans-serif" font-size="9" lengthAdjust="spacing" textLength="60" x="389.75" y="784.292">InsightService</text><line style="stroke:#000000;stroke-width:1.5;" x1="355.5" x2="460.5" y1="794.6094" y2="794.6094"/><line style="stroke:#000000;stroke-width:1.5;" x1="355.5" x2="460.5" y1="802.6094" y2="802.6094"/><text fill="#000000" font-family="sans-serif" font-size="8" lengthAdjust="spacing" textLength="82" x="362.5" y="816.9141">+createInsight(): Insight</text><text fill="#000000" font-family="sans-serif" font-size="8" lengthAdjust="spacing" textLength="91" x="362.5" y="830.9766">+generateInsight(): Insight</text><text fill="#000000" font-family="sans-serif" font-size="8" lengthAdjust="spacing" textLength="84" x="362.5" y="845.0391">+analyzeData(): Analysis</text></g><!--class DashboardService--><g id="elem_DashboardService"><rect codeLine="140" fill="#FFFFFF" filter="url(#f1knuvjw57m60o)" height="72.125" id="DashboardService" rx="2.5" ry="2.5" style="stroke:#000000;stroke-width:1.5;" width="126" x="345" y="887.6094"/><ellipse cx="365.65" cy="901.6094" fill="#ADD1B2" rx="9" ry="9" style="stroke:#181818;stroke-width:1.0;"/><path d="M367.2594,899.5156 Q367.3531,899.3906 367.4469,899.3438 Q367.5406,899.2813 367.6656,899.2813 Q367.8531,899.2813 367.9781,899.4219 Q368.1031,899.5625 368.1031,899.875 L368.1031,900.6406 Q368.1031,900.9688 367.9781,901.1094 Q367.8531,901.25 367.6656,901.25 Q367.4781,901.25 367.3688,901.1406 Q367.2594,901.0469 367.2125,900.7656 Q367.1813,900.5781 367.0875,900.4844 Q366.9,900.2813 366.5719,900.1719 Q366.2594,900.0469 365.9313,900.0469 Q365.525,900.0469 365.1813,900.2344 Q364.8531,900.4063 364.5875,900.7969 Q364.3375,901.1875 364.3375,901.7344 L364.3375,902.3125 Q364.3375,902.9688 364.8063,903.4063 Q365.275,903.8438 366.1188,903.8438 Q366.6188,903.8438 366.9625,903.7031 Q367.1656,903.625 367.4,903.3906 Q367.5406,903.25 367.6188,903.2188 Q367.6969,903.1719 367.7906,903.1719 Q367.9781,903.1719 368.1031,903.3125 Q368.2438,903.4375 368.2438,903.625 Q368.2438,903.8125 368.0563,904.0156 Q367.7906,904.3281 367.3688,904.5 Q366.8063,904.7344 366.1188,904.7344 Q365.3219,904.7344 364.6813,904.4063 Q364.1656,904.1406 363.7906,903.5781 Q363.4313,903.0156 363.4313,902.3438 L363.4313,901.7188 Q363.4313,901.0156 363.7594,900.4219 Q364.0875,899.8125 364.6656,899.4844 Q365.2438,899.1406 365.9,899.1406 Q366.2906,899.1406 366.6188,899.2344 Q366.9625,899.3281 367.2594,899.5156 Z " fill="#000000"/><text fill="#000000" font-family="sans-serif" font-size="9" lengthAdjust="spacing" textLength="77" x="381.35" y="905.292">DashboardService</text><line style="stroke:#000000;stroke-width:1.5;" x1="346" x2="470" y1="915.6094" y2="915.6094"/><line style="stroke:#000000;stroke-width:1.5;" x1="346" x2="470" y1="923.6094" y2="923.6094"/><text fill="#000000" font-family="sans-serif" font-size="8" lengthAdjust="spacing" textLength="110" x="353" y="937.9141">+createDashboard(): Dashboard</text><text fill="#000000" font-family="sans-serif" font-size="8" lengthAdjust="spacing" textLength="84" x="353" y="951.9766">+shareDashboard(): void</text></g><!--class AnalyticsService--><g id="elem_AnalyticsService"><rect codeLine="145" fill="#FFFFFF" filter="url(#f1knuvjw57m60o)" height="72.125" id="AnalyticsService" rx="2.5" ry="2.5" style="stroke:#000000;stroke-width:1.5;" width="119" x="518" y="698.6094"/><ellipse cx="538.2" cy="712.6094" fill="#ADD1B2" rx="9" ry="9" style="stroke:#181818;stroke-width:1.0;"/><path d="M539.8094,710.5156 Q539.9031,710.3906 539.9969,710.3438 Q540.0906,710.2813 540.2156,710.2813 Q540.4031,710.2813 540.5281,710.4219 Q540.6531,710.5625 540.6531,710.875 L540.6531,711.6406 Q540.6531,711.9688 540.5281,712.1094 Q540.4031,712.25 540.2156,712.25 Q540.0281,712.25 539.9188,712.1406 Q539.8094,712.0469 539.7625,711.7656 Q539.7313,711.5781 539.6375,711.4844 Q539.45,711.2813 539.1219,711.1719 Q538.8094,711.0469 538.4813,711.0469 Q538.075,711.0469 537.7313,711.2344 Q537.4031,711.4063 537.1375,711.7969 Q536.8875,712.1875 536.8875,712.7344 L536.8875,713.3125 Q536.8875,713.9688 537.3563,714.4063 Q537.825,714.8438 538.6688,714.8438 Q539.1688,714.8438 539.5125,714.7031 Q539.7156,714.625 539.95,714.3906 Q540.0906,714.25 540.1688,714.2188 Q540.2469,714.1719 540.3406,714.1719 Q540.5281,714.1719 540.6531,714.3125 Q540.7938,714.4375 540.7938,714.625 Q540.7938,714.8125 540.6063,715.0156 Q540.3406,715.3281 539.9188,715.5 Q539.3563,715.7344 538.6688,715.7344 Q537.8719,715.7344 537.2313,715.4063 Q536.7156,715.1406 536.3406,714.5781 Q535.9813,714.0156 535.9813,713.3438 L535.9813,712.7188 Q535.9813,712.0156 536.3094,711.4219 Q536.6375,710.8125 537.2156,710.4844 Q537.7938,710.1406 538.45,710.1406 Q538.8406,710.1406 539.1688,710.2344 Q539.5125,710.3281 539.8094,710.5156 Z " fill="#000000"/><text fill="#000000" font-family="sans-serif" font-size="9" lengthAdjust="spacing" textLength="71" x="553.8" y="716.292">AnalyticsService</text><line style="stroke:#000000;stroke-width:1.5;" x1="519" x2="636" y1="726.6094" y2="726.6094"/><line style="stroke:#000000;stroke-width:1.5;" x1="519" x2="636" y1="734.6094" y2="734.6094"/><text fill="#000000" font-family="sans-serif" font-size="8" lengthAdjust="spacing" textLength="93" x="526" y="748.9141">+calculateStatistics(): Stats</text><text fill="#000000" font-family="sans-serif" font-size="8" lengthAdjust="spacing" textLength="103" x="526" y="762.9766">+performRegression(): Result</text></g><!--class ReportService--><g id="elem_ReportService"><rect codeLine="150" fill="#FFFFFF" filter="url(#f1knuvjw57m60o)" height="72.125" id="ReportService" rx="2.5" ry="2.5" style="stroke:#000000;stroke-width:1.5;" width="97" x="359.5" y="659.6094"/><ellipse cx="374.75" cy="673.6094" fill="#ADD1B2" rx="9" ry="9" style="stroke:#181818;stroke-width:1.0;"/><path d="M376.3594,671.5156 Q376.4531,671.3906 376.5469,671.3438 Q376.6406,671.2813 376.7656,671.2813 Q376.9531,671.2813 377.0781,671.4219 Q377.2031,671.5625 377.2031,671.875 L377.2031,672.6406 Q377.2031,672.9688 377.0781,673.1094 Q376.9531,673.25 376.7656,673.25 Q376.5781,673.25 376.4688,673.1406 Q376.3594,673.0469 376.3125,672.7656 Q376.2813,672.5781 376.1875,672.4844 Q376,672.2813 375.6719,672.1719 Q375.3594,672.0469 375.0313,672.0469 Q374.625,672.0469 374.2813,672.2344 Q373.9531,672.4063 373.6875,672.7969 Q373.4375,673.1875 373.4375,673.7344 L373.4375,674.3125 Q373.4375,674.9688 373.9063,675.4063 Q374.375,675.8438 375.2188,675.8438 Q375.7188,675.8438 376.0625,675.7031 Q376.2656,675.625 376.5,675.3906 Q376.6406,675.25 376.7188,675.2188 Q376.7969,675.1719 376.8906,675.1719 Q377.0781,675.1719 377.2031,675.3125 Q377.3438,675.4375 377.3438,675.625 Q377.3438,675.8125 377.1563,676.0156 Q376.8906,676.3281 376.4688,676.5 Q375.9063,676.7344 375.2188,676.7344 Q374.4219,676.7344 373.7813,676.4063 Q373.2656,676.1406 372.8906,675.5781 Q372.5313,675.0156 372.5313,674.3438 L372.5313,673.7188 Q372.5313,673.0156 372.8594,672.4219 Q373.1875,671.8125 373.7656,671.4844 Q374.3438,671.1406 375,671.1406 Q375.3906,671.1406 375.7188,671.2344 Q376.0625,671.3281 376.3594,671.5156 Z " fill="#000000"/><text fill="#000000" font-family="sans-serif" font-size="9" lengthAdjust="spacing" textLength="60" x="389.25" y="677.292">ReportService</text><line style="stroke:#000000;stroke-width:1.5;" x1="360.5" x2="455.5" y1="687.6094" y2="687.6094"/><line style="stroke:#000000;stroke-width:1.5;" x1="360.5" x2="455.5" y1="695.6094" y2="695.6094"/><text fill="#000000" font-family="sans-serif" font-size="8" lengthAdjust="spacing" textLength="81" x="367.5" y="709.9141">+generateReport(): File</text><text fill="#000000" font-family="sans-serif" font-size="8" lengthAdjust="spacing" textLength="81" x="367.5" y="723.9766">+scheduleReport(): void</text></g><!--class IRepository--><g id="elem_IRepository"><rect codeLine="168" fill="#FFFFFF" filter="url(#f1knuvjw57m60o)" height="100.25" id="IRepository" rx="2.5" ry="2.5" style="stroke:#000000;stroke-width:1.5;" width="94" x="361" y="1248.6094"/><ellipse cx="374" cy="1262.6094" fill="#B4A7E5" rx="9" ry="9" style="stroke:#181818;stroke-width:1.0;"/><path d="M375.6563,1261.1875 L375.6563,1264.7031 L376.5625,1264.7031 Q376.8906,1264.7031 377.0156,1264.8281 Q377.1563,1264.9531 377.1563,1265.1563 Q377.1563,1265.3594 377.0156,1265.4844 Q376.8906,1265.6094 376.5625,1265.6094 L373.8438,1265.6094 Q373.5156,1265.6094 373.375,1265.4844 Q373.2344,1265.3594 373.2344,1265.1563 Q373.2344,1264.9531 373.375,1264.8281 Q373.5156,1264.7031 373.8438,1264.7031 L374.75,1264.7031 L374.75,1261.1875 L373.8438,1261.1875 Q373.5156,1261.1875 373.375,1261.0625 Q373.2344,1260.9375 373.2344,1260.7344 Q373.2344,1260.5313 373.375,1260.4063 Q373.5156,1260.2813 373.8438,1260.2813 L376.5625,1260.2813 Q376.8906,1260.2813 377.0156,1260.4063 Q377.1563,1260.5313 377.1563,1260.7344 Q377.1563,1260.9375 377.0156,1261.0625 Q376.8906,1261.1875 376.5625,1261.1875 L375.6563,1261.1875 Z " fill="#000000"/><text fill="#000000" font-family="sans-serif" font-size="9" font-style="italic" lengthAdjust="spacing" textLength="48" x="388" y="1266.292">IRepository</text><rect fill="#FFFFFF" height="17.3203" style="stroke:#000000;stroke-width:1.0;stroke-dasharray:2.0,2.0;" width="12" x="446" y="1245.6094"/><text fill="#000000" font-family="sans-serif" font-size="9" font-style="italic" lengthAdjust="spacing" textLength="6" x="449" y="1257.9521">T</text><line style="stroke:#000000;stroke-width:1.5;" x1="362" x2="454" y1="1276.6094" y2="1276.6094"/><line style="stroke:#000000;stroke-width:1.5;" x1="362" x2="454" y1="1284.6094" y2="1284.6094"/><text fill="#000000" font-family="sans-serif" font-size="8" lengthAdjust="spacing" textLength="58" x="369" y="1298.9141">+create(entity): T</text><text fill="#000000" font-family="sans-serif" font-size="8" lengthAdjust="spacing" textLength="52" x="369" y="1312.9766">+findById(id): T</text><text fill="#000000" font-family="sans-serif" font-size="8" lengthAdjust="spacing" textLength="66" x="369" y="1327.0391">+update(id, data): T</text><text fill="#000000" font-family="sans-serif" font-size="8" lengthAdjust="spacing" textLength="67" x="369" y="1341.1016">+delete(id): boolean</text></g><!--class UserRepository--><g id="elem_UserRepository"><rect codeLine="175" fill="#FFFFFF" filter="url(#f1knuvjw57m60o)" height="72.125" id="UserRepository" rx="2.5" ry="2.5" style="stroke:#000000;stroke-width:1.5;" width="103" x="526" y="1369.6094"/><ellipse cx="541.25" cy="1383.6094" fill="#ADD1B2" rx="9" ry="9" style="stroke:#181818;stroke-width:1.0;"/><path d="M542.8594,1381.5156 Q542.9531,1381.3906 543.0469,1381.3438 Q543.1406,1381.2813 543.2656,1381.2813 Q543.4531,1381.2813 543.5781,1381.4219 Q543.7031,1381.5625 543.7031,1381.875 L543.7031,1382.6406 Q543.7031,1382.9688 543.5781,1383.1094 Q543.4531,1383.25 543.2656,1383.25 Q543.0781,1383.25 542.9688,1383.1406 Q542.8594,1383.0469 542.8125,1382.7656 Q542.7813,1382.5781 542.6875,1382.4844 Q542.5,1382.2813 542.1719,1382.1719 Q541.8594,1382.0469 541.5313,1382.0469 Q541.125,1382.0469 540.7813,1382.2344 Q540.4531,1382.4063 540.1875,1382.7969 Q539.9375,1383.1875 539.9375,1383.7344 L539.9375,1384.3125 Q539.9375,1384.9688 540.4063,1385.4063 Q540.875,1385.8438 541.7188,1385.8438 Q542.2188,1385.8438 542.5625,1385.7031 Q542.7656,1385.625 543,1385.3906 Q543.1406,1385.25 543.2188,1385.2188 Q543.2969,1385.1719 543.3906,1385.1719 Q543.5781,1385.1719 543.7031,1385.3125 Q543.8438,1385.4375 543.8438,1385.625 Q543.8438,1385.8125 543.6563,1386.0156 Q543.3906,1386.3281 542.9688,1386.5 Q542.4063,1386.7344 541.7188,1386.7344 Q540.9219,1386.7344 540.2813,1386.4063 Q539.7656,1386.1406 539.3906,1385.5781 Q539.0313,1385.0156 539.0313,1384.3438 L539.0313,1383.7188 Q539.0313,1383.0156 539.3594,1382.4219 Q539.6875,1381.8125 540.2656,1381.4844 Q540.8438,1381.1406 541.5,1381.1406 Q541.8906,1381.1406 542.2188,1381.2344 Q542.5625,1381.3281 542.8594,1381.5156 Z " fill="#000000"/><text fill="#000000" font-family="sans-serif" font-size="9" lengthAdjust="spacing" textLength="66" x="555.75" y="1387.292">UserRepository</text><line style="stroke:#000000;stroke-width:1.5;" x1="527" x2="628" y1="1397.6094" y2="1397.6094"/><line style="stroke:#000000;stroke-width:1.5;" x1="527" x2="628" y1="1405.6094" y2="1405.6094"/><text fill="#000000" font-family="sans-serif" font-size="8" lengthAdjust="spacing" textLength="71" x="534" y="1419.9141">+findByEmail(): User</text><text fill="#000000" font-family="sans-serif" font-size="8" lengthAdjust="spacing" textLength="87" x="534" y="1433.9766">+findByUsername(): User</text></g><!--class InsightRepository--><g id="elem_InsightRepository"><rect codeLine="180" fill="#FFFFFF" filter="url(#f1knuvjw57m60o)" height="72.125" id="InsightRepository" rx="2.5" ry="2.5" style="stroke:#000000;stroke-width:1.5;" width="106" x="524.5" y="1155.6094"/><ellipse cx="537.5" cy="1169.6094" fill="#ADD1B2" rx="9" ry="9" style="stroke:#181818;stroke-width:1.0;"/><path d="M539.1094,1167.5156 Q539.2031,1167.3906 539.2969,1167.3438 Q539.3906,1167.2813 539.5156,1167.2813 Q539.7031,1167.2813 539.8281,1167.4219 Q539.9531,1167.5625 539.9531,1167.875 L539.9531,1168.6406 Q539.9531,1168.9688 539.8281,1169.1094 Q539.7031,1169.25 539.5156,1169.25 Q539.3281,1169.25 539.2188,1169.1406 Q539.1094,1169.0469 539.0625,1168.7656 Q539.0313,1168.5781 538.9375,1168.4844 Q538.75,1168.2813 538.4219,1168.1719 Q538.1094,1168.0469 537.7813,1168.0469 Q537.375,1168.0469 537.0313,1168.2344 Q536.7031,1168.4063 536.4375,1168.7969 Q536.1875,1169.1875 536.1875,1169.7344 L536.1875,1170.3125 Q536.1875,1170.9688 536.6563,1171.4063 Q537.125,1171.8438 537.9688,1171.8438 Q538.4688,1171.8438 538.8125,1171.7031 Q539.0156,1171.625 539.25,1171.3906 Q539.3906,1171.25 539.4688,1171.2188 Q539.5469,1171.1719 539.6406,1171.1719 Q539.8281,1171.1719 539.9531,1171.3125 Q540.0938,1171.4375 540.0938,1171.625 Q540.0938,1171.8125 539.9063,1172.0156 Q539.6406,1172.3281 539.2188,1172.5 Q538.6563,1172.7344 537.9688,1172.7344 Q537.1719,1172.7344 536.5313,1172.4063 Q536.0156,1172.1406 535.6406,1171.5781 Q535.2813,1171.0156 535.2813,1170.3438 L535.2813,1169.7188 Q535.2813,1169.0156 535.6094,1168.4219 Q535.9375,1167.8125 536.5156,1167.4844 Q537.0938,1167.1406 537.75,1167.1406 Q538.1406,1167.1406 538.4688,1167.2344 Q538.8125,1167.3281 539.1094,1167.5156 Z " fill="#000000"/><text fill="#000000" font-family="sans-serif" font-size="9" lengthAdjust="spacing" textLength="74" x="551.5" y="1173.292">InsightRepository</text><line style="stroke:#000000;stroke-width:1.5;" x1="525.5" x2="629.5" y1="1183.6094" y2="1183.6094"/><line style="stroke:#000000;stroke-width:1.5;" x1="525.5" x2="629.5" y1="1191.6094" y2="1191.6094"/><text fill="#000000" font-family="sans-serif" font-size="8" lengthAdjust="spacing" textLength="79" x="532.5" y="1205.9141">+findByUser(): Insight[]</text><text fill="#000000" font-family="sans-serif" font-size="8" lengthAdjust="spacing" textLength="78" x="532.5" y="1219.9766">+findByType(): Insight[]</text></g><!--class DashboardRepository--><g id="elem_DashboardRepository"><rect codeLine="185" fill="#FFFFFF" filter="url(#f1knuvjw57m60o)" height="72.125" id="DashboardRepository" rx="2.5" ry="2.5" style="stroke:#000000;stroke-width:1.5;" width="123" x="516" y="1262.6094"/><ellipse cx="529" cy="1276.6094" fill="#ADD1B2" rx="9" ry="9" style="stroke:#181818;stroke-width:1.0;"/><path d="M530.6094,1274.5156 Q530.7031,1274.3906 530.7969,1274.3438 Q530.8906,1274.2813 531.0156,1274.2813 Q531.2031,1274.2813 531.3281,1274.4219 Q531.4531,1274.5625 531.4531,1274.875 L531.4531,1275.6406 Q531.4531,1275.9688 531.3281,1276.1094 Q531.2031,1276.25 531.0156,1276.25 Q530.8281,1276.25 530.7188,1276.1406 Q530.6094,1276.0469 530.5625,1275.7656 Q530.5313,1275.5781 530.4375,1275.4844 Q530.25,1275.2813 529.9219,1275.1719 Q529.6094,1275.0469 529.2813,1275.0469 Q528.875,1275.0469 528.5313,1275.2344 Q528.2031,1275.4063 527.9375,1275.7969 Q527.6875,1276.1875 527.6875,1276.7344 L527.6875,1277.3125 Q527.6875,1277.9688 528.1563,1278.4063 Q528.625,1278.8438 529.4688,1278.8438 Q529.9688,1278.8438 530.3125,1278.7031 Q530.5156,1278.625 530.75,1278.3906 Q530.8906,1278.25 530.9688,1278.2188 Q531.0469,1278.1719 531.1406,1278.1719 Q531.3281,1278.1719 531.4531,1278.3125 Q531.5938,1278.4375 531.5938,1278.625 Q531.5938,1278.8125 531.4063,1279.0156 Q531.1406,1279.3281 530.7188,1279.5 Q530.1563,1279.7344 529.4688,1279.7344 Q528.6719,1279.7344 528.0313,1279.4063 Q527.5156,1279.1406 527.1406,1278.5781 Q526.7813,1278.0156 526.7813,1277.3438 L526.7813,1276.7188 Q526.7813,1276.0156 527.1094,1275.4219 Q527.4375,1274.8125 528.0156,1274.4844 Q528.5938,1274.1406 529.25,1274.1406 Q529.6406,1274.1406 529.9688,1274.2344 Q530.3125,1274.3281 530.6094,1274.5156 Z " fill="#000000"/><text fill="#000000" font-family="sans-serif" font-size="9" lengthAdjust="spacing" textLength="91" x="543" y="1280.292">DashboardRepository</text><line style="stroke:#000000;stroke-width:1.5;" x1="517" x2="638" y1="1290.6094" y2="1290.6094"/><line style="stroke:#000000;stroke-width:1.5;" x1="517" x2="638" y1="1298.6094" y2="1298.6094"/><text fill="#000000" font-family="sans-serif" font-size="8" lengthAdjust="spacing" textLength="93" x="524" y="1312.9141">+findByUser(): Dashboard[]</text><text fill="#000000" font-family="sans-serif" font-size="8" lengthAdjust="spacing" textLength="75" x="524" y="1326.9766">+addWidget(): Widget</text></g><!--class Database--><g id="elem_Database"><rect codeLine="201" fill="#FFFFFF" filter="url(#f1knuvjw57m60o)" height="72.125" id="Database" rx="2.5" ry="2.5" style="stroke:#000000;stroke-width:1.5;" width="83" x="695" y="1262.6094"/><ellipse cx="712.95" cy="1276.6094" fill="#ADD1B2" rx="9" ry="9" style="stroke:#181818;stroke-width:1.0;"/><path d="M714.5594,1274.5156 Q714.6531,1274.3906 714.7469,1274.3438 Q714.8406,1274.2813 714.9656,1274.2813 Q715.1531,1274.2813 715.2781,1274.4219 Q715.4031,1274.5625 715.4031,1274.875 L715.4031,1275.6406 Q715.4031,1275.9688 715.2781,1276.1094 Q715.1531,1276.25 714.9656,1276.25 Q714.7781,1276.25 714.6688,1276.1406 Q714.5594,1276.0469 714.5125,1275.7656 Q714.4813,1275.5781 714.3875,1275.4844 Q714.2,1275.2813 713.8719,1275.1719 Q713.5594,1275.0469 713.2313,1275.0469 Q712.825,1275.0469 712.4813,1275.2344 Q712.1531,1275.4063 711.8875,1275.7969 Q711.6375,1276.1875 711.6375,1276.7344 L711.6375,1277.3125 Q711.6375,1277.9688 712.1063,1278.4063 Q712.575,1278.8438 713.4188,1278.8438 Q713.9188,1278.8438 714.2625,1278.7031 Q714.4656,1278.625 714.7,1278.3906 Q714.8406,1278.25 714.9188,1278.2188 Q714.9969,1278.1719 715.0906,1278.1719 Q715.2781,1278.1719 715.4031,1278.3125 Q715.5438,1278.4375 715.5438,1278.625 Q715.5438,1278.8125 715.3563,1279.0156 Q715.0906,1279.3281 714.6688,1279.5 Q714.1063,1279.7344 713.4188,1279.7344 Q712.6219,1279.7344 711.9813,1279.4063 Q711.4656,1279.1406 711.0906,1278.5781 Q710.7313,1278.0156 710.7313,1277.3438 L710.7313,1276.7188 Q710.7313,1276.0156 711.0594,1275.4219 Q711.3875,1274.8125 711.9656,1274.4844 Q712.5438,1274.1406 713.2,1274.1406 Q713.5906,1274.1406 713.9188,1274.2344 Q714.2625,1274.3281 714.5594,1274.5156 Z " fill="#000000"/><text fill="#000000" font-family="sans-serif" font-size="9" lengthAdjust="spacing" textLength="40" x="728.05" y="1280.292">Database</text><line style="stroke:#000000;stroke-width:1.5;" x1="696" x2="777" y1="1290.6094" y2="1290.6094"/><line style="stroke:#000000;stroke-width:1.5;" x1="696" x2="777" y1="1298.6094" y2="1298.6094"/><text fill="#000000" font-family="sans-serif" font-size="8" lengthAdjust="spacing" textLength="67" x="703" y="1312.9141">+query(): ResultSet</text><text fill="#000000" font-family="sans-serif" font-size="8" lengthAdjust="spacing" textLength="65" x="703" y="1326.9766">+transaction(): void</text></g><!--class Logger--><g id="elem_Logger"><rect codeLine="206" fill="#FFFFFF" filter="url(#f1knuvjw57m60o)" height="72.125" id="Logger" rx="2.5" ry="2.5" style="stroke:#000000;stroke-width:1.5;" width="61" x="823" y="1262.6094"/><ellipse cx="836.45" cy="1276.6094" fill="#ADD1B2" rx="9" ry="9" style="stroke:#181818;stroke-width:1.0;"/><path d="M838.0594,1274.5156 Q838.1531,1274.3906 838.2469,1274.3438 Q838.3406,1274.2813 838.4656,1274.2813 Q838.6531,1274.2813 838.7781,1274.4219 Q838.9031,1274.5625 838.9031,1274.875 L838.9031,1275.6406 Q838.9031,1275.9688 838.7781,1276.1094 Q838.6531,1276.25 838.4656,1276.25 Q838.2781,1276.25 838.1688,1276.1406 Q838.0594,1276.0469 838.0125,1275.7656 Q837.9813,1275.5781 837.8875,1275.4844 Q837.7,1275.2813 837.3719,1275.1719 Q837.0594,1275.0469 836.7313,1275.0469 Q836.325,1275.0469 835.9813,1275.2344 Q835.6531,1275.4063 835.3875,1275.7969 Q835.1375,1276.1875 835.1375,1276.7344 L835.1375,1277.3125 Q835.1375,1277.9688 835.6063,1278.4063 Q836.075,1278.8438 836.9188,1278.8438 Q837.4188,1278.8438 837.7625,1278.7031 Q837.9656,1278.625 838.2,1278.3906 Q838.3406,1278.25 838.4188,1278.2188 Q838.4969,1278.1719 838.5906,1278.1719 Q838.7781,1278.1719 838.9031,1278.3125 Q839.0438,1278.4375 839.0438,1278.625 Q839.0438,1278.8125 838.8563,1279.0156 Q838.5906,1279.3281 838.1688,1279.5 Q837.6063,1279.7344 836.9188,1279.7344 Q836.1219,1279.7344 835.4813,1279.4063 Q834.9656,1279.1406 834.5906,1278.5781 Q834.2313,1278.0156 834.2313,1277.3438 L834.2313,1276.7188 Q834.2313,1276.0156 834.5594,1275.4219 Q834.8875,1274.8125 835.4656,1274.4844 Q836.0438,1274.1406 836.7,1274.1406 Q837.0906,1274.1406 837.4188,1274.2344 Q837.7625,1274.3281 838.0594,1274.5156 Z " fill="#000000"/><text fill="#000000" font-family="sans-serif" font-size="9" lengthAdjust="spacing" textLength="28" x="850.55" y="1280.292">Logger</text><line style="stroke:#000000;stroke-width:1.5;" x1="824" x2="883" y1="1290.6094" y2="1290.6094"/><line style="stroke:#000000;stroke-width:1.5;" x1="824" x2="883" y1="1298.6094" y2="1298.6094"/><text fill="#000000" font-family="sans-serif" font-size="8" lengthAdjust="spacing" textLength="40" x="831" y="1312.9141">+info(): void</text><text fill="#000000" font-family="sans-serif" font-size="8" lengthAdjust="spacing" textLength="45" x="831" y="1326.9766">+error(): void</text></g><!--class FileHandler--><g id="elem_FileHandler"><rect codeLine="211" fill="#FFFFFF" filter="url(#f1knuvjw57m60o)" height="72.125" id="FileHandler" rx="2.5" ry="2.5" style="stroke:#000000;stroke-width:1.5;" width="82" x="695.5" y="1155.6094"/><ellipse cx="709.85" cy="1169.6094" fill="#ADD1B2" rx="9" ry="9" style="stroke:#181818;stroke-width:1.0;"/><path d="M711.4594,1167.5156 Q711.5531,1167.3906 711.6469,1167.3438 Q711.7406,1167.2813 711.8656,1167.2813 Q712.0531,1167.2813 712.1781,1167.4219 Q712.3031,1167.5625 712.3031,1167.875 L712.3031,1168.6406 Q712.3031,1168.9688 712.1781,1169.1094 Q712.0531,1169.25 711.8656,1169.25 Q711.6781,1169.25 711.5688,1169.1406 Q711.4594,1169.0469 711.4125,1168.7656 Q711.3813,1168.5781 711.2875,1168.4844 Q711.1,1168.2813 710.7719,1168.1719 Q710.4594,1168.0469 710.1313,1168.0469 Q709.725,1168.0469 709.3813,1168.2344 Q709.0531,1168.4063 708.7875,1168.7969 Q708.5375,1169.1875 708.5375,1169.7344 L708.5375,1170.3125 Q708.5375,1170.9688 709.0063,1171.4063 Q709.475,1171.8438 710.3188,1171.8438 Q710.8188,1171.8438 711.1625,1171.7031 Q711.3656,1171.625 711.6,1171.3906 Q711.7406,1171.25 711.8188,1171.2188 Q711.8969,1171.1719 711.9906,1171.1719 Q712.1781,1171.1719 712.3031,1171.3125 Q712.4438,1171.4375 712.4438,1171.625 Q712.4438,1171.8125 712.2563,1172.0156 Q711.9906,1172.3281 711.5688,1172.5 Q711.0063,1172.7344 710.3188,1172.7344 Q709.5219,1172.7344 708.8813,1172.4063 Q708.3656,1172.1406 707.9906,1171.5781 Q707.6313,1171.0156 707.6313,1170.3438 L707.6313,1169.7188 Q707.6313,1169.0156 707.9594,1168.4219 Q708.2875,1167.8125 708.8656,1167.4844 Q709.4438,1167.1406 710.1,1167.1406 Q710.4906,1167.1406 710.8188,1167.2344 Q711.1625,1167.3281 711.4594,1167.5156 Z " fill="#000000"/><text fill="#000000" font-family="sans-serif" font-size="9" lengthAdjust="spacing" textLength="47" x="724.15" y="1173.292">FileHandler</text><line style="stroke:#000000;stroke-width:1.5;" x1="696.5" x2="776.5" y1="1183.6094" y2="1183.6094"/><line style="stroke:#000000;stroke-width:1.5;" x1="696.5" x2="776.5" y1="1191.6094" y2="1191.6094"/><text fill="#000000" font-family="sans-serif" font-size="8" lengthAdjust="spacing" textLength="57" x="703.5" y="1205.9141">+upload(): string</text><text fill="#000000" font-family="sans-serif" font-size="8" lengthAdjust="spacing" textLength="66" x="703.5" y="1219.9766">+download(): Buffer</text></g><!--class Widget--><g id="elem_Widget"><rect fill="#FFFFFF" filter="url(#f1knuvjw57m60o)" height="44" id="Widget" rx="2.5" ry="2.5" style="stroke:#000000;stroke-width:1.5;" width="61" x="377.5" y="1764.6094"/><ellipse cx="390.5" cy="1778.6094" fill="#ADD1B2" rx="9" ry="9" style="stroke:#181818;stroke-width:1.0;"/><path d="M392.1094,1776.5156 Q392.2031,1776.3906 392.2969,1776.3438 Q392.3906,1776.2813 392.5156,1776.2813 Q392.7031,1776.2813 392.8281,1776.4219 Q392.9531,1776.5625 392.9531,1776.875 L392.9531,1777.6406 Q392.9531,1777.9688 392.8281,1778.1094 Q392.7031,1778.25 392.5156,1778.25 Q392.3281,1778.25 392.2188,1778.1406 Q392.1094,1778.0469 392.0625,1777.7656 Q392.0313,1777.5781 391.9375,1777.4844 Q391.75,1777.2813 391.4219,1777.1719 Q391.1094,1777.0469 390.7813,1777.0469 Q390.375,1777.0469 390.0313,1777.2344 Q389.7031,1777.4063 389.4375,1777.7969 Q389.1875,1778.1875 389.1875,1778.7344 L389.1875,1779.3125 Q389.1875,1779.9688 389.6563,1780.4063 Q390.125,1780.8438 390.9688,1780.8438 Q391.4688,1780.8438 391.8125,1780.7031 Q392.0156,1780.625 392.25,1780.3906 Q392.3906,1780.25 392.4688,1780.2188 Q392.5469,1780.1719 392.6406,1780.1719 Q392.8281,1780.1719 392.9531,1780.3125 Q393.0938,1780.4375 393.0938,1780.625 Q393.0938,1780.8125 392.9063,1781.0156 Q392.6406,1781.3281 392.2188,1781.5 Q391.6563,1781.7344 390.9688,1781.7344 Q390.1719,1781.7344 389.5313,1781.4063 Q389.0156,1781.1406 388.6406,1780.5781 Q388.2813,1780.0156 388.2813,1779.3438 L388.2813,1778.7188 Q388.2813,1778.0156 388.6094,1777.4219 Q388.9375,1776.8125 389.5156,1776.4844 Q390.0938,1776.1406 390.75,1776.1406 Q391.1406,1776.1406 391.4688,1776.2344 Q391.8125,1776.3281 392.1094,1776.5156 Z " fill="#000000"/><text fill="#000000" font-family="sans-serif" font-size="9" lengthAdjust="spacing" textLength="29" x="404.5" y="1782.292">Widget</text><line style="stroke:#000000;stroke-width:1.5;" x1="378.5" x2="437.5" y1="1792.6094" y2="1792.6094"/><line style="stroke:#000000;stroke-width:1.5;" x1="378.5" x2="437.5" y1="1800.6094" y2="1800.6094"/></g><!--reverse link BaseController to AuthController--><g id="link_BaseController_AuthController"><path codeLine="111" d="M143.534,430.81 C164.664,446.89 175.05,454.8094 195.82,470.6094 " fill="none" id="BaseController-backto-AuthController" style="stroke:#333333;stroke-width:1.0;"/><polygon fill="none" points="129.21,419.9094,139.9005,435.5846,147.1675,426.0353,129.21,419.9094" style="stroke:#333333;stroke-width:1.0;"/></g><!--reverse link BaseController to InsightController--><g id="link_BaseController_InsightController"><path codeLine="112" d="M140.6617,335.9826 C160.8617,319.7226 170.7,311.7994 191.35,295.1794 " fill="none" id="BaseController-backto-InsightController" style="stroke:#333333;stroke-width:1.0;"/><polygon fill="none" points="126.64,347.2694,144.424,340.6565,136.8995,331.3087,126.64,347.2694" style="stroke:#333333;stroke-width:1.0;"/></g><!--reverse link BaseController to DashboardController--><g id="link_BaseController_DashboardController"><path codeLine="113" d="M153.77,383.6094 C168.98,383.6094 167.55,383.6094 182.94,383.6094 " fill="none" id="BaseController-backto-DashboardController" style="stroke:#333333;stroke-width:1.0;"/><polygon fill="none" points="135.77,383.6094,153.77,389.6094,153.77,377.6094,135.77,383.6094" style="stroke:#333333;stroke-width:1.0;"/></g><!--reverse link BaseController to ReportController--><g id="link_BaseController_ReportController"><path codeLine="114" d="M102.9843,330.8238 C120.1943,290.0138 144.32,239.2094 181.5,187.6094 C185.6,181.9194 190.24,176.2594 195.06,170.8094 " fill="none" id="BaseController-backto-ReportController" style="stroke:#333333;stroke-width:1.0;"/><polygon fill="none" points="95.99,347.4094,108.5128,333.1553,97.4558,328.4924,95.99,347.4094" style="stroke:#333333;stroke-width:1.0;"/></g><!--reverse link IService to AuthService--><g id="link_IService_AuthService"><path codeLine="155" d="M266.1686,861.9741 C282.8386,897.3741 303.51,935.5694 337,976.6094 C343.22,984.2294 350.45,991.6794 357.85,998.6094 " fill="none" id="IService-backto-AuthService" style="stroke:#333333;stroke-width:1.0;stroke-dasharray:7.0,7.0;"/><polygon fill="none" points="258.5,845.6894,260.7403,864.5303,271.5968,859.4179,258.5,845.6894" style="stroke:#333333;stroke-width:1.0;"/></g><!--reverse link IService to InsightService--><g id="link_IService_InsightService"><path codeLine="156" d="M295.79,809.6094 C318.07,809.6094 329.26,809.6094 354.26,809.6094 " fill="none" id="IService-backto-InsightService" style="stroke:#333333;stroke-width:1.0;stroke-dasharray:7.0,7.0;"/><polygon fill="none" points="277.79,809.6094,295.79,815.6094,295.79,803.6094,277.79,809.6094" style="stroke:#333333;stroke-width:1.0;"/></g><!--reverse link IService to DashboardService--><g id="link_IService_DashboardService"><path codeLine="157" d="M292.5852,844.3213 C315.0552,859.8913 329.76,870.0794 354.9,887.4994 " fill="none" id="IService-backto-DashboardService" style="stroke:#333333;stroke-width:1.0;stroke-dasharray:7.0,7.0;"/><polygon fill="none" points="277.79,834.0694,289.1679,849.253,296.0025,839.3896,277.79,834.0694" style="stroke:#333333;stroke-width:1.0;"/></g><!--reverse link IService to AnalyticsService--><g id="link_IService_AnalyticsService"><path codeLine="158" d="M256.3118,756.1316 C268.1718,715.8316 288.61,669.9094 337,641.6094 C388.41,611.5394 415.29,620.5594 471,641.6094 C501.15,652.9994 528.26,677.3694 547.44,698.3094 " fill="none" id="IService-backto-AnalyticsService" style="stroke:#333333;stroke-width:1.0;stroke-dasharray:7.0,7.0;"/><polygon fill="none" points="251.23,773.3994,262.0677,757.8255,250.5559,754.4377,251.23,773.3994" style="stroke:#333333;stroke-width:1.0;"/></g><!--reverse link IService to ReportService--><g id="link_IService_ReportService"><path codeLine="159" d="M292.5865,774.8994 C316.3765,758.4194 333.25,746.7194 359.29,728.6794 " fill="none" id="IService-backto-ReportService" style="stroke:#333333;stroke-width:1.0;stroke-dasharray:7.0,7.0;"/><polygon fill="none" points="277.79,785.1494,296.0032,779.8316,289.1699,769.9672,277.79,785.1494" style="stroke:#333333;stroke-width:1.0;"/></g><!--reverse link IRepository to UserRepository--><g id="link_IRepository_UserRepository"><path codeLine="190" d="M470.3802,1337.8178 C492.2702,1351.7978 503.29,1358.8494 525.73,1373.1794 " fill="none" id="IRepository-backto-UserRepository" style="stroke:#333333;stroke-width:1.0;stroke-dasharray:7.0,7.0;"/><polygon fill="none" points="455.21,1328.1294,467.1507,1342.8745,473.6097,1332.7611,455.21,1328.1294" style="stroke:#333333;stroke-width:1.0;"/></g><!--reverse link IRepository to InsightRepository--><g id="link_IRepository_InsightRepository"><path codeLine="191" d="M470.3792,1259.3995 C491.7792,1245.7295 502.14,1239.1094 524.24,1224.9994 " fill="none" id="IRepository-backto-InsightRepository" style="stroke:#333333;stroke-width:1.0;stroke-dasharray:7.0,7.0;"/><polygon fill="none" points="455.21,1269.0894,473.6092,1264.4559,467.1493,1254.3431,455.21,1269.0894" style="stroke:#333333;stroke-width:1.0;"/></g><!--reverse link IRepository to DashboardRepository--><g id="link_IRepository_DashboardRepository"><path codeLine="192" d="M473.21,1298.6094 C492,1298.6094 495.96,1298.6094 516,1298.6094 " fill="none" id="IRepository-backto-DashboardRepository" style="stroke:#333333;stroke-width:1.0;stroke-dasharray:7.0,7.0;"/><polygon fill="none" points="455.21,1298.6094,473.21,1304.6094,473.21,1292.6094,455.21,1298.6094" style="stroke:#333333;stroke-width:1.0;"/></g><!--link User to Insight--><g id="link_User_Insight"><path codeLine="222" d="M138.01,1633.5394 C158.53,1633.1594 175.3011,1632.8439 194.1611,1632.4839 " fill="none" id="User-to-Insight" style="stroke:#333333;stroke-width:1.0;"/><polygon fill="#333333" points="200.16,1632.3694,191.0853,1628.5419,195.1609,1632.4648,191.238,1636.5404,200.16,1632.3694" style="stroke:#333333;stroke-width:1.0;"/><text fill="#000000" font-family="sans-serif" font-size="9" lengthAdjust="spacing" textLength="5" x="147.955" y="1645.7255">1</text><text fill="#000000" font-family="sans-serif" font-size="9" lengthAdjust="spacing" textLength="15" x="175.3751" y="1645.0051">0..*</text></g><!--link User to Dashboard--><g id="link_User_Dashboard"><path codeLine="223" d="M138.01,1688.6294 C158.89,1708.5894 177.7628,1726.6335 196.8028,1744.8335 " fill="none" id="User-to-Dashboard" style="stroke:#333333;stroke-width:1.0;"/><polygon fill="#333333" points="201.14,1748.9794,197.3981,1739.8691,197.5256,1745.5245,191.8702,1745.652,201.14,1748.9794" style="stroke:#333333;stroke-width:1.0;"/><text fill="#000000" font-family="sans-serif" font-size="9" lengthAdjust="spacing" textLength="5" x="147.955" y="1707.8739">1</text><text fill="#000000" font-family="sans-serif" font-size="9" lengthAdjust="spacing" textLength="15" x="176.5052" y="1755.7414">0..*</text></g><!--link Dashboard to Widget--><g id="link_Dashboard_Widget"><path codeLine="224" d="M293.9,1786.6094 C323.27,1786.6094 344.76,1786.6094 371.45,1786.6094 " fill="none" id="Dashboard-Widget" style="stroke:#333333;stroke-width:1.0;"/><polygon fill="#333333" points="281.9,1786.6094,287.9,1790.6094,293.9,1786.6094,287.9,1782.6094,281.9,1786.6094" style="stroke:#333333;stroke-width:1.0;"/><polygon fill="#333333" points="377.45,1786.6094,368.45,1782.6094,372.45,1786.6094,368.45,1790.6094,377.45,1786.6094" style="stroke:#333333;stroke-width:1.0;"/><text fill="#000000" font-family="sans-serif" font-size="9" lengthAdjust="spacing" textLength="5" x="291.6172" y="1799.2781">1</text><text fill="#000000" font-family="sans-serif" font-size="9" lengthAdjust="spacing" textLength="15" x="352.5652" y="1799.4602">0..*</text></g><!--link AuthController to AuthService--><g id="link_AuthController_AuthService"><path codeLine="227" d="M287.21,547.8994 C301.69,564.7394 316.05,585.1394 324,606.6094 C338.28,645.1894 319.31,939.4694 337,976.6094 C341.92,986.9394 345.1679,992.0882 353.5479,1000.1182 " fill="none" id="AuthController-to-AuthService" style="stroke:#333333;stroke-width:1.0;stroke-dasharray:7.0,7.0;"/><polygon fill="#333333" points="357.88,1004.2694,354.1493,995.1545,354.2699,1000.81,348.6143,1000.9307,357.88,1004.2694" style="stroke:#333333;stroke-width:1.0;"/></g><!--link InsightController to InsightService--><g id="link_InsightController_InsightService"><path codeLine="228" d="M291.69,284.9294 C304.5,295.1394 316.73,307.8094 324,322.6094 C344.88,365.1094 316.73,705.8094 337,748.6094 C341.21,757.4994 343.2229,761.2926 350.1829,768.5026 " fill="none" id="InsightController-to-InsightService" style="stroke:#333333;stroke-width:1.0;stroke-dasharray:7.0,7.0;"/><polygon fill="#333333" points="354.35,772.8194,350.9772,763.566,350.8774,769.222,345.2214,769.1222,354.35,772.8194" style="stroke:#333333;stroke-width:1.0;"/></g><!--link DashboardController to DashboardService--><g id="link_DashboardController_DashboardService"><path codeLine="229" d="M300.41,415.6994 C309.85,423.5694 318.37,432.8794 324,443.6094 C346.01,485.5394 315.46,827.4294 337,869.6094 C340.35,876.1694 340.7603,877.8358 345.9503,883.2558 " fill="none" id="DashboardController-to-DashboardService" style="stroke:#333333;stroke-width:1.0;stroke-dasharray:7.0,7.0;"/><polygon fill="#333333" points="350.1,887.5894,346.7645,878.3225,346.6419,883.978,340.9864,883.8554,350.1,887.5894" style="stroke:#333333;stroke-width:1.0;"/></g><!--link ReportController to ReportService--><g id="link_ReportController_ReportService"><path codeLine="230" d="M291.73,154.4794 C304.05,163.4594 316.02,174.5694 324,187.6094 C372.85,267.4594 396.9043,550.8445 404.1943,653.3345 " fill="none" id="ReportController-to-ReportService" style="stroke:#333333;stroke-width:1.0;stroke-dasharray:7.0,7.0;"/><polygon fill="#333333" points="404.62,659.3194,407.9714,650.0583,404.2653,654.332,399.9915,650.6259,404.62,659.3194" style="stroke:#333333;stroke-width:1.0;"/></g><!--link AuthService to UserRepository--><g id="link_AuthService_UserRepository"><path codeLine="233" d="M439.89,1081.0994 C451.1,1098.5894 462.98,1119.3794 471,1139.6094 C506.52,1229.1394 467.67,1268.2894 516,1351.6094 C519.67,1357.9394 520.2697,1359.5303 525.3897,1365.0503 " fill="none" id="AuthService-to-UserRepository" style="stroke:#333333;stroke-width:1.0;stroke-dasharray:7.0,7.0;"/><polygon fill="#333333" points="529.47,1369.4494,526.2823,1360.1307,526.0698,1365.7835,520.4169,1365.571,529.47,1369.4494" style="stroke:#333333;stroke-width:1.0;"/></g><!--link InsightService to InsightRepository--><g id="link_InsightService_InsightRepository"><path codeLine="234" d="M459.36,852.6394 C463.77,857.9994 467.78,863.6894 471,869.6094 C520.2,959.9294 477.72,1001.1494 516,1096.6094 C524.3,1117.2994 533.7914,1133.4616 545.5614,1150.5116 " fill="none" id="InsightService-to-InsightRepository" style="stroke:#333333;stroke-width:1.0;stroke-dasharray:7.0,7.0;"/><polygon fill="#333333" points="548.97,1155.4494,547.1489,1145.7704,546.1295,1151.3346,540.5652,1150.3152,548.97,1155.4494" style="stroke:#333333;stroke-width:1.0;"/></g><!--link InsightService to AnalyticsService--><g id="link_InsightService_AnalyticsService"><path codeLine="235" d="M461.54,786.0894 C479.38,778.0894 493.9651,771.574 512.2551,763.374 " fill="none" id="InsightService-to-AnalyticsService" style="stroke:#333333;stroke-width:1.0;stroke-dasharray:7.0,7.0;"/><polygon fill="#333333" points="517.73,760.9194,507.8812,760.9513,513.1675,762.9649,511.154,768.2512,517.73,760.9194" style="stroke:#333333;stroke-width:1.0;"/></g><!--link DashboardService to DashboardRepository--><g id="link_DashboardService_DashboardRepository"><path codeLine="236" d="M458.35,959.6794 C463.2,964.8994 467.58,970.5694 471,976.6094 C530.48,1081.7294 457.65,1138.8594 516,1244.6094 C519.54,1251.0194 520.0789,1252.6235 525.1589,1258.1735 " fill="none" id="DashboardService-to-DashboardRepository" style="stroke:#333333;stroke-width:1.0;stroke-dasharray:7.0,7.0;"/><polygon fill="#333333" points="529.21,1262.5994,526.084,1253.2598,525.8341,1258.9111,520.1828,1258.6613,529.21,1262.5994" style="stroke:#333333;stroke-width:1.0;"/></g><!--link ReportService to FileHandler--><g id="link_ReportService_FileHandler"><path codeLine="237" d="M454.68,731.6094 C460.46,737.0294 466.07,742.7694 471,748.6094 C585.81,884.6694 679.2248,1071.0507 716.4048,1150.0407 " fill="none" id="ReportService-to-FileHandler" style="stroke:#333333;stroke-width:1.0;stroke-dasharray:7.0,7.0;"/><polygon fill="#333333" points="718.96,1155.4694,718.7463,1145.6228,716.8306,1150.9455,711.508,1149.0298,718.96,1155.4694" style="stroke:#333333;stroke-width:1.0;"/></g><!--link UserRepository to Database--><g id="link_UserRepository_Database"><path codeLine="240" d="M629.33,1373.8494 C640.51,1366.6694 652.22,1358.9794 663,1351.6094 C673.42,1344.4794 679.6651,1340.0988 689.9451,1332.5888 " fill="none" id="UserRepository-to-Database" style="stroke:#333333;stroke-width:1.0;stroke-dasharray:7.0,7.0;"/><polygon fill="#333333" points="694.79,1329.0494,685.1631,1331.1286,690.7526,1331.9989,689.8823,1337.5884,694.79,1329.0494" style="stroke:#333333;stroke-width:1.0;"/></g><!--link InsightRepository to Database--><g id="link_InsightRepository_Database"><path codeLine="241" d="M630.76,1223.4794 C641.53,1230.2894 652.71,1237.5694 663,1244.6094 C673.49,1251.7894 679.7826,1256.2526 690.0726,1263.8926 " fill="none" id="InsightRepository-to-Database" style="stroke:#333333;stroke-width:1.0;stroke-dasharray:7.0,7.0;"/><polygon fill="#333333" points="694.89,1267.4694,690.0485,1258.8927,690.8755,1264.4888,685.2795,1265.3158,694.89,1267.4694" style="stroke:#333333;stroke-width:1.0;"/></g><!--link DashboardRepository to Database--><g id="link_DashboardRepository_Database"><path codeLine="242" d="M639.2,1298.6094 C657.84,1298.6094 671.89,1298.6094 688.85,1298.6094 " fill="none" id="DashboardRepository-to-Database" style="stroke:#333333;stroke-width:1.0;stroke-dasharray:7.0,7.0;"/><polygon fill="#333333" points="694.85,1298.6094,685.85,1294.6094,689.85,1298.6094,685.85,1302.6094,694.85,1298.6094" style="stroke:#333333;stroke-width:1.0;"/></g><!--link BaseController to Logger--><g id="link_BaseController_Logger"><path codeLine="245" d="M84.04,419.6294 C98.43,610.4494 177.49,1494.6094 407,1494.6094 C407,1494.6094 407,1494.6094 578.5,1494.6094 C686.99,1494.6094 778.4319,1396.432 822.6019,1339.752 " fill="none" id="BaseController-to-Logger" style="stroke:#333333;stroke-width:1.0;stroke-dasharray:7.0,7.0;"/><polygon fill="#333333" points="826.29,1335.0194,817.6028,1339.6596,823.2166,1338.9632,823.913,1344.5771,826.29,1335.0194" style="stroke:#333333;stroke-width:1.0;"/></g><!--link Database to Logger--><g id="link_Database_Logger"><path codeLine="246" d="M778.04,1298.6094 C792.79,1298.6094 803.17,1298.6094 816.8,1298.6094 " fill="none" id="Database-to-Logger" style="stroke:#333333;stroke-width:1.0;stroke-dasharray:7.0,7.0;"/><polygon fill="#333333" points="822.8,1298.6094,813.8,1294.6094,817.8,1298.6094,813.8,1302.6094,822.8,1298.6094" style="stroke:#333333;stroke-width:1.0;"/></g><!--SRC=[bLTjJ-Cu4FxUNs71XsENerfWzxIBEAJI5sqae5nQxZwSJYUJJ5EBO7Tj1xRxyjzld3YfuxY5g_X0PXxFZCVppDYQwHn8n1NBbZhwWnoHsLffU2G3cIoPXaGN4iZ1CATAaH6ZcQIFRtgz71QQQ46aMKPI9X781E_rr0FZAueWigB90yrWfjVemEWfpt9m06f9K_7CU4QqB5n5OfmDj9Rilj0G9OBFs3SWxnn82WjQv7eYk2vrdxOkRo0VVKXmiOswqHsxNhb8GS6Ad7vmX9Bo1oDy_w5b9atDpavyfvTeFvEYuEbGv4AIPvFa3aZ856G5kCznHHWmNxBaWGCUp77_GtSFkq5KIl7iA7rLvNt_jFprUh-GtmC_58-cruFeXbnFH-EhsJPOpuP4zaRYaJ9EhZ6JkTeZ- -FJoSbaHBxt2C6_SdFaJe4av-TZhfbUNroKIa8EMNf6xkwYKVLL88ZJHpWZ2a-QPvKKq7hU5acH8yZOZF6_KlOl_Yhb4yrPIZNSejzdpDV1cpDoBn17UGLOKdKByf4fXUNTrlxiDH6Fg5hU2ohJ5yFkXBo91KlcBvPce8sR9y7IIemqaU287BUMjYywrORaxQpezGebri0SFxOaffCG-BeIiWnnmifqEl74O7J_FmU72o4VgJwp1YRbbnTG1Xoa3SXwDia1dePpCwAQpaGX4tWvFMKkDWkQT1mgJNMXpiXGS5vrk5afyM9BAdKdLmlGoTBODPeO57Qi6UWopfyxA3MStipZwTNLE7u5eJ0qZIMUWpHq6duS_pRyLDE9tcEIQQ9jIYwfWWtSvcB_UutwIU0h98M6LltjrvKGmvS2bDxAWK6XbnthXxd8MCcRkNW0tiX4uLMvX8pXt956QhWQBFIkUMJB8C_D8Wlv-nzx919iiLY5xHghD2J6PWH-hOVelIk01jGDeL45Y5xz5-9Ho5cG0yaIqY9l7ziXZbQU2vhwJFMAuFp7qP5tT5j0dJFOWWiaQmlIt-PEKip6yP_HSFmAHin0Fh4431qcaycduVkQ3enZWIqeTeJ8Off-m9bcMEVV_2HYmKkn3dSOapNF3aKHOAz9x24vHL_Jg1GvLLxDcAKxW9hEs6M0vwygCQlhL7LTBjlqbDDy_Gtg1ZKmdugfBRKVTDre0sLU3guM8913unFpfNphD4-A71sOVekD0H76WFcgck_X2eyIvqGCcOHcE5SzDaGcptwTcaePvjD6vyRTbCxvZtxVhO6Ehdra7RMVsAvjBpSTG6jdEyaJZs-disW-ZQFN4CZOLKmBoIo9XgFHIO143MvzFhzeryK1b1FNKC2EGiRJotMK7h1q8xJTcAM_4lo7RXIs7vVOO4SkhtED-zftvMHixe1jXbMAEtjbt3bZjbar2m9pfbAQ6uEl377e9UET6R9ZL3ZfhygXdPCGehF542WGxCxQYcucyM0sZ- -6yxju_79rHNmXARQuednQcYV0S3oP7BUV0AOdtUF8gDE4Lm-vzczHvkg6hoz5ovjPkC5SYIpR35365wBTuG7VEZAyr7I4pvIdpW0kLlL8TM-lxgYzB1OBMrcx2Narc4VJczddw7Ox8_5rLJsNOi1UY7jKIxPIlV9zj7UyHuwEBiZUktx_xLxJs4EwJL_Ul5CCvAs3iRLbRf-RAOqF_BgxUBUxVl-YrVkw5pI3y3fWw1fbO9rEsBd_65IxsvaRWUs56ALJgkvKDiiyLdXpr8boDwZJZ3jpiRKJnrXx_XYKKrXc7mu1SIjrvVUy5bUPjxfkhsgfG_sc1K2lXXYcWhsBcO5LdEar77Ha_m40]--></g></svg>