<?xml version="1.0" encoding="us-ascii" standalone="no"?><svg xmlns="http://www.w3.org/2000/svg" xmlns:xlink="http://www.w3.org/1999/xlink" contentStyleType="text/css" height="1013px" preserveAspectRatio="none" style="width:889px;height:1013px;background:#FFFFFF;" version="1.1" viewBox="0 0 889 1013" width="889px" zoomAndPan="magnify"><defs/><g><!--cluster InsightIQ System--><g id="cluster_InsightIQ System"><rect fill="none" height="646" rx="2.5" ry="2.5" style="stroke:#181818;stroke-width:1.0;" width="750" x="133" y="196.28"/><text fill="#000000" font-family="sans-serif" font-size="14" font-weight="bold" lengthAdjust="spacing" textLength="117" x="449.5" y="212.8132">InsightIQ System</text></g><g id="elem_UC1"><ellipse cx="527.1163" cy="419.4033" fill="#F1F1F1" rx="86.1163" ry="19.6233" style="stroke:#181818;stroke-width:0.5;"/><text fill="#000000" font-family="sans-serif" font-size="14" lengthAdjust="spacing" textLength="129" x="462.6163" y="423.1318">Login/Authentication</text></g><g id="elem_UC2"><ellipse cx="236.6002" cy="808.3" fill="#F1F1F1" rx="75.6002" ry="17.52" style="stroke:#181818;stroke-width:0.5;"/><text fill="#000000" font-family="sans-serif" font-size="14" lengthAdjust="spacing" textLength="103" x="182.1002" y="812.8166">View Dashboard</text></g><g id="elem_UC3"><ellipse cx="526.8789" cy="725.1558" fill="#F1F1F1" rx="79.8789" ry="18.3758" style="stroke:#181818;stroke-width:0.5;"/><text fill="#000000" font-family="sans-serif" font-size="14" lengthAdjust="spacing" textLength="114" x="468.8373" y="729.1824">Generate Reports</text></g><g id="elem_UC4"><ellipse cx="798.4277" cy="779.3655" fill="#F1F1F1" rx="68.4277" ry="16.0855" style="stroke:#181818;stroke-width:0.5;"/><text fill="#000000" font-family="sans-serif" font-size="14" lengthAdjust="spacing" textLength="83" x="753.9277" y="783.8821">Analyze Data</text></g><g id="elem_UC5"><ellipse cx="236.602" cy="248.3936" fill="#F1F1F1" rx="64.602" ry="15.6136" style="stroke:#181818;stroke-width:0.5;"/><text fill="#000000" font-family="sans-serif" font-size="14" lengthAdjust="spacing" textLength="74" x="196.602" y="252.9102">Export Data</text></g><g id="elem_UC6"><ellipse cx="236.597" cy="531.3994" fill="#F1F1F1" rx="81.097" ry="18.6194" style="stroke:#181818;stroke-width:0.5;"/><text fill="#000000" font-family="sans-serif" font-size="14" lengthAdjust="spacing" textLength="117" x="177.5843" y="535.2782">Configure Settings</text></g><g id="elem_UC7"><ellipse cx="236.7113" cy="391.4223" fill="#F1F1F1" rx="71.2113" ry="16.6423" style="stroke:#181818;stroke-width:0.5;"/><text fill="#000000" font-family="sans-serif" font-size="14" lengthAdjust="spacing" textLength="91" x="188.2113" y="395.9389">Manage Users</text></g><g id="elem_UC8"><ellipse cx="236.2537" cy="601.0307" fill="#F1F1F1" rx="66.7537" ry="15.7507" style="stroke:#181818;stroke-width:0.5;"/><text fill="#000000" font-family="sans-serif" font-size="14" lengthAdjust="spacing" textLength="78" x="194.2537" y="605.5473">Upload Data</text></g><g id="elem_UC9"><ellipse cx="236.3923" cy="319.1585" fill="#F1F1F1" rx="87.3923" ry="19.8785" style="stroke:#181818;stroke-width:0.5;"/><text fill="#000000" font-family="sans-serif" font-size="14" lengthAdjust="spacing" textLength="132" x="170.3923" y="322.887">Create Visualizations</text></g><g id="elem_UC10"><ellipse cx="236.4775" cy="671.0755" fill="#F1F1F1" rx="79.4775" ry="18.2955" style="stroke:#181818;stroke-width:0.5;"/><text fill="#000000" font-family="sans-serif" font-size="14" lengthAdjust="spacing" textLength="113" x="178.756" y="675.1509">Schedule Reports</text></g><g id="elem_UC11"><ellipse cx="236.4968" cy="740.3229" fill="#F1F1F1" rx="54.9968" ry="15.5429" style="stroke:#181818;stroke-width:0.5;"/><text fill="#000000" font-family="sans-serif" font-size="14" lengthAdjust="spacing" textLength="61" x="202.9968" y="744.8395">Set Alerts</text></g><g id="elem_UC13"><ellipse cx="236.376" cy="460.3552" fill="#F1F1F1" rx="73.376" ry="17.0752" style="stroke:#181818;stroke-width:0.5;"/><text fill="#000000" font-family="sans-serif" font-size="14" lengthAdjust="spacing" textLength="97" x="184.876" y="464.8718">Monitor System</text></g><!--entity user--><g id="elem_user"><ellipse cx="46" cy="118.78" fill="#F1F1F1" rx="8" ry="8" style="stroke:#181818;stroke-width:0.5;"/><path d="M46,126.78 L46,153.78 M33,134.78 L59,134.78 M46,153.78 L33,168.78 M46,153.78 L59,168.78 " fill="none" style="stroke:#181818;stroke-width:0.5;"/><text fill="#000000" font-family="sans-serif" font-size="14" lengthAdjust="spacing" textLength="58" x="17" y="184.8132">End User</text></g><!--entity admin--><g id="elem_admin"><ellipse cx="46" cy="387.78" fill="#F1F1F1" rx="8" ry="8" style="stroke:#181818;stroke-width:0.5;"/><path d="M46,395.78 L46,422.78 M33,403.78 L59,403.78 M46,422.78 L33,437.78 M46,422.78 L59,437.78 " fill="none" style="stroke:#181818;stroke-width:0.5;"/><text fill="#000000" font-family="sans-serif" font-size="14" lengthAdjust="spacing" textLength="39" x="26.5" y="453.8132">Admin</text></g><!--entity analyst--><g id="elem_analyst"><ellipse cx="46" cy="777.78" fill="#F1F1F1" rx="8" ry="8" style="stroke:#181818;stroke-width:0.5;"/><path d="M46,785.78 L46,812.78 M33,793.78 L59,793.78 M46,812.78 L33,827.78 M46,812.78 L59,827.78 " fill="none" style="stroke:#181818;stroke-width:0.5;"/><text fill="#000000" font-family="sans-serif" font-size="14" lengthAdjust="spacing" textLength="80" x="6" y="843.8132">Data Analyst</text></g><!--link user to UC1--><g id="link_user_UC1"><path d="M75.07,112.31 C86.34,100.38 100.37,88.62 116,82.28 C237.5,33 304.37,6 411,82.28 C517.59,158.53 526.519,333.6 526.429,393.59 " fill="none" id="user-to-UC1" style="stroke:#181818;stroke-width:1.0;"/><polygon fill="#181818" points="526.42,399.59,530.4335,390.596,526.4275,394.59,522.4335,390.584,526.42,399.59" style="stroke:#181818;stroke-width:1.0;"/></g><!--link user to UC2--><g id="link_user_UC2"><path d="M55.3,188.58 C64,231.01 77.57,300.68 86,361.28 C98.66,452.37 67.23,701.72 125,773.28 C135.93,786.82 146.3714,793.4259 162.9714,798.5959 " fill="none" id="user-to-UC2" style="stroke:#181818;stroke-width:1.0;"/><polygon fill="#181818" points="168.7,800.38,161.2965,793.8847,163.9262,798.8932,158.9177,801.5228,168.7,800.38" style="stroke:#181818;stroke-width:1.0;"/></g><!--link user to UC3--><g id="link_user_UC3"><path d="M75.08,144.87 C87.93,143.57 103.31,143.03 117,145.28 C212.83,161.04 253.6,148.38 324,215.28 C362.88,252.22 487.7909,613.312 517.7009,700.892 " fill="none" id="user-to-UC3" style="stroke:#181818;stroke-width:1.0;"/><polygon fill="#181818" points="519.64,706.57,520.5166,696.7602,518.0241,701.8383,512.946,699.3457,519.64,706.57" style="stroke:#181818;stroke-width:1.0;"/></g><!--link user to UC5--><g id="link_user_UC5"><path d="M75.25,156.27 C88.28,159.96 103.75,165.03 117,171.28 C154.29,188.85 188.8647,212.9271 211.5347,229.8771 " fill="none" id="user-to-UC5" style="stroke:#181818;stroke-width:1.0;"/><polygon fill="#181818" points="216.34,233.47,211.5272,224.8771,212.3356,230.4759,206.7367,231.2842,216.34,233.47" style="stroke:#181818;stroke-width:1.0;"/></g><!--link user to UC9--><g id="link_user_UC9"><path d="M75.15,167.09 C90.17,178.18 107.47,193.83 117,212.28 C131.17,239.71 105.65,257.23 125,281.28 C135.05,293.77 143.7906,300.0669 158.8606,305.7069 " fill="none" id="user-to-UC9" style="stroke:#181818;stroke-width:1.0;"/><polygon fill="#181818" points="164.48,307.81,157.453,300.9092,159.7972,306.0574,154.6489,308.4016,164.48,307.81" style="stroke:#181818;stroke-width:1.0;"/></g><!--link analyst to UC1--><g id="link_analyst_UC1"><path d="M86.38,829.82 C98.42,835.33 111.94,840.48 125,843.28 C252.46,870.57 335.31,884.4 411,778.28 C416.21,770.98 495.0655,518.5885 518.1055,444.6285 " fill="none" id="analyst-to-UC1" style="stroke:#181818;stroke-width:1.0;"/><polygon fill="#181818" points="519.89,438.9,513.3942,446.303,518.4029,443.6737,521.0322,448.6824,519.89,438.9" style="stroke:#181818;stroke-width:1.0;"/></g><!--link analyst to UC2--><g id="link_analyst_UC2"><path d="M86.06,808.28 C107.62,808.28 129.15,808.28 154.68,808.28 " fill="none" id="analyst-to-UC2" style="stroke:#181818;stroke-width:1.0;"/><polygon fill="#181818" points="160.68,808.28,151.68,804.28,155.68,808.28,151.68,812.28,160.68,808.28" style="stroke:#181818;stroke-width:1.0;"/></g><!--link analyst to UC4--><g id="link_analyst_UC4"><path d="M54.96,847.31 C64.67,883.68 85.01,935.85 125,960.28 C200.48,1006.38 236.12,970.25 324,960.28 C505.45,939.69 698.6283,836.5503 767.2883,797.0803 " fill="none" id="analyst-to-UC4" style="stroke:#181818;stroke-width:1.0;"/><polygon fill="#181818" points="772.49,794.09,762.6939,795.1076,768.1552,796.5819,766.6809,802.0433,772.49,794.09" style="stroke:#181818;stroke-width:1.0;"/></g><!--link analyst to UC3--><g id="link_analyst_UC3"><path d="M63.87,847.68 C75.24,868.9 92.49,893.15 116,905.28 C232.52,965.39 296.01,968.27 411,905.28 C475.07,870.18 506.8372,788.2359 518.9072,749.6859 " fill="none" id="analyst-to-UC3" style="stroke:#181818;stroke-width:1.0;"/><polygon fill="#181818" points="520.7,743.96,514.1936,751.3537,519.206,748.7316,521.8281,753.744,520.7,743.96" style="stroke:#181818;stroke-width:1.0;"/></g><!--link analyst to UC8--><g id="link_analyst_UC8"><path d="M54.82,768.99 C64.63,729.75 85.22,670.37 125,635.28 C139.75,622.27 153.601,615.77 172.241,610.82 " fill="none" id="analyst-to-UC8" style="stroke:#181818;stroke-width:1.0;"/><polygon fill="#181818" points="178.04,609.28,168.3148,607.724,173.2075,610.5633,170.3681,615.456,178.04,609.28" style="stroke:#181818;stroke-width:1.0;"/></g><!--link analyst to UC9--><g id="link_analyst_UC9"><path d="M51.46,769.23 C63.63,665.47 98.27,388.66 125,357.28 C135.46,345 144.4544,338.7664 159.6344,333.1364 " fill="none" id="analyst-to-UC9" style="stroke:#181818;stroke-width:1.0;"/><polygon fill="#181818" points="165.26,331.05,155.4307,330.4293,160.572,332.7887,158.2126,337.93,165.26,331.05" style="stroke:#181818;stroke-width:1.0;"/></g><!--link analyst to UC10--><g id="link_analyst_UC10"><path d="M69.26,769.04 C82.93,748.08 102.18,723.36 125,707.28 C140.17,696.58 152.9789,690.7062 170.4989,685.2762 " fill="none" id="analyst-to-UC10" style="stroke:#181818;stroke-width:1.0;"/><polygon fill="#181818" points="176.23,683.5,166.4493,682.3436,171.4541,684.9802,168.8176,689.9851,176.23,683.5" style="stroke:#181818;stroke-width:1.0;"/></g><!--link admin to UC1--><g id="link_admin_UC1"><path d="M49.39,378.93 C54.66,331.05 71.48,252.05 125,215.28 C197.9,165.2 242.37,181.23 324,215.28 C416,253.65 484.368,351.487 511.268,394.677 " fill="none" id="admin-to-UC1" style="stroke:#181818;stroke-width:1.0;"/><polygon fill="#181818" points="514.44,399.77,513.0772,390.0159,511.7966,395.5259,506.2866,394.2453,514.44,399.77" style="stroke:#181818;stroke-width:1.0;"/></g><!--link admin to UC6--><g id="link_admin_UC6"><path d="M65.68,441.4 C80.29,458.14 101.92,480.2 125,494.28 C141.75,504.5 155.9444,510.4963 174.2344,516.2263 " fill="none" id="admin-to-UC6" style="stroke:#181818;stroke-width:1.0;"/><polygon fill="#181818" points="179.96,518.02,172.5674,511.5123,175.1887,516.5252,170.1758,519.1464,179.96,518.02" style="stroke:#181818;stroke-width:1.0;"/></g><!--link admin to UC7--><g id="link_admin_UC7"><path d="M65.76,415.59 C91.19,411.95 131.8105,406.1301 169.7505,400.7001 " fill="none" id="admin-to-UC7" style="stroke:#181818;stroke-width:1.0;"/><polygon fill="#181818" points="175.69,399.85,166.2141,397.1654,170.7404,400.5584,167.3475,405.0847,175.69,399.85" style="stroke:#181818;stroke-width:1.0;"/></g><!--link admin to UC13--><g id="link_admin_UC13"><path d="M65.76,422.46 C92.86,428.5 138.1337,438.5848 177.2137,447.2948 " fill="none" id="admin-to-UC13" style="stroke:#181818;stroke-width:1.0;"/><polygon fill="#181818" points="183.07,448.6,175.1557,442.7379,178.1897,447.5123,173.4154,450.5464,183.07,448.6" style="stroke:#181818;stroke-width:1.0;"/></g><!--link UC3 to UC4--><g id="link_UC3_UC4"><path d="M588.15,737.33 C635.46,746.81 694.817,758.701 739.827,767.721 " fill="none" id="UC3-to-UC4" style="stroke:#181818;stroke-width:1.0;stroke-dasharray:7.0,7.0;"/><polygon fill="#181818" points="745.71,768.9,737.6714,763.2095,740.8075,767.9175,736.0995,771.0536,745.71,768.9" style="stroke:#181818;stroke-width:1.0;"/><text fill="#000000" font-family="sans-serif" font-size="13" lengthAdjust="spacing" textLength="55" x="644" y="745.7751">&#171;include&#187;</text></g><!--link UC10 to UC3--><g id="link_UC10_UC3"><path d="M299.04,682.8 C347.69,691.9 409.4025,703.4557 458.1625,712.5857 " fill="none" id="UC10-to-UC3" style="stroke:#181818;stroke-width:1.0;stroke-dasharray:7.0,7.0;"/><polygon fill="#181818" points="464.06,713.69,455.9499,708.1019,459.1454,712.7698,454.4776,715.9653,464.06,713.69" style="stroke:#181818;stroke-width:1.0;"/><text fill="#000000" font-family="sans-serif" font-size="13" lengthAdjust="spacing" textLength="55" x="355" y="690.7751">&#171;include&#187;</text></g><!--link UC2 to UC1--><g id="link_UC2_UC1"><path d="M291.45,796.09 C329.74,784.81 379.7,764.34 411,729.28 C451.62,683.79 502.4618,506.0087 519.1118,444.9387 " fill="none" id="UC2-to-UC1" style="stroke:#181818;stroke-width:1.0;stroke-dasharray:7.0,7.0;"/><polygon fill="#181818" points="520.69,439.15,514.4635,446.7809,519.3748,443.9739,522.1818,448.8852,520.69,439.15" style="stroke:#181818;stroke-width:1.0;"/><text fill="#000000" font-family="sans-serif" font-size="13" lengthAdjust="spacing" textLength="53" x="356" y="725.7751">&#171;require&#187;</text></g><!--SRC=[PPDDRy8m38Rl-HKMTnYqV8m98I504z8uR0ZkNcjAH4XOacg3QVzzIMbPsjtovdbhExOhQ6_1Aj0yErX8kQR4SYMPEN9vHeqdE6Don8mszY88F4QP2M8C4wiqj9OoXQqXtG8qaBj31MRfYSlY5lsfkbwWHPX951TZR_HsPepTWqDh9OqlQFKA6yVer89l1ZvyWiRX5vLn-J3BxO6avGdwaejWstalzEquVS82pU5TeKvBHnGwdacIHalmHcUbhIazSUWfghqI-D9BtW_vyij_6k91YETAxdcMQu8DMSjbLYKPXgwrwqD6HIihFWhvzYmKfc6InreIJVuLEsvo5FnQTAIACmwDc-H0QIwQ3-vrQoQoC1CKu5fRrqfoFyngDZTBp7uOyni0xVQqc4GWeb34eHY4OkpswhOFzo1r7JLqlw7ZXdviw74pVjTbzFlvbozGmveQrPsnMrcN43gTeX1uWic4oqJaAKsdp8SkKVmFHINf5KJJH-v-F4T-0G00]--></g></svg>